<svg width="1627" height="13" viewBox="0 0 1627 13" fill="none" xmlns="http://www.w3.org/2000/svg">
<path fill-rule="evenodd" clip-rule="evenodd" d="M0 12.9999H1627V2.34876C1624.05 2.34876 1622.44 1.3466 1621.41 0.704468C1620.16 -0.0706514 1619.75 -0.321181 1618.86 2.34876C1617.06 0.540678 1615.25 1.24383 1613.44 1.94697C1612 2.50948 1610.55 3.07199 1609.1 2.34876C1607.41 6.58732 1605.27 4.20175 1603.38 2.09362C1601.65 0.154987 1600.12 -1.54902 1599.34 2.34876C1599.34 0.889418 1598.36 1.39319 1596.98 2.09955C1595.29 2.96847 1593 4.14395 1591.21 2.34876C1588.4 7.03148 1585.59 5.78508 1583.4 4.81392C1581.78 4.09766 1580.51 3.53112 1579.82 5.60329C1579.82 2.34876 1561.92 -4.16031 1560.29 5.60329C1560.29 10.4851 1550.53 7.23056 1550.53 7.23056C1550.53 2.89118 1546.19 3.61441 1543.3 4.09657C1541.85 4.33764 1540.77 4.51845 1540.77 3.97603C1538.48 7.03398 1535.46 6.50038 1531.23 5.74984C1526.45 4.9028 1520.11 3.77944 1511.48 7.23056C1511.48 9.34711 1510.87 8.71072 1509.78 7.57588C1508.36 6.09323 1506.11 3.75979 1503.35 5.60329C1498.47 -0.905777 1495.21 2.34876 1491.96 5.60329H1482.2C1480.16 2.54634 1474.29 3.95596 1469.79 5.0374C1467.11 5.68296 1464.91 6.21158 1464.3 5.60329C1461.32 3.61345 1454.68 4.66512 1449.98 5.41101C1446.99 5.88508 1444.78 6.23564 1444.78 5.60329H1436.64C1436.64 5.14379 1436.25 5.4628 1435.58 6.01075C1433.88 7.40327 1430.38 10.2744 1426.88 5.60329C1423.43 6.29249 1420.57 5.52222 1417.8 4.77599C1414.03 3.76027 1410.42 2.78907 1405.73 5.60329C1405.73 2.58617 1403.86 3.29842 1401.29 4.28273C1399.69 4.89106 1397.83 5.60329 1395.97 5.60329C1393.2 3.76207 1390.44 5.04582 1388.57 5.91868C1387.12 6.58869 1386.2 7.0166 1386.2 5.60329C1384.5 9.01282 1382.8 7.51099 1381.09 6.00917C1379.54 4.6439 1377.99 3.27863 1376.44 5.60329C1376.44 2.34876 1366.68 3.97603 1366.68 5.60329C1365.75 2.80962 1363.75 3.74628 1361.6 4.75374C1360 5.50676 1358.31 6.29934 1356.92 5.60329C1353.98 7.56407 1351.63 6.57156 1349.87 5.82846C1348.71 5.33814 1347.8 4.95641 1347.16 5.60329C1348.36 0.800187 1345.13 3.0856 1342.05 5.26734C1340.95 6.04224 1339.87 6.80407 1339.02 7.23056C1338.05 3.34157 1334.75 4.6806 1332.26 5.69459C1330.58 6.37773 1329.26 6.91334 1329.26 5.60329C1327.77 6.34959 1325.93 5.72683 1324.23 5.14772C1322.21 4.46412 1320.38 3.84135 1319.5 5.60329C1318.57 3.74734 1316.05 4.53736 1313.76 5.25732C1312.03 5.79984 1310.43 6.30258 1309.73 5.60329H1299.97C1296.72 -0.905777 1283.7 3.97603 1280.45 5.60329H1270.69C1266.78 2.66998 1262.28 3.84924 1258.25 4.90488C1255.58 5.60611 1253.11 6.25279 1251.16 5.60329C1248.57 7.33349 1245.51 6.30424 1242.98 5.44952C1240.74 4.6965 1238.91 4.07895 1238.15 5.60329C1238.15 5.60329 1226.76 0.721491 1221.88 5.60329C1221.88 3.97603 1219.84 4.78966 1217.81 5.6033C1215.78 6.41693 1213.74 7.23056 1213.74 5.60329C1209.66 -0.108985 1206.81 2.36327 1203.75 5.01653C1200.71 7.65415 1197.46 10.4707 1192.59 5.60329C1190.8 3.80811 1188.51 4.98357 1186.81 5.85249C1185.44 6.55886 1184.46 7.06264 1184.46 5.60329C1182.83 5.60329 1180.84 5.06087 1178.85 4.51845C1174.87 3.4336 1170.9 2.34876 1169.81 5.60329C1165.44 6.33236 1161.72 5.75486 1158.07 5.18789C1153.57 4.48939 1149.17 3.80689 1143.78 5.60329C1141.91 2.79897 1140.58 3.75348 1139.17 4.76527C1138.12 5.51481 1137.03 6.29579 1135.65 5.60329C1134.02 5.33209 1132.48 5.01567 1130.95 4.69926C1123.26 3.11719 1115.58 1.53512 1096.6 5.60329C1088.46 2.34876 1073.82 3.97603 1068.94 7.23056L1059.18 5.60329C1058.63 5.33208 1058.09 5.01567 1057.55 4.69925C1054.84 3.11719 1052.13 1.53513 1049.42 5.60329H1020.13C1017.96 0.179063 1015.79 1.98715 1013.62 3.79522C1012.54 4.69926 1011.45 5.60329 1010.37 5.60329C1010.37 4.04419 1008.5 4.72578 1006.38 5.50123C1004.07 6.34449 1001.45 7.29872 1000.6 5.60329C997.854 5.60329 996.266 5.02193 995.104 4.59634C993.516 4.01497 992.722 3.72429 990.843 5.60329C990.843 7.23056 985.962 8.85783 981.081 5.60329C979.216 6.22499 976.402 5.42159 973.363 4.55422C968.448 3.15128 962.946 1.58099 959.93 5.60329C958.909 5.60329 957.887 5.2827 956.967 4.99368C954.954 4.36185 953.422 3.88096 953.422 7.23056C952.664 5.71525 950.496 6.31652 948.395 6.89917C945.983 7.56792 943.66 8.21214 943.66 5.60329H933.898C933.898 5.14379 933.509 5.46281 932.84 6.01075C931.141 7.40327 927.639 10.2744 924.136 5.60329C922.227 6.23982 919.571 5.8804 916.752 5.49898C912.365 4.90531 907.584 4.25835 904.612 7.23056C904.217 7.23056 902.961 6.94327 901.261 6.55453C895.953 5.34083 886.32 3.13828 885.088 5.60329C882.798 7.1304 880.866 6.14957 879.292 5.35059C877.511 4.4468 876.19 3.7757 875.326 7.23056C872.566 4.47045 849.913 5.22154 841.109 5.51345C839.532 5.56574 838.399 5.60329 837.905 5.60329C837.905 3.97603 811.873 -0.905777 806.992 5.60329H790.722C781.861 2.05835 780.239 3.33999 778.496 4.71668C777.039 5.86779 775.498 7.08536 769.571 5.60329C769.571 7.23056 768.351 6.82375 766.52 6.21352C764.69 5.6033 762.25 4.78966 759.809 5.60329C757.88 6.24653 754.679 5.3642 751.413 4.46389C746.417 3.08657 741.269 1.66716 740.285 5.60329C738.87 6.31069 733.151 5.78803 727.138 5.23844C719.318 4.52377 710.999 3.76354 710.999 5.60329H702.864C702.864 5.60329 693.102 10.4851 693.102 5.60329H645.919C644.671 4.97943 643.424 5.79064 642.085 6.66147C639.931 8.06208 637.54 9.6169 634.53 5.60329H613.379C610.885 3.10848 597.873 4.43855 590.469 5.19546C588.214 5.42595 586.48 5.60329 585.72 5.60329C582.221 2.10415 579.663 3.30768 576.782 4.66336C574.303 5.82952 571.585 7.10826 567.823 5.60329H558.061C556.197 5.60329 554.332 5.12846 552.74 4.72291C550.163 4.06671 548.299 3.59188 548.299 5.60329C548.299 2.34876 499.489 3.97603 489.727 5.60329H470.203C469.373 3.11371 468.12 4.00978 466.66 5.05414C465.257 6.05766 463.663 7.19811 462.068 5.60329C460.633 7.03846 458.882 5.62571 457.233 4.29537C455.142 2.6089 453.216 1.05487 452.306 5.60329C451.159 -1.27719 448.397 0.731658 445.157 3.08751C443.8 4.07468 442.358 5.12277 440.917 5.60329L424.647 3.97603C424.647 8.23169 394.973 6.3043 386.283 5.73988C385.005 5.65683 384.181 5.60329 383.972 5.60329C382.453 7.12208 380.935 6.16018 379.416 5.19829C377.681 4.09898 375.945 2.99967 374.21 5.60329C374.21 3.97603 367.702 2.34876 364.448 5.60329C362.821 3.97603 358.754 4.78966 354.686 5.60329C350.618 6.41693 346.551 7.23056 344.924 5.60329C344.924 10.4851 336.789 5.60329 336.789 5.60329C334.596 1.21748 317.63 3.48079 306.795 4.92625C301.55 5.62602 297.741 6.13411 297.741 5.60329C294.487 2.34876 291.233 3.97603 287.979 5.60329C283.098 7.23056 250.558 8.85783 248.931 5.60329H239.169C238.273 5.30469 237.487 5.00608 236.781 4.73763C233.636 3.5432 232.064 2.94598 229.407 5.60329H201.748C198.396 8.95599 195.044 6.93608 193.273 5.86888C192.465 5.38215 191.986 5.09359 191.986 5.60329H180.597C179.196 7.00475 174.174 5.99224 168.78 4.90463C161.648 3.46654 153.864 1.89714 152.938 5.60329C152.938 6.27733 151.263 5.83459 149.301 5.31588C146.526 4.58232 143.176 3.69683 143.176 5.60329C143.176 10.4851 139.922 8.85783 136.668 5.60329C133.231 8.18126 128.433 7.12893 123.472 6.04081C119.039 5.0684 114.475 4.0674 110.636 5.60329C108.548 1.42615 106.46 3.95063 105.231 5.43545C104.546 6.26436 104.128 6.76926 104.128 5.60329C104.128 3.97603 101.688 4.78966 99.247 5.6033C96.8065 6.41693 94.366 7.23056 94.366 5.60329C92.739 7.23056 87.858 8.85783 84.604 5.60329C83.3205 6.24515 78.7463 5.62115 73.6771 4.92961C65.8945 3.86793 56.945 2.64705 56.945 5.60329C56.945 3.33764 52.7397 4.57697 48.2325 5.90527C43.028 7.43906 37.421 9.0915 37.421 5.60329C37.421 7.83636 36.0593 7.00503 34.2701 5.91278C32.148 4.61722 29.4245 2.95456 27.659 5.60329C26.3672 1.7272 15.8441 4.00626 10.7489 5.10978C9.42682 5.39611 8.47018 5.60329 8.135 5.60329L0 2.34876V12.9999Z" fill="white"/>
</svg>
