<svg width="64" height="64" viewBox="0 0 64 64" fill="none" xmlns="http://www.w3.org/2000/svg">
<path d="M32 6C26.8577 6 21.8309 7.52487 17.5552 10.3818C13.2795 13.2387 9.94702 17.2994 7.97914 22.0502C6.01127 26.8011 5.49638 32.0288 6.49959 37.0723C7.50281 42.1159 9.97907 46.7486 13.6152 50.3848C17.2514 54.0209 21.8842 56.4972 26.9277 57.5004C31.9712 58.5036 37.1989 57.9887 41.9498 56.0209C46.7007 54.053 50.7613 50.7205 53.6182 46.4448C56.4751 42.1691 58 37.1423 58 32C57.9927 25.1066 55.2511 18.4976 50.3767 13.6233C45.5024 8.74889 38.8934 6.00728 32 6ZM32 54C27.6488 54 23.3953 52.7097 19.7775 50.2923C16.1596 47.8749 13.3398 44.439 11.6747 40.419C10.0095 36.3991 9.57386 31.9756 10.4227 27.708C11.2716 23.4404 13.3669 19.5204 16.4437 16.4437C19.5204 13.3669 23.4404 11.2716 27.708 10.4227C31.9756 9.57385 36.3991 10.0095 40.419 11.6747C44.439 13.3398 47.875 16.1596 50.2923 19.7775C52.7097 23.3953 54 27.6488 54 32C53.9934 37.8327 51.6734 43.4247 47.5491 47.549C43.4247 51.6734 37.8327 53.9934 32 54ZM44.06 30.305L28.06 20.305C27.7573 20.1158 27.4096 20.0111 27.0528 20.0017C26.696 19.9923 26.3431 20.0785 26.0309 20.2515C25.7187 20.4244 25.4584 20.6778 25.2772 20.9852C25.0959 21.2927 25.0002 21.6431 25 22V42C25.0002 42.3569 25.0959 42.7073 25.2772 43.0148C25.4584 43.3222 25.7187 43.5756 26.0309 43.7485C26.3431 43.9215 26.696 44.0077 27.0528 43.9983C27.4096 43.9889 27.7573 43.8842 28.06 43.695L44.06 33.695C44.3472 33.5151 44.584 33.2652 44.7482 32.9687C44.9123 32.6722 44.9984 32.3389 44.9984 32C44.9984 31.6611 44.9123 31.3278 44.7482 31.0313C44.584 30.7348 44.3472 30.4849 44.06 30.305ZM29 38.3925V25.6075L39.2275 32L29 38.3925Z" fill="white"/>
</svg>
