<svg width="32" height="32" viewBox="0 0 32 32" fill="none" xmlns="http://www.w3.org/2000/svg">
<path d="M32.0008 16C32.0008 16.3978 31.8428 16.7794 31.5615 17.0607C31.2801 17.342 30.8986 17.5 30.5008 17.5H8.50079C8.10297 17.5 7.72144 17.342 7.44013 17.0607C7.15883 16.7794 7.00079 16.3978 7.00079 16C7.00079 15.6022 7.15883 15.2206 7.44013 14.9393C7.72144 14.658 8.10297 14.5 8.50079 14.5H30.5008C30.8986 14.5 31.2801 14.658 31.5615 14.9393C31.8428 15.2206 32.0008 15.6022 32.0008 16ZM8.50079 9.5H30.5008C30.8986 9.5 31.2801 9.34196 31.5615 9.06066C31.8428 8.77936 32.0008 8.39782 32.0008 8C32.0008 7.60218 31.8428 7.22064 31.5615 6.93934C31.2801 6.65804 30.8986 6.5 30.5008 6.5H8.50079C8.10297 6.5 7.72144 6.65804 7.44013 6.93934C7.15883 7.22064 7.00079 7.60218 7.00079 8C7.00079 8.39782 7.15883 8.77936 7.44013 9.06066C7.72144 9.34196 8.10297 9.5 8.50079 9.5ZM30.5008 22.5H8.50079C8.10297 22.5 7.72144 22.658 7.44013 22.9393C7.15883 23.2206 7.00079 23.6022 7.00079 24C7.00079 24.3978 7.15883 24.7794 7.44013 25.0607C7.72144 25.342 8.10297 25.5 8.50079 25.5H30.5008C30.8986 25.5 31.2801 25.342 31.5615 25.0607C31.8428 24.7794 32.0008 24.3978 32.0008 24C32.0008 23.6022 31.8428 23.2206 31.5615 22.9393C31.2801 22.658 30.8986 22.5 30.5008 22.5Z" fill="#111111"/>
</svg>
