<svg width="20" height="20" viewBox="0 0 20 20" fill="none" xmlns="http://www.w3.org/2000/svg">
<g clip-path="url(#clip0_1090_4917)">
<path d="M19.232 4.52344L15.4758 2.31641C15.3317 2.23142 15.1673 2.18688 15 2.18751H12.5C12.2514 2.18751 12.0129 2.28628 11.8371 2.46209C11.6613 2.63791 11.5625 2.87637 11.5625 3.12501C11.5625 3.53941 11.3979 3.93684 11.1049 4.22986C10.8118 4.52289 10.4144 4.68751 10 4.68751C9.58562 4.68751 9.18819 4.52289 8.89517 4.22986C8.60214 3.93684 8.43752 3.53941 8.43752 3.12501C8.43752 2.87637 8.33875 2.63791 8.16293 2.46209C7.98712 2.28628 7.74866 2.18751 7.50002 2.18751H5.00002C4.83317 2.1874 4.66937 2.2322 4.5258 2.31719L0.767989 4.52344C0.429662 4.7254 0.179224 5.04673 0.0660026 5.42414C-0.0472187 5.80154 -0.0150153 6.20766 0.15627 6.56251L1.55471 9.43751C1.67939 9.69993 1.8761 9.92152 2.12189 10.0764C2.36769 10.2314 2.65245 10.3132 2.94299 10.3125H4.06252V16.25C4.06252 16.6644 4.22714 17.0618 4.52017 17.3549C4.81319 17.6479 5.21062 17.8125 5.62502 17.8125H14.375C14.7894 17.8125 15.1868 17.6479 15.4799 17.3549C15.7729 17.0618 15.9375 16.6644 15.9375 16.25V10.3125H17.0563C17.3463 10.313 17.6304 10.2312 17.8759 10.0768C18.1213 9.92232 18.3179 9.70148 18.443 9.43985L19.8438 6.56251C20.0151 6.20766 20.0473 5.80154 19.934 5.42414C19.8208 5.04673 19.5704 4.7254 19.232 4.52344ZM3.15393 8.43751L1.96564 5.99454L4.06252 4.76563V8.43751H3.15393ZM14.0625 15.9375H5.93752V4.06251H6.69299C6.89668 4.78288 7.32996 5.41706 7.927 5.86869C8.52403 6.32032 9.25219 6.56471 10.0008 6.56471C10.7494 6.56471 11.4776 6.32032 12.0746 5.86869C12.6716 5.41706 13.1049 4.78288 13.3086 4.06251H14.0625V15.9375ZM16.8453 8.43751H15.9375V4.76563L18.0336 5.99688L16.8453 8.43751Z" fill="#111111"/>
</g>
<defs>
<clipPath id="clip0_1090_4917">
<rect width="20" height="20" fill="white"/>
</clipPath>
</defs>
</svg>
