<svg width="22" height="31" viewBox="0 0 22 31" fill="none" xmlns="http://www.w3.org/2000/svg">
<path d="M1.30746 8.74114L1.64155 1.9584C2.59609 1.41705 3.77337 0.955318 5.17337 0.573191C6.60518 0.191064 8.212 0 9.99382 0C12.5393 0 14.5915 0.366204 16.1506 1.09861C17.7097 1.79918 18.8552 2.77042 19.587 4.01233C20.3188 5.25424 20.6847 6.65537 20.6847 8.21572C20.6847 10.4129 19.6188 12.5624 17.487 14.6641C15.3552 16.734 12.4438 19.0267 8.75291 21.5424C8.05291 22.0519 7.22564 22.6728 6.27109 23.4052C5.31655 24.1376 4.42564 24.8541 3.59837 25.5547H21.4961V31H0.496094V26.9877C1.64155 25.8731 2.75518 24.7745 3.837 23.6918C4.95064 22.5773 6.00064 21.5265 6.987 20.5393C9.27791 18.1828 10.9802 16.0971 12.0938 14.282C13.2393 12.435 13.812 10.4607 13.812 8.35901C13.812 6.16179 13.4143 4.39445 12.6188 3.05701C11.8234 1.68773 10.6302 1.00308 9.03928 1.00308C8.05291 1.00308 7.13018 1.25783 6.27109 1.76733C5.44382 2.24499 4.712 3.08886 4.07564 4.29892L1.78473 8.74114H1.30746Z" fill="#111111"/>
</svg>
