<svg width="32" height="32" viewBox="0 0 32 32" fill="none" xmlns="http://www.w3.org/2000/svg">
<g clip-path="url(#clip0_1090_5722)">
<path d="M13.5 18.5L20 12" stroke="#111111" stroke-width="2" stroke-linecap="round" stroke-linejoin="round"/>
<path d="M27.9621 5.27246C28.0103 5.1014 28.0121 4.92058 27.9672 4.74863C27.9223 4.57667 27.8324 4.41978 27.7067 4.29411C27.5811 4.16845 27.4242 4.07854 27.2522 4.03365C27.0803 3.98876 26.8994 3.9905 26.7284 4.03871L2.72839 11.3162C2.53245 11.3715 2.35805 11.4853 2.22852 11.6424C2.09898 11.7994 2.02047 11.9923 2.00349 12.1952C1.9865 12.3981 2.03185 12.6013 2.13346 12.7777C2.23508 12.9541 2.38812 13.0953 2.57214 13.1825L13.5009 18.5L18.8184 29.4275C18.9055 29.6115 19.0467 29.7645 19.2231 29.8661C19.3995 29.9677 19.6028 30.0131 19.8057 29.9961C20.0085 29.9791 20.2014 29.9006 20.3585 29.7711C20.5155 29.6415 20.6293 29.4671 20.6846 29.2712L27.9621 5.27246Z" stroke="#111111" stroke-width="2" stroke-linecap="round" stroke-linejoin="round"/>
</g>
<defs>
<clipPath id="clip0_1090_5722">
<rect width="32" height="32" fill="white"/>
</clipPath>
</defs>
</svg>
