<svg width="26" height="26" viewBox="0 0 26 26" fill="none" xmlns="http://www.w3.org/2000/svg">
<path d="M20.6611 5.24121C18.6152 3.19043 15.8906 2.0625 12.9951 2.0625C7.01855 2.0625 2.15527 6.92578 2.15527 12.9023C2.15527 14.8115 2.65332 16.6768 3.60059 18.3223L2.0625 23.9375L7.80957 22.4287C9.3916 23.293 11.1738 23.7471 12.9902 23.7471H12.9951C18.9668 23.7471 23.9375 18.8838 23.9375 12.9072C23.9375 10.0117 22.707 7.29199 20.6611 5.24121ZM12.9951 21.9209C11.374 21.9209 9.78711 21.4863 8.40527 20.666L8.07812 20.4707L4.66992 21.3643L5.57812 18.0391L5.36328 17.6973C4.45996 16.2617 3.98633 14.6064 3.98633 12.9023C3.98633 7.93652 8.0293 3.89355 13 3.89355C15.4072 3.89355 17.668 4.83105 19.3672 6.53516C21.0664 8.23926 22.1113 10.5 22.1064 12.9072C22.1064 17.8779 17.9609 21.9209 12.9951 21.9209ZM17.9365 15.1729C17.668 15.0361 16.335 14.3818 16.0859 14.2939C15.8369 14.2012 15.6563 14.1572 15.4756 14.4307C15.2949 14.7041 14.7773 15.3096 14.6162 15.4951C14.46 15.6758 14.2988 15.7002 14.0303 15.5635C12.4385 14.7676 11.3936 14.1426 10.3438 12.3408C10.0654 11.8623 10.6221 11.8965 11.1396 10.8613C11.2275 10.6807 11.1836 10.5244 11.1152 10.3877C11.0469 10.251 10.5049 8.91797 10.2803 8.37598C10.0605 7.84863 9.83594 7.92188 9.66992 7.91211C9.51367 7.90234 9.33301 7.90234 9.15234 7.90234C8.97168 7.90234 8.67871 7.9707 8.42969 8.23926C8.18066 8.5127 7.48242 9.16699 7.48242 10.5C7.48242 11.833 8.4541 13.1221 8.58594 13.3027C8.72266 13.4834 10.4951 16.2178 13.2148 17.3945C14.9336 18.1367 15.6074 18.2002 16.4668 18.0732C16.9893 17.9951 18.0684 17.4189 18.293 16.7842C18.5176 16.1494 18.5176 15.6074 18.4492 15.4951C18.3857 15.373 18.2051 15.3047 17.9365 15.1729Z" fill="#111111"/>
</svg>
