<svg width="32" height="32" viewBox="0 0 32 32" fill="none" xmlns="http://www.w3.org/2000/svg">
<path d="M32.0007 16C32.0007 16.3978 31.8427 16.7794 31.5614 17.0607C31.2801 17.342 30.8986 17.5 30.5007 17.5H8.50073C8.10291 17.5 7.72138 17.342 7.44007 17.0607C7.15877 16.7794 7.00073 16.3978 7.00073 16C7.00073 15.6022 7.15877 15.2206 7.44007 14.9393C7.72138 14.658 8.10291 14.5 8.50073 14.5H30.5007C30.8986 14.5 31.2801 14.658 31.5614 14.9393C31.8427 15.2206 32.0007 15.6022 32.0007 16ZM8.50073 9.5H30.5007C30.8986 9.5 31.2801 9.34196 31.5614 9.06066C31.8427 8.77936 32.0007 8.39782 32.0007 8C32.0007 7.60218 31.8427 7.22064 31.5614 6.93934C31.2801 6.65804 30.8986 6.5 30.5007 6.5H8.50073C8.10291 6.5 7.72138 6.65804 7.44007 6.93934C7.15877 7.22064 7.00073 7.60218 7.00073 8C7.00073 8.39782 7.15877 8.77936 7.44007 9.06066C7.72138 9.34196 8.10291 9.5 8.50073 9.5ZM30.5007 22.5H8.50073C8.10291 22.5 7.72138 22.658 7.44007 22.9393C7.15877 23.2206 7.00073 23.6022 7.00073 24C7.00073 24.3978 7.15877 24.7794 7.44007 25.0607C7.72138 25.342 8.10291 25.5 8.50073 25.5H30.5007C30.8986 25.5 31.2801 25.342 31.5614 25.0607C31.8427 24.7794 32.0007 24.3978 32.0007 24C32.0007 23.6022 31.8427 23.2206 31.5614 22.9393C31.2801 22.658 30.8986 22.5 30.5007 22.5Z" fill="white"/>
</svg>
