<svg width="8" height="8" viewBox="0 0 8 8" fill="none" xmlns="http://www.w3.org/2000/svg">
<mask id="mask0_1090_5740" style="mask-type:alpha" maskUnits="userSpaceOnUse" x="0" y="0" width="8" height="8">
<rect width="8" height="8" fill="#D9D9D9"/>
</mask>
<g mask="url(#mask0_1090_5740)">
<path d="M4.00311 7.20005C3.56267 7.20005 3.148 7.11672 2.75911 6.95005C2.37023 6.78338 2.02995 6.55422 1.73828 6.26255C1.44661 5.97088 1.21745 5.63072 1.05078 5.24205C0.884115 4.85338 0.800781 4.4381 0.800781 3.99622C0.800781 3.55433 0.884115 3.14033 1.05078 2.75422C1.21745 2.3681 1.44661 2.02922 1.73828 1.73755C2.02995 1.44588 2.37011 1.21672 2.75878 1.05005C3.14745 0.883382 3.56273 0.800049 4.00461 0.800049C4.4465 0.800049 4.8605 0.883382 5.24661 1.05005C5.63273 1.21672 5.97161 1.44588 6.26328 1.73755C6.55495 2.02922 6.78411 2.36872 6.95078 2.75605C7.11745 3.14344 7.20078 3.55733 7.20078 3.99772C7.20078 4.43816 7.11745 4.85283 6.95078 5.24172C6.78411 5.6306 6.55495 5.97088 6.26328 6.26255C5.97161 6.55422 5.63211 6.78338 5.24478 6.95005C4.85739 7.11672 4.4435 7.20005 4.00311 7.20005ZM4.00078 6.60005C4.723 6.60005 5.33689 6.34727 5.84245 5.84172C6.348 5.33616 6.60078 4.72227 6.60078 4.00005C6.60078 3.27783 6.348 2.66394 5.84245 2.15838C5.33689 1.65283 4.723 1.40005 4.00078 1.40005C3.27856 1.40005 2.66467 1.65283 2.15911 2.15838C1.65356 2.66394 1.40078 3.27783 1.40078 4.00005C1.40078 4.72227 1.65356 5.33616 2.15911 5.84172C2.66467 6.34727 3.27856 6.60005 4.00078 6.60005ZM4.00078 6.60005C3.27856 6.60005 2.66467 6.34727 2.15911 5.84172C1.65356 5.33616 1.40078 4.72227 1.40078 4.00005C1.40078 3.27783 1.65356 2.66394 2.15911 2.15838C2.66467 1.65283 3.27856 1.40005 4.00078 1.40005C4.723 1.40005 5.33689 1.65283 5.84245 2.15838C6.348 2.66394 6.60078 3.27783 6.60078 4.00005C6.60078 4.72227 6.348 5.33616 5.84245 5.84172C5.33689 6.34727 4.723 6.60005 4.00078 6.60005Z" fill="#111111"/>
</g>
</svg>
