<svg width="20" height="31" viewBox="0 0 20 31" fill="none" xmlns="http://www.w3.org/2000/svg">
<path d="M8.83295 31C6.78871 31 5.1106 30.7666 3.79863 30.2997C2.51716 29.8328 1.25095 29.2882 0 28.6657L0.503433 22.5964H0.961098L2.97483 26.378C4.31731 28.8368 6.17849 30.0663 8.55835 30.0663C9.96186 30.0663 11.0908 29.4749 11.9451 28.2922C12.8299 27.0783 13.2723 25.0552 13.2723 22.2229C13.2723 19.7641 12.9062 18.0055 12.1739 16.9473C11.4416 15.8579 10.1907 15.3133 8.42105 15.3133H5.67506V14.3795H8.10068C9.71777 14.3795 10.8772 13.8815 11.5789 12.8855C12.3112 11.8896 12.6773 10.1621 12.6773 7.70331C12.6773 5.30673 12.3265 3.61044 11.6247 2.61446C10.923 1.58735 9.99237 1.0738 8.83295 1.0738C7.67353 1.0738 6.69718 1.41616 5.90389 2.1009C5.14111 2.78564 4.51564 3.59488 4.02746 4.52861L1.96796 8.4503L1.5103 8.40361L1.96796 1.54066C2.94432 1.10492 4.02746 0.746988 5.21739 0.466867C6.43783 0.155622 7.79557 0 9.29062 0C12.4943 0 14.9199 0.715863 16.5675 2.14759C18.2456 3.54819 19.0847 5.30673 19.0847 7.42319C19.0847 8.94829 18.4439 10.4111 17.1625 11.8117C15.881 13.1812 13.8673 14.1305 11.1213 14.6596C14.2334 14.9398 16.4912 15.7957 17.8947 17.2274C19.2982 18.6591 20 20.3865 20 22.4096C20 24.0281 19.5423 25.491 18.627 26.7982C17.7422 28.1054 16.4607 29.1325 14.7826 29.8795C13.135 30.6265 11.1518 31 8.83295 31Z" fill="#111111"/>
</svg>
