<svg width="21" height="20" viewBox="0 0 21 20" fill="none" xmlns="http://www.w3.org/2000/svg">
<path d="M16.5675 9.1917C16.5095 9.24981 16.4406 9.29591 16.3647 9.32736C16.2888 9.35882 16.2075 9.37501 16.1253 9.37501C16.0432 9.37501 15.9619 9.35882 15.886 9.32736C15.8101 9.29591 15.7412 9.24981 15.6832 9.1917L11.1253 4.63311V16.8745C11.1253 17.0403 11.0595 17.1992 10.9423 17.3165C10.8251 17.4337 10.6661 17.4995 10.5003 17.4995C10.3346 17.4995 10.1756 17.4337 10.0584 17.3165C9.9412 17.1992 9.87535 17.0403 9.87535 16.8745V4.63311L5.31753 9.1917C5.20026 9.30898 5.0412 9.37486 4.87535 9.37486C4.7095 9.37486 4.55044 9.30898 4.43316 9.1917C4.31588 9.07443 4.25 8.91537 4.25 8.74952C4.25 8.58366 4.31588 8.4246 4.43316 8.30733L10.0582 2.68233C10.1162 2.62422 10.1851 2.57812 10.261 2.54667C10.3369 2.51521 10.4182 2.49902 10.5003 2.49902C10.5825 2.49902 10.6638 2.51521 10.7397 2.54667C10.8156 2.57812 10.8845 2.62422 10.9425 2.68233L16.5675 8.30733C16.6256 8.36537 16.6717 8.4343 16.7032 8.51018C16.7347 8.58605 16.7508 8.66738 16.7508 8.74952C16.7508 8.83165 16.7347 8.91298 16.7032 8.98885C16.6717 9.06473 16.6256 9.13366 16.5675 9.1917Z" fill="white"/>
</svg>
