<svg width="32" height="32" viewBox="0 0 32 32" fill="none" xmlns="http://www.w3.org/2000/svg">
<g clip-path="url(#clip0_1090_6256)">
<path d="M14.38 27.138C15.4804 27.138 16.5809 27.1875 17.6814 27.1146C18.6828 27.0651 19.7363 26.9687 20.7142 26.7239C28.4906 24.8203 32.6474 16.2474 29.2469 8.99738C27.1919 4.62498 23.6715 2.1328 18.8549 1.61978C15.1623 1.22915 11.8608 2.32811 9.07313 4.81769C6.33497 7.28384 4.91634 10.3594 4.81985 14.0469C4.79638 14.901 4.81985 15.7812 4.81985 16.6354C4.79378 18.4948 3.74284 19.9349 1.95652 20.4948C1.93305 20.4948 1.8835 20.5443 1.85742 20.5443C2.54327 22.3515 5.32837 25.013 7.06515 25.6719C9.24525 22.6927 13.6446 23.7448 14.38 27.138Z" fill="white"/>
<path d="M14.3302 28.7734C14.0616 29.9948 13.4018 30.8984 12.3248 31.4583C10.9557 32.1666 9.56054 32.1432 8.26447 31.3125C6.91886 30.4583 6.33211 29.164 6.43121 27.5755C6.45468 27.3073 6.38166 27.2083 6.16261 27.0859C3.78953 25.8411 1.90933 24.1067 0.613262 21.763C0.368131 21.2994 0.172548 20.8099 0.0499826 20.2968C-0.122131 19.5885 0.149078 19.2474 0.881863 19.1744C1.76329 19.0755 2.54562 18.7343 2.93679 17.9036C3.1089 17.5364 3.20539 17.0989 3.20539 16.6822C3.25494 15.6328 3.20539 14.5833 3.25494 13.5312C3.52354 9.47652 5.21077 6.10933 8.29316 3.47131C11.1278 1.03381 14.4527 -0.112023 18.1923 0.00776855C24.7221 0.25256 30.321 4.84371 31.6406 11.2656C32.8375 17.0781 31.0303 21.9375 26.4068 25.7213C26.1382 25.9401 25.8435 26.1614 25.5253 26.3567C25.3532 26.4791 25.3063 26.5755 25.3793 26.7708C25.9895 28.6276 25.1342 30.677 23.4235 31.5573C21.0999 32.7057 18.4113 31.5338 17.702 29.0416C17.6785 28.9427 17.556 28.8229 17.483 28.8229C16.4581 28.75 15.4046 28.7734 14.3302 28.7734ZM14.3797 27.138C15.4802 27.138 16.5807 27.1875 17.6811 27.1145C18.6825 27.0651 19.7361 26.9687 20.714 26.7239C28.4904 24.8203 32.6472 16.2474 29.2466 8.99735C27.1917 4.62496 23.6712 2.13277 18.8546 1.61975C15.162 1.22912 11.8606 2.32808 9.07288 4.81766C6.33472 7.28381 4.91609 10.3593 4.8196 14.0468C4.79613 14.901 4.8196 15.7812 4.8196 16.6354C4.79352 18.4947 3.74259 19.9349 1.95627 20.4947C1.9328 20.4947 1.88325 20.5442 1.85717 20.5442C2.54302 22.3515 5.32812 25.013 7.0649 25.6718C9.245 22.6927 13.6443 23.7448 14.3797 27.138Z" fill="#111111"/>
<path d="M19.537 20.7656C16.6502 20.6198 14.7439 19.4713 13.5209 17.177C13.2262 16.6145 13.4974 16.0547 14.0581 15.9323C14.3997 15.8593 14.7179 16.1041 14.963 16.4948C15.2811 16.9843 15.5993 17.4713 16.0139 17.8619C18.3114 20.0338 22.077 19.3515 23.5217 16.5442C23.6938 16.2031 23.9129 15.9349 24.3275 15.9349C24.9377 15.9583 25.282 16.5703 25.0134 17.1302C24.2545 18.6692 23.0575 19.7916 21.4433 20.3281C20.734 20.5703 20.0012 20.6666 19.537 20.7656Z" fill="#111111"/>
<path d="M14.426 12.7551C13.5446 12.7551 12.8379 12.0468 12.8379 11.1692C12.8379 10.2916 13.5472 9.58325 14.426 9.58325C15.3048 9.58325 16.0142 10.2916 16.0142 11.1692C16.0168 12.0234 15.3075 12.7551 14.426 12.7551Z" fill="#111111"/>
<path d="M25.6274 11.1431C25.6274 12.0233 24.9181 12.729 24.0627 12.755C23.1813 12.755 22.4746 12.0701 22.4746 11.1691C22.4746 10.2889 23.1605 9.58317 24.0393 9.55713C24.8946 9.55713 25.6013 10.2655 25.6274 11.1431Z" fill="#111111"/>
</g>
<defs>
<clipPath id="clip0_1090_6256">
<rect width="32" height="32" fill="white"/>
</clipPath>
</defs>
</svg>
