<svg width="20" height="20" viewBox="0 0 20 20" fill="none" xmlns="http://www.w3.org/2000/svg">
<path d="M19.9328 9.02656L18.8391 6.29219C18.7237 6.00215 18.5237 5.75357 18.2651 5.57883C18.0065 5.40408 17.7012 5.31128 17.3891 5.3125H15.3125V5C15.3125 4.75136 15.2137 4.5129 15.0379 4.33709C14.8621 4.16127 14.6236 4.0625 14.375 4.0625H2.5C2.0856 4.0625 1.68817 4.22712 1.39515 4.52015C1.10212 4.81317 0.9375 5.2106 0.9375 5.625V14.375C0.9375 14.7894 1.10212 15.1868 1.39515 15.4799C1.68817 15.7729 2.0856 15.9375 2.5 15.9375H3.59844C3.79234 16.4858 4.15145 16.9605 4.62631 17.2962C5.10117 17.632 5.66844 17.8122 6.25 17.8122C6.83156 17.8122 7.39883 17.632 7.87369 17.2962C8.34855 16.9605 8.70766 16.4858 8.90156 15.9375H12.3484C12.5423 16.4858 12.9014 16.9605 13.3763 17.2962C13.8512 17.632 14.4184 17.8122 15 17.8122C15.5816 17.8122 16.1488 17.632 16.6237 17.2962C17.0986 16.9605 17.4577 16.4858 17.6516 15.9375H18.4375C18.8519 15.9375 19.2493 15.7729 19.5424 15.4799C19.8354 15.1868 20 14.7894 20 14.375V9.375C19.9899 9.25682 19.9673 9.14004 19.9328 9.02656ZM15.3125 7.1875H17.1781L17.6781 8.4375H15.3125V7.1875ZM6.25 15.9375C6.06458 15.9375 5.88332 15.8825 5.72915 15.7795C5.57498 15.6765 5.45482 15.5301 5.38386 15.3588C5.31291 15.1875 5.29434 14.999 5.33051 14.8171C5.36669 14.6352 5.45598 14.4682 5.58709 14.3371C5.7182 14.206 5.88525 14.1167 6.0671 14.0805C6.24896 14.0443 6.43746 14.0629 6.60877 14.1339C6.78007 14.2048 6.92649 14.325 7.0295 14.4792C7.13252 14.6333 7.1875 14.8146 7.1875 15C7.1875 15.2486 7.08873 15.4871 6.91291 15.6629C6.7371 15.8387 6.49864 15.9375 6.25 15.9375ZM13.4375 12.6625C12.9342 13.0008 12.5525 13.4914 12.3484 14.0625H8.90156C8.70766 13.5142 8.34855 13.0395 7.87369 12.7038C7.39883 12.368 6.83156 12.1877 6.25 12.1877C5.66844 12.1877 5.10117 12.368 4.62631 12.7038C4.15145 13.0395 3.79234 13.5142 3.59844 14.0625H2.8125V10.9375H13.4375V12.6625ZM13.4375 9.0625H2.8125V5.9375H13.4375V9.0625ZM15 15.9375C14.8146 15.9375 14.6333 15.8825 14.4792 15.7795C14.325 15.6765 14.2048 15.5301 14.1339 15.3588C14.0629 15.1875 14.0443 14.999 14.0805 14.8171C14.1167 14.6352 14.206 14.4682 14.3371 14.3371C14.4682 14.206 14.6352 14.1167 14.8171 14.0805C14.999 14.0443 15.1875 14.0629 15.3588 14.1339C15.5301 14.2048 15.6765 14.325 15.7795 14.4792C15.8825 14.6333 15.9375 14.8146 15.9375 15C15.9375 15.2486 15.8387 15.4871 15.6629 15.6629C15.4871 15.8387 15.2486 15.9375 15 15.9375ZM18.125 14.0625H17.6516C17.4747 13.565 17.1616 13.1272 16.7481 12.7988C16.3346 12.4705 15.8372 12.2649 15.3125 12.2055V10.3125H18.125V14.0625Z" fill="#111111"/>
</svg>
