<svg width="16" height="1" viewBox="0 0 16 1" fill="none" xmlns="http://www.w3.org/2000/svg">
<g clip-path="url(#clip0_1135_14490)">
<mask id="mask0_1135_14490" style="mask-type:luminance" maskUnits="userSpaceOnUse" x="0" y="0" width="16" height="1">
<path d="M16 0H0V1H16V0Z" fill="white"/>
</mask>
<g mask="url(#mask0_1135_14490)">
<path opacity="0.24" fill-rule="evenodd" clip-rule="evenodd" d="M1435 0.5C1435 0.776142 1434.78 1 1434.5 1H1432.5C1432.23 1 1432 0.776142 1432 0.5C1432 0.223858 1432.23 0 1432.5 0H1434.5C1434.78 0 1435 0.223858 1435 0.5ZM1429 0.5C1429 0.776142 1428.78 1 1428.5 1H1424.51C1424.23 1 1424.01 0.776142 1424.01 0.5C1424.01 0.223858 1424.23 0 1424.51 0H1428.5C1428.78 0 1429 0.223858 1429 0.5ZM1421.01 0.5C1421.01 0.776142 1420.79 1 1420.51 1H1416.51C1416.24 1 1416.01 0.776142 1416.01 0.5C1416.01 0.223858 1416.24 0 1416.51 0H1420.51C1420.79 0 1421.01 0.223858 1421.01 0.5ZM1413.02 0.5C1413.02 0.776142 1412.79 1 1412.52 1H1408.52C1408.24 1 1408.02 0.776142 1408.02 0.5C1408.02 0.223858 1408.24 0 1408.52 0H1412.52C1412.79 0 1413.02 0.223858 1413.02 0.5ZM1405.02 0.5C1405.02 0.776142 1404.8 1 1404.52 1H1400.52C1400.25 1 1400.02 0.776142 1400.02 0.5C1400.02 0.223858 1400.25 0 1400.52 0H1404.52C1404.8 0 1405.02 0.223858 1405.02 0.5ZM1397.03 0.5C1397.03 0.776142 1396.8 1 1396.53 1H1392.53C1392.25 1 1392.03 0.776142 1392.03 0.5C1392.03 0.223858 1392.25 0 1392.53 0H1396.53C1396.8 0 1397.03 0.223858 1397.03 0.5ZM1389.03 0.5C1389.03 0.776142 1388.81 1 1388.53 1H1384.53C1384.26 1 1384.03 0.776142 1384.03 0.5C1384.03 0.223858 1384.26 0 1384.53 0H1388.53C1388.81 0 1389.03 0.223858 1389.03 0.5ZM1381.04 0.5C1381.04 0.776142 1380.81 1 1380.54 1H1376.54C1376.26 1 1376.04 0.776142 1376.04 0.5C1376.04 0.223858 1376.26 0 1376.54 0H1380.54C1380.81 0 1381.04 0.223858 1381.04 0.5ZM1373.04 0.5C1373.04 0.776142 1372.82 1 1372.54 1H1368.55C1368.27 1 1368.05 0.776142 1368.05 0.5C1368.05 0.223858 1368.27 0 1368.55 0H1372.54C1372.82 0 1373.04 0.223858 1373.04 0.5ZM1365.05 0.5C1365.05 0.776142 1364.82 1 1364.55 1H1360.55C1360.28 1 1360.05 0.776142 1360.05 0.5C1360.05 0.223858 1360.28 0 1360.55 0H1364.55C1364.82 0 1365.05 0.223858 1365.05 0.5ZM1357.05 0.5C1357.05 0.776142 1356.83 1 1356.55 1H1352.56C1352.28 1 1352.06 0.776142 1352.06 0.5C1352.06 0.223858 1352.28 0 1352.56 0H1356.55C1356.83 0 1357.05 0.223858 1357.05 0.5ZM1349.06 0.5C1349.06 0.776142 1348.84 1 1348.56 1H1344.56C1344.29 1 1344.06 0.776142 1344.06 0.5C1344.06 0.223858 1344.29 0 1344.56 0H1348.56C1348.84 0 1349.06 0.223858 1349.06 0.5ZM1341.07 0.5C1341.07 0.776142 1340.84 1 1340.57 1H1336.57C1336.29 1 1336.07 0.776142 1336.07 0.5C1336.07 0.223858 1336.29 0 1336.57 0H1340.57C1340.84 0 1341.07 0.223858 1341.07 0.5ZM1333.07 0.5C1333.07 0.776142 1332.85 1 1332.57 1H1328.57C1328.3 1 1328.07 0.776142 1328.07 0.5C1328.07 0.223858 1328.3 0 1328.57 0H1332.57C1332.85 0 1333.07 0.223858 1333.07 0.5ZM1325.08 0.5C1325.08 0.776142 1324.85 1 1324.58 1H1320.58C1320.3 1 1320.08 0.776142 1320.08 0.5C1320.08 0.223858 1320.3 0 1320.58 0H1324.58C1324.85 0 1325.08 0.223858 1325.08 0.5ZM1317.08 0.5C1317.08 0.776142 1316.86 1 1316.58 1H1312.58C1312.31 1 1312.08 0.776142 1312.08 0.5C1312.08 0.223858 1312.31 0 1312.58 0H1316.58C1316.86 0 1317.08 0.223858 1317.08 0.5ZM1309.09 0.5C1309.09 0.776142 1308.86 1 1308.59 1H1304.59C1304.31 1 1304.09 0.776142 1304.09 0.5C1304.09 0.223858 1304.31 0 1304.59 0H1308.59C1308.86 0 1309.09 0.223858 1309.09 0.5ZM1301.09 0.5C1301.09 0.776142 1300.87 1 1300.59 1H1296.6C1296.32 1 1296.1 0.776142 1296.1 0.5C1296.1 0.223858 1296.32 0 1296.6 0H1300.59C1300.87 0 1301.09 0.223858 1301.09 0.5ZM1293.1 0.5C1293.1 0.776142 1292.87 1 1292.6 1H1288.6C1288.33 1 1288.1 0.776142 1288.1 0.5C1288.1 0.223858 1288.33 0 1288.6 0H1292.6C1292.87 0 1293.1 0.223858 1293.1 0.5ZM1285.1 0.5C1285.1 0.776142 1284.88 1 1284.6 1H1280.61C1280.33 1 1280.11 0.776142 1280.11 0.5C1280.11 0.223858 1280.33 0 1280.61 0H1284.6C1284.88 0 1285.1 0.223858 1285.1 0.5ZM1277.11 0.5C1277.11 0.776142 1276.89 1 1276.61 1H1272.61C1272.34 1 1272.11 0.776142 1272.11 0.5C1272.11 0.223858 1272.34 0 1272.61 0H1276.61C1276.89 0 1277.11 0.223858 1277.11 0.5ZM1269.12 0.5C1269.12 0.776142 1268.89 1 1268.62 1H1264.62C1264.34 1 1264.12 0.776142 1264.12 0.5C1264.12 0.223858 1264.34 0 1264.62 0H1268.62C1268.89 0 1269.12 0.223858 1269.12 0.5ZM1261.12 0.5C1261.12 0.776142 1260.9 1 1260.62 1H1256.62C1256.35 1 1256.12 0.776142 1256.12 0.5C1256.12 0.223858 1256.35 0 1256.62 0H1260.62C1260.9 0 1261.12 0.223858 1261.12 0.5ZM1253.13 0.5C1253.13 0.776142 1252.9 1 1252.63 1H1248.63C1248.35 1 1248.13 0.776142 1248.13 0.5C1248.13 0.223858 1248.35 0 1248.63 0H1252.63C1252.9 0 1253.13 0.223858 1253.13 0.5ZM1245.13 0.5C1245.13 0.776142 1244.91 1 1244.63 1H1240.63C1240.36 1 1240.13 0.776142 1240.13 0.5C1240.13 0.223858 1240.36 0 1240.63 0H1244.63C1244.91 0 1245.13 0.223858 1245.13 0.5ZM1237.14 0.5C1237.14 0.776142 1236.91 1 1236.64 1H1232.64C1232.36 1 1232.14 0.776142 1232.14 0.5C1232.14 0.223858 1232.36 0 1232.64 0H1236.64C1236.91 0 1237.14 0.223858 1237.14 0.5ZM1229.14 0.5C1229.14 0.776142 1228.92 1 1228.64 1H1224.65C1224.37 1 1224.15 0.776142 1224.15 0.5C1224.15 0.223858 1224.37 0 1224.65 0H1228.64C1228.92 0 1229.14 0.223858 1229.14 0.5ZM1221.15 0.5C1221.15 0.776142 1220.92 1 1220.65 1H1216.65C1216.38 1 1216.15 0.776142 1216.15 0.5C1216.15 0.223858 1216.38 0 1216.65 0H1220.65C1220.92 0 1221.15 0.223858 1221.15 0.5ZM1213.15 0.5C1213.15 0.776142 1212.93 1 1212.65 1H1208.66C1208.38 1 1208.16 0.776142 1208.16 0.5C1208.16 0.223858 1208.38 0 1208.66 0H1212.65C1212.93 0 1213.15 0.223858 1213.15 0.5ZM1205.16 0.5C1205.16 0.776142 1204.94 1 1204.66 1H1200.66C1200.39 1 1200.16 0.776142 1200.16 0.5C1200.16 0.223858 1200.39 0 1200.66 0H1204.66C1204.94 0 1205.16 0.223858 1205.16 0.5ZM1197.17 0.5C1197.17 0.776142 1196.94 1 1196.67 1H1192.67C1192.39 1 1192.17 0.776142 1192.17 0.5C1192.17 0.223858 1192.39 0 1192.67 0H1196.67C1196.94 0 1197.17 0.223858 1197.17 0.5ZM1189.17 0.5C1189.17 0.776142 1188.95 1 1188.67 1H1184.67C1184.4 1 1184.17 0.776142 1184.17 0.5C1184.17 0.223858 1184.4 0 1184.67 0H1188.67C1188.95 0 1189.17 0.223858 1189.17 0.5ZM1181.18 0.5C1181.18 0.776142 1180.95 1 1180.68 1H1176.68C1176.4 1 1176.18 0.776142 1176.18 0.5C1176.18 0.223858 1176.4 0 1176.68 0H1180.68C1180.95 0 1181.18 0.223858 1181.18 0.5ZM1173.18 0.5C1173.18 0.776142 1172.96 1 1172.68 1H1168.68C1168.41 1 1168.18 0.776142 1168.18 0.5C1168.18 0.223858 1168.41 0 1168.68 0H1172.68C1172.96 0 1173.18 0.223858 1173.18 0.5ZM1165.19 0.5C1165.19 0.776142 1164.96 1 1164.69 1H1160.69C1160.41 1 1160.19 0.776142 1160.19 0.5C1160.19 0.223858 1160.41 0 1160.69 0H1164.69C1164.96 0 1165.19 0.223858 1165.19 0.5ZM1157.19 0.5C1157.19 0.776142 1156.97 1 1156.69 1H1152.7C1152.42 1 1152.2 0.776142 1152.2 0.5C1152.2 0.223858 1152.42 0 1152.7 0H1156.69C1156.97 0 1157.19 0.223858 1157.19 0.5ZM1149.2 0.5C1149.2 0.776142 1148.97 1 1148.7 1H1144.7C1144.43 1 1144.2 0.776142 1144.2 0.5C1144.2 0.223858 1144.43 0 1144.7 0H1148.7C1148.97 0 1149.2 0.223858 1149.2 0.5ZM1141.2 0.5C1141.2 0.776142 1140.98 1 1140.7 1H1136.71C1136.43 1 1136.21 0.776142 1136.21 0.5C1136.21 0.223858 1136.43 0 1136.71 0H1140.7C1140.98 0 1141.2 0.223858 1141.2 0.5ZM1133.21 0.5C1133.21 0.776142 1132.99 1 1132.71 1H1128.71C1128.44 1 1128.21 0.776142 1128.21 0.5C1128.21 0.223858 1128.44 0 1128.71 0H1132.71C1132.99 0 1133.21 0.223858 1133.21 0.5ZM1125.22 0.5C1125.22 0.776142 1124.99 1 1124.72 1H1120.72C1120.44 1 1120.22 0.776142 1120.22 0.5C1120.22 0.223858 1120.44 0 1120.72 0H1124.72C1124.99 0 1125.22 0.223858 1125.22 0.5ZM1117.22 0.5C1117.22 0.776142 1117 1 1116.72 1H1112.72C1112.45 1 1112.22 0.776142 1112.22 0.5C1112.22 0.223858 1112.45 0 1112.72 0H1116.72C1117 0 1117.22 0.223858 1117.22 0.5ZM1109.23 0.5C1109.23 0.776142 1109 1 1108.73 1H1104.73C1104.45 1 1104.23 0.776142 1104.23 0.5C1104.23 0.223858 1104.45 0 1104.73 0H1108.73C1109 0 1109.23 0.223858 1109.23 0.5ZM1101.23 0.5C1101.23 0.776142 1101.01 1 1100.73 1H1096.73C1096.46 1 1096.23 0.776142 1096.23 0.5C1096.23 0.223858 1096.46 0 1096.73 0H1100.73C1101.01 0 1101.23 0.223858 1101.23 0.5ZM1093.24 0.5C1093.24 0.776142 1093.01 1 1092.74 1H1088.74C1088.46 1 1088.24 0.776142 1088.24 0.5C1088.24 0.223858 1088.46 0 1088.74 0H1092.74C1093.01 0 1093.24 0.223858 1093.24 0.5ZM1085.24 0.5C1085.24 0.776142 1085.02 1 1084.74 1H1080.75C1080.47 1 1080.25 0.776142 1080.25 0.5C1080.25 0.223858 1080.47 0 1080.75 0H1084.74C1085.02 0 1085.24 0.223858 1085.24 0.5ZM1077.25 0.5C1077.25 0.776142 1077.02 1 1076.75 1H1072.75C1072.48 1 1072.25 0.776142 1072.25 0.5C1072.25 0.223858 1072.48 0 1072.75 0H1076.75C1077.02 0 1077.25 0.223858 1077.25 0.5ZM1069.25 0.5C1069.25 0.776142 1069.03 1 1068.75 1H1064.76C1064.48 1 1064.26 0.776142 1064.26 0.5C1064.26 0.223858 1064.48 0 1064.76 0H1068.75C1069.03 0 1069.25 0.223858 1069.25 0.5ZM1061.26 0.5C1061.26 0.776142 1061.04 1 1060.76 1H1056.76C1056.49 1 1056.26 0.776142 1056.26 0.5C1056.26 0.223858 1056.49 0 1056.76 0H1060.76C1061.04 0 1061.26 0.223858 1061.26 0.5ZM1053.27 0.5C1053.27 0.776142 1053.04 1 1052.77 1H1048.77C1048.49 1 1048.27 0.776142 1048.27 0.5C1048.27 0.223858 1048.49 0 1048.77 0H1052.77C1053.04 0 1053.27 0.223858 1053.27 0.5ZM1045.27 0.5C1045.27 0.776142 1045.05 1 1044.77 1H1040.77C1040.5 1 1040.27 0.776142 1040.27 0.5C1040.27 0.223858 1040.5 0 1040.77 0H1044.77C1045.05 0 1045.27 0.223858 1045.27 0.5ZM1037.28 0.5C1037.28 0.776142 1037.05 1 1036.78 1H1032.78C1032.5 1 1032.28 0.776142 1032.28 0.5C1032.28 0.223858 1032.5 0 1032.78 0H1036.78C1037.05 0 1037.28 0.223858 1037.28 0.5ZM1029.28 0.5C1029.28 0.776142 1029.06 1 1028.78 1H1024.78C1024.51 1 1024.28 0.776142 1024.28 0.5C1024.28 0.223858 1024.51 0 1024.78 0H1028.78C1029.06 0 1029.28 0.223858 1029.28 0.5ZM1021.29 0.5C1021.29 0.776142 1021.06 1 1020.79 1H1016.79C1016.51 1 1016.29 0.776142 1016.29 0.5C1016.29 0.223858 1016.51 0 1016.79 0H1020.79C1021.06 0 1021.29 0.223858 1021.29 0.5ZM1013.29 0.5C1013.29 0.776142 1013.07 1 1012.79 1H1008.8C1008.52 1 1008.3 0.776142 1008.3 0.5C1008.3 0.223858 1008.52 0 1008.8 0H1012.79C1013.07 0 1013.29 0.223858 1013.29 0.5ZM1005.3 0.5C1005.3 0.776142 1005.07 1 1004.8 1H1000.8C1000.53 1 1000.3 0.776142 1000.3 0.5C1000.3 0.223858 1000.53 0 1000.8 0H1004.8C1005.07 0 1005.3 0.223858 1005.3 0.5ZM997.304 0.5C997.304 0.776142 997.08 1 996.804 1H992.807C992.531 1 992.307 0.776142 992.307 0.5C992.307 0.223858 992.531 0 992.807 0H996.804C997.08 0 997.304 0.223858 997.304 0.5ZM989.31 0.5C989.31 0.776142 989.086 1 988.81 1H984.812C984.536 1 984.312 0.776142 984.312 0.5C984.312 0.223858 984.536 0 984.812 0H988.81C989.086 0 989.31 0.223858 989.31 0.5ZM981.315 0.5C981.315 0.776142 981.091 1 980.815 1H976.818C976.542 1 976.318 0.776142 976.318 0.5C976.318 0.223858 976.542 0 976.818 0H980.815C981.091 0 981.315 0.223858 981.315 0.5ZM973.321 0.5C973.321 0.776142 973.097 1 972.821 1H968.824C968.547 1 968.324 0.776142 968.324 0.5C968.324 0.223858 968.547 0 968.824 0H972.821C973.097 0 973.321 0.223858 973.321 0.5ZM965.326 0.5C965.326 0.776142 965.102 1 964.826 1H960.829C960.553 1 960.329 0.776142 960.329 0.5C960.329 0.223858 960.553 0 960.829 0H964.826C965.102 0 965.326 0.223858 965.326 0.5ZM957.332 0.5C957.332 0.776142 957.108 1 956.832 1H952.835C952.559 1 952.335 0.776142 952.335 0.5C952.335 0.223858 952.559 0 952.835 0H956.832C957.108 0 957.332 0.223858 957.332 0.5ZM949.337 0.5C949.337 0.776142 949.114 1 948.837 1H944.84C944.564 1 944.34 0.776142 944.34 0.5C944.34 0.223858 944.564 0 944.84 0H948.837C949.114 0 949.337 0.223858 949.337 0.5ZM941.343 0.5C941.343 0.776142 941.119 1 940.843 1H936.846C936.57 1 936.346 0.776142 936.346 0.5C936.346 0.223858 936.57 0 936.846 0H940.843C941.119 0 941.343 0.223858 941.343 0.5ZM933.349 0.5C933.349 0.776142 933.125 1 932.849 1H928.851C928.575 1 928.351 0.776142 928.351 0.5C928.351 0.223858 928.575 0 928.851 0H932.849C933.125 0 933.349 0.223858 933.349 0.5ZM925.354 0.5C925.354 0.776142 925.13 1 924.854 1H920.857C920.581 1 920.357 0.776142 920.357 0.5C920.357 0.223858 920.581 0 920.857 0H924.854C925.13 0 925.354 0.223858 925.354 0.5ZM917.36 0.5C917.36 0.776142 917.136 1 916.86 1H912.862C912.586 1 912.362 0.776142 912.362 0.5C912.362 0.223858 912.586 0 912.862 0H916.86C917.136 0 917.36 0.223858 917.36 0.5ZM909.365 0.5C909.365 0.776142 909.141 1 908.865 1H904.868C904.592 1 904.368 0.776142 904.368 0.5C904.368 0.223858 904.592 0 904.868 0H908.865C909.141 0 909.365 0.223858 909.365 0.5ZM901.371 0.5C901.371 0.776142 901.147 1 900.871 1H896.874C896.598 1 896.374 0.776142 896.374 0.5C896.374 0.223858 896.598 0 896.874 0H900.871C901.147 0 901.371 0.223858 901.371 0.5ZM893.377 0.5C893.377 0.776142 893.153 1 892.877 1H888.879C888.603 1 888.379 0.776142 888.379 0.5C888.379 0.223858 888.603 0 888.879 0H892.877C893.153 0 893.377 0.223858 893.377 0.5ZM885.382 0.5C885.382 0.776142 885.158 1 884.882 1H880.885C880.609 1 880.385 0.776142 880.385 0.5C880.385 0.223858 880.609 0 880.885 0H884.882C885.158 0 885.382 0.223858 885.382 0.5ZM877.388 0.5C877.388 0.776142 877.164 1 876.888 1H872.891C872.614 1 872.391 0.776142 872.391 0.5C872.391 0.223858 872.614 0 872.891 0H876.888C877.164 0 877.388 0.223858 877.388 0.5ZM869.393 0.5C869.393 0.776142 869.169 1 868.893 1H864.896C864.62 1 864.396 0.776142 864.396 0.5C864.396 0.223858 864.62 0 864.896 0H868.893C869.169 0 869.393 0.223858 869.393 0.5ZM861.399 0.5C861.399 0.776142 861.175 1 860.899 1H856.902C856.626 1 856.402 0.776142 856.402 0.5C856.402 0.223858 856.626 0 856.902 0H860.899C861.175 0 861.399 0.223858 861.399 0.5ZM853.405 0.5C853.405 0.776142 853.181 1 852.905 1H848.907C848.631 1 848.407 0.776142 848.407 0.5C848.407 0.223858 848.631 0 848.907 0H852.905C853.181 0 853.405 0.223858 853.405 0.5ZM845.41 0.5C845.41 0.776142 845.186 1 844.91 1H840.913C840.637 1 840.413 0.776142 840.413 0.5C840.413 0.223858 840.637 0 840.913 0H844.91C845.186 0 845.41 0.223858 845.41 0.5ZM837.416 0.5C837.416 0.776142 837.192 1 836.916 1H832.919C832.643 1 832.419 0.776142 832.419 0.5C832.419 0.223858 832.643 0 832.919 0H836.916C837.192 0 837.416 0.223858 837.416 0.5ZM829.421 0.5C829.421 0.776142 829.198 1 828.921 1H824.924C824.648 1 824.424 0.776142 824.424 0.5C824.424 0.223858 824.648 0 824.924 0H828.921C829.198 0 829.421 0.223858 829.421 0.5ZM821.427 0.5C821.427 0.776142 821.203 1 820.927 1H816.93C816.654 1 816.43 0.776142 816.43 0.5C816.43 0.223858 816.654 0 816.93 0H820.927C821.203 0 821.427 0.223858 821.427 0.5ZM813.433 0.5C813.433 0.776142 813.209 1 812.933 1H808.935C808.659 1 808.435 0.776142 808.435 0.5C808.435 0.223858 808.659 0 808.935 0H812.933C813.209 0 813.433 0.223858 813.433 0.5ZM805.438 0.5C805.438 0.776142 805.214 1 804.938 1H800.941C800.665 1 800.441 0.776142 800.441 0.5C800.441 0.223858 800.665 0 800.941 0H804.938C805.214 0 805.438 0.223858 805.438 0.5ZM797.444 0.5C797.444 0.776142 797.22 1 796.944 1H792.947C792.671 1 792.447 0.776142 792.447 0.5C792.447 0.223858 792.671 0 792.947 0H796.944C797.22 0 797.444 0.223858 797.444 0.5ZM789.45 0.5C789.45 0.776142 789.226 1 788.95 1H784.952C784.676 1 784.452 0.776142 784.452 0.5C784.452 0.223858 784.676 0 784.952 0H788.95C789.226 0 789.45 0.223858 789.45 0.5ZM781.455 0.5C781.455 0.776142 781.231 1 780.955 1H776.958C776.682 1 776.458 0.776142 776.458 0.5C776.458 0.223858 776.682 0 776.958 0H780.955C781.231 0 781.455 0.223858 781.455 0.5ZM773.461 0.5C773.461 0.776142 773.237 1 772.961 1H768.964C768.687 1 768.464 0.776142 768.464 0.5C768.464 0.223858 768.687 0 768.964 0H772.961C773.237 0 773.461 0.223858 773.461 0.5ZM765.466 0.5C765.466 0.776142 765.242 1 764.966 1H760.969C760.693 1 760.469 0.776142 760.469 0.5C760.469 0.223858 760.693 0 760.969 0H764.966C765.242 0 765.466 0.223858 765.466 0.5ZM757.472 0.5C757.472 0.776142 757.248 1 756.972 1H752.975C752.699 1 752.475 0.776142 752.475 0.5C752.475 0.223858 752.699 0 752.975 0H756.972C757.248 0 757.472 0.223858 757.472 0.5ZM749.478 0.5C749.478 0.776142 749.254 1 748.978 1H744.98C744.704 1 744.48 0.776142 744.48 0.5C744.48 0.223858 744.704 0 744.98 0H748.978C749.254 0 749.478 0.223858 749.478 0.5ZM741.483 0.5C741.483 0.776142 741.259 1 740.983 1H736.986C736.71 1 736.486 0.776142 736.486 0.5C736.486 0.223858 736.71 0 736.986 0H740.983C741.259 0 741.483 0.223858 741.483 0.5ZM733.489 0.5C733.489 0.776142 733.265 1 732.989 1H728.992C728.715 1 728.492 0.776142 728.492 0.5C728.492 0.223858 728.715 0 728.992 0H732.989C733.265 0 733.489 0.223858 733.489 0.5ZM725.494 0.5C725.494 0.776142 725.271 1 724.994 1H720.997C720.721 1 720.497 0.776142 720.497 0.5C720.497 0.223858 720.721 0 720.997 0H724.994C725.271 0 725.494 0.223858 725.494 0.5ZM717.5 0.5C717.5 0.776142 717.276 1 717 1H713.003C712.727 1 712.503 0.776142 712.503 0.5C712.503 0.223858 712.727 0 713.003 0H717C717.276 0 717.5 0.223858 717.5 0.5ZM709.506 0.5C709.506 0.776142 709.282 1 709.006 1H705.009C704.732 1 704.509 0.776142 704.509 0.5C704.509 0.223858 704.732 0 705.009 0H709.006C709.282 0 709.506 0.223858 709.506 0.5ZM701.511 0.5C701.511 0.776142 701.287 1 701.011 1H697.014C696.738 1 696.514 0.776142 696.514 0.5C696.514 0.223858 696.738 0 697.014 0H701.011C701.287 0 701.511 0.223858 701.511 0.5ZM693.517 0.5C693.517 0.776142 693.293 1 693.017 1H689.02C688.744 1 688.52 0.776142 688.52 0.5C688.52 0.223858 688.744 0 689.02 0H693.017C693.293 0 693.517 0.223858 693.517 0.5ZM685.523 0.5C685.523 0.776142 685.299 1 685.023 1H681.025C680.749 1 680.525 0.776142 680.525 0.5C680.525 0.223858 680.749 0 681.025 0H685.023C685.299 0 685.523 0.223858 685.523 0.5ZM677.528 0.5C677.528 0.776142 677.304 1 677.028 1H673.031C672.755 1 672.531 0.776142 672.531 0.5C672.531 0.223858 672.755 0 673.031 0H677.028C677.304 0 677.528 0.223858 677.528 0.5ZM669.534 0.5C669.534 0.776142 669.31 1 669.034 1H665.037C664.76 1 664.537 0.776142 664.537 0.5C664.537 0.223858 664.76 0 665.037 0H669.034C669.31 0 669.534 0.223858 669.534 0.5ZM661.539 0.5C661.539 0.776142 661.315 1 661.039 1H657.042C656.766 1 656.542 0.776142 656.542 0.5C656.542 0.223858 656.766 0 657.042 0H661.039C661.315 0 661.539 0.223858 661.539 0.5ZM653.545 0.5C653.545 0.776142 653.321 1 653.045 1H649.048C648.772 1 648.548 0.776142 648.548 0.5C648.548 0.223858 648.772 0 649.048 0H653.045C653.321 0 653.545 0.223858 653.545 0.5ZM645.551 0.5C645.551 0.776142 645.327 1 645.051 1H641.053C640.777 1 640.553 0.776142 640.553 0.5C640.553 0.223858 640.777 0 641.053 0H645.051C645.327 0 645.551 0.223858 645.551 0.5ZM637.556 0.5C637.556 0.776142 637.332 1 637.056 1H633.059C632.783 1 632.559 0.776142 632.559 0.5C632.559 0.223858 632.783 0 633.059 0H637.056C637.332 0 637.556 0.223858 637.556 0.5ZM629.562 0.5C629.562 0.776142 629.338 1 629.062 1H625.065C624.789 1 624.565 0.776142 624.565 0.5C624.565 0.223858 624.789 0 625.065 0H629.062C629.338 0 629.562 0.223858 629.562 0.5ZM621.567 0.5C621.567 0.776142 621.344 1 621.067 1H617.07C616.794 1 616.57 0.776142 616.57 0.5C616.57 0.223858 616.794 0 617.07 0H621.067C621.344 0 621.567 0.223858 621.567 0.5ZM613.573 0.5C613.573 0.776142 613.349 1 613.073 1H609.076C608.8 1 608.576 0.776142 608.576 0.5C608.576 0.223858 608.8 0 609.076 0H613.073C613.349 0 613.573 0.223858 613.573 0.5ZM605.579 0.5C605.579 0.776142 605.355 1 605.079 1H601.081C600.805 1 600.581 0.776142 600.581 0.5C600.581 0.223858 600.805 0 601.081 0H605.079C605.355 0 605.579 0.223858 605.579 0.5ZM597.584 0.5C597.584 0.776142 597.36 1 597.084 1H593.087C592.811 1 592.587 0.776142 592.587 0.5C592.587 0.223858 592.811 0 593.087 0H597.084C597.36 0 597.584 0.223858 597.584 0.5ZM589.59 0.5C589.59 0.776142 589.366 1 589.09 1H585.093C584.817 1 584.593 0.776142 584.593 0.5C584.593 0.223858 584.817 0 585.093 0H589.09C589.366 0 589.59 0.223858 589.59 0.5ZM581.596 0.5C581.596 0.776142 581.372 1 581.096 1H577.098C576.822 1 576.598 0.776142 576.598 0.5C576.598 0.223858 576.822 0 577.098 0H581.096C581.372 0 581.596 0.223858 581.596 0.5ZM573.601 0.5C573.601 0.776142 573.377 1 573.101 1H569.104C568.828 1 568.604 0.776142 568.604 0.5C568.604 0.223858 568.828 0 569.104 0H573.101C573.377 0 573.601 0.223858 573.601 0.5ZM565.607 0.5C565.607 0.776142 565.383 1 565.107 1H561.109C560.833 1 560.609 0.776142 560.609 0.5C560.609 0.223858 560.833 0 561.109 0H565.107C565.383 0 565.607 0.223858 565.607 0.5ZM557.612 0.5C557.612 0.776142 557.388 1 557.112 1H553.115C552.839 1 552.615 0.776142 552.615 0.5C552.615 0.223858 552.839 0 553.115 0H557.112C557.388 0 557.612 0.223858 557.612 0.5ZM549.618 0.5C549.618 0.776142 549.394 1 549.118 1H545.121C544.845 1 544.621 0.776142 544.621 0.5C544.621 0.223858 544.845 0 545.121 0H549.118C549.394 0 549.618 0.223858 549.618 0.5ZM541.624 0.5C541.624 0.776142 541.4 1 541.124 1H537.126C536.85 1 536.626 0.776142 536.626 0.5C536.626 0.223858 536.85 0 537.126 0H541.124C541.4 0 541.624 0.223858 541.624 0.5ZM533.629 0.5C533.629 0.776142 533.405 1 533.129 1H529.132C528.856 1 528.632 0.776142 528.632 0.5C528.632 0.223858 528.856 0 529.132 0H533.129C533.405 0 533.629 0.223858 533.629 0.5ZM525.635 0.5C525.635 0.776142 525.411 1 525.135 1H521.138C520.862 1 520.638 0.776142 520.638 0.5C520.638 0.223858 520.862 0 521.138 0H525.135C525.411 0 525.635 0.223858 525.635 0.5ZM517.64 0.5C517.64 0.776142 517.417 1 517.14 1H513.143C512.867 1 512.643 0.776142 512.643 0.5C512.643 0.223858 512.867 0 513.143 0H517.14C517.417 0 517.64 0.223858 517.64 0.5ZM509.646 0.5C509.646 0.776142 509.422 1 509.146 1H505.149C504.873 1 504.649 0.776142 504.649 0.5C504.649 0.223858 504.873 0 505.149 0H509.146C509.422 0 509.646 0.223858 509.646 0.5ZM501.652 0.5C501.652 0.776142 501.428 1 501.152 1H497.154C496.878 1 496.654 0.776142 496.654 0.5C496.654 0.223858 496.878 0 497.154 0H501.152C501.428 0 501.652 0.223858 501.652 0.5ZM493.657 0.5C493.657 0.776142 493.433 1 493.157 1H489.16C488.884 1 488.66 0.776142 488.66 0.5C488.66 0.223858 488.884 0 489.16 0H493.157C493.433 0 493.657 0.223858 493.657 0.5ZM485.663 0.5C485.663 0.776142 485.439 1 485.163 1H481.166C480.89 1 480.666 0.776142 480.666 0.5C480.666 0.223858 480.89 0 481.166 0H485.163C485.439 0 485.663 0.223858 485.663 0.5ZM477.669 0.5C477.669 0.776142 477.445 1 477.169 1H473.171C472.895 1 472.671 0.776142 472.671 0.5C472.671 0.223858 472.895 0 473.171 0H477.169C477.445 0 477.669 0.223858 477.669 0.5ZM469.674 0.5C469.674 0.776142 469.45 1 469.174 1H465.177C464.901 1 464.677 0.776142 464.677 0.5C464.677 0.223858 464.901 0 465.177 0H469.174C469.45 0 469.674 0.223858 469.674 0.5ZM461.68 0.5C461.68 0.776142 461.456 1 461.18 1H457.183C456.906 1 456.683 0.776142 456.683 0.5C456.683 0.223858 456.906 0 457.183 0H461.18C461.456 0 461.68 0.223858 461.68 0.5ZM453.685 0.5C453.685 0.776142 453.462 1 453.185 1H449.188C448.912 1 448.688 0.776142 448.688 0.5C448.688 0.223858 448.912 0 449.188 0H453.185C453.462 0 453.685 0.223858 453.685 0.5ZM445.691 0.5C445.691 0.776142 445.467 1 445.191 1H441.194C440.918 1 440.694 0.776142 440.694 0.5C440.694 0.223858 440.918 0 441.194 0H445.191C445.467 0 445.691 0.223858 445.691 0.5ZM437.697 0.5C437.697 0.776142 437.473 1 437.197 1H433.199C432.923 1 432.699 0.776142 432.699 0.5C432.699 0.223858 432.923 0 433.199 0H437.197C437.473 0 437.697 0.223858 437.697 0.5ZM429.702 0.5C429.702 0.776142 429.478 1 429.202 1H425.205C424.929 1 424.705 0.776142 424.705 0.5C424.705 0.223858 424.929 0 425.205 0H429.202C429.478 0 429.702 0.223858 429.702 0.5ZM421.708 0.5C421.708 0.776142 421.484 1 421.208 1H417.211C416.934 1 416.711 0.776142 416.711 0.5C416.711 0.223858 416.934 0 417.211 0H421.208C421.484 0 421.708 0.223858 421.708 0.5ZM413.713 0.5C413.713 0.776142 413.49 1 413.213 1H409.216C408.94 1 408.716 0.776142 408.716 0.5C408.716 0.223858 408.94 0 409.216 0H413.213C413.49 0 413.713 0.223858 413.713 0.5ZM405.719 0.5C405.719 0.776142 405.495 1 405.219 1H401.222C400.946 1 400.722 0.776142 400.722 0.5C400.722 0.223858 400.946 0 401.222 0H405.219C405.495 0 405.719 0.223858 405.719 0.5ZM397.725 0.5C397.725 0.776142 397.501 1 397.225 1H393.227C392.951 1 392.727 0.776142 392.727 0.5C392.727 0.223858 392.951 0 393.227 0H397.225C397.501 0 397.725 0.223858 397.725 0.5ZM389.73 0.5C389.73 0.776142 389.506 1 389.23 1H385.233C384.957 1 384.733 0.776142 384.733 0.5C384.733 0.223858 384.957 0 385.233 0H389.23C389.506 0 389.73 0.223858 389.73 0.5ZM381.736 0.5C381.736 0.776142 381.512 1 381.236 1H377.239C376.963 1 376.739 0.776142 376.739 0.5C376.739 0.223858 376.963 0 377.239 0H381.236C381.512 0 381.736 0.223858 381.736 0.5ZM373.741 0.5C373.741 0.776142 373.518 1 373.241 1H369.244C368.968 1 368.744 0.776142 368.744 0.5C368.744 0.223858 368.968 0 369.244 0H373.241C373.518 0 373.741 0.223858 373.741 0.5ZM365.747 0.5C365.747 0.776142 365.523 1 365.247 1H361.25C360.974 1 360.75 0.776142 360.75 0.5C360.75 0.223858 360.974 0 361.25 0H365.247C365.523 0 365.747 0.223858 365.747 0.5ZM357.753 0.5C357.753 0.776142 357.529 1 357.253 1H353.255C352.979 1 352.755 0.776142 352.755 0.5C352.755 0.223858 352.979 0 353.255 0H357.253C357.529 0 357.753 0.223858 357.753 0.5ZM349.758 0.5C349.758 0.776142 349.534 1 349.258 1H345.261C344.985 1 344.761 0.776142 344.761 0.5C344.761 0.223858 344.985 0 345.261 0H349.258C349.534 0 349.758 0.223858 349.758 0.5ZM341.764 0.5C341.764 0.776142 341.54 1 341.264 1H337.267C336.991 1 336.767 0.776142 336.767 0.5C336.767 0.223858 336.991 0 337.267 0H341.264C341.54 0 341.764 0.223858 341.764 0.5ZM333.77 0.5C333.77 0.776142 333.546 1 333.27 1H329.272C328.996 1 328.772 0.776142 328.772 0.5C328.772 0.223858 328.996 0 329.272 0H333.27C333.546 0 333.77 0.223858 333.77 0.5ZM325.775 0.5C325.775 0.776142 325.551 1 325.275 1H321.278C321.002 1 320.778 0.776142 320.778 0.5C320.778 0.223858 321.002 0 321.278 0H325.275C325.551 0 325.775 0.223858 325.775 0.5ZM317.781 0.5C317.781 0.776142 317.557 1 317.281 1H313.284C313.007 1 312.784 0.776142 312.784 0.5C312.784 0.223858 313.007 0 313.284 0H317.281C317.557 0 317.781 0.223858 317.781 0.5ZM309.786 0.5C309.786 0.776142 309.562 1 309.286 1H305.289C305.013 1 304.789 0.776142 304.789 0.5C304.789 0.223858 305.013 0 305.289 0H309.286C309.562 0 309.786 0.223858 309.786 0.5ZM301.792 0.5C301.792 0.776142 301.568 1 301.292 1H297.295C297.019 1 296.795 0.776142 296.795 0.5C296.795 0.223858 297.019 0 297.295 0H301.292C301.568 0 301.792 0.223858 301.792 0.5ZM293.798 0.5C293.798 0.776142 293.574 1 293.298 1H289.3C289.024 1 288.8 0.776142 288.8 0.5C288.8 0.223858 289.024 0 289.3 0H293.298C293.574 0 293.798 0.223858 293.798 0.5ZM285.803 0.5C285.803 0.776142 285.579 1 285.303 1H281.306C281.03 1 280.806 0.776142 280.806 0.5C280.806 0.223858 281.03 0 281.306 0H285.303C285.579 0 285.803 0.223858 285.803 0.5ZM277.809 0.5C277.809 0.776142 277.585 1 277.309 1H273.312C273.036 1 272.812 0.776142 272.812 0.5C272.812 0.223858 273.036 0 273.312 0H277.309C277.585 0 277.809 0.223858 277.809 0.5ZM269.814 0.5C269.814 0.776142 269.591 1 269.314 1H265.317C265.041 1 264.817 0.776142 264.817 0.5C264.817 0.223858 265.041 0 265.317 0H269.314C269.591 0 269.814 0.223858 269.814 0.5ZM261.82 0.5C261.82 0.776142 261.596 1 261.32 1H257.323C257.047 1 256.823 0.776142 256.823 0.5C256.823 0.223858 257.047 0 257.323 0H261.32C261.596 0 261.82 0.223858 261.82 0.5ZM253.826 0.5C253.826 0.776142 253.602 1 253.326 1H249.328C249.052 1 248.828 0.776142 248.828 0.5C248.828 0.223858 249.052 0 249.328 0H253.326C253.602 0 253.826 0.223858 253.826 0.5ZM245.831 0.5C245.831 0.776142 245.607 1 245.331 1H241.334C241.058 1 240.834 0.776142 240.834 0.5C240.834 0.223858 241.058 0 241.334 0H245.331C245.607 0 245.831 0.223858 245.831 0.5ZM237.837 0.5C237.837 0.776142 237.613 1 237.337 1H233.34C233.064 1 232.84 0.776142 232.84 0.5C232.84 0.223858 233.064 0 233.34 0H237.337C237.613 0 237.837 0.223858 237.837 0.5ZM229.843 0.5C229.843 0.776142 229.619 1 229.343 1H225.345C225.069 1 224.845 0.776142 224.845 0.5C224.845 0.223858 225.069 0 225.345 0H229.343C229.619 0 229.843 0.223858 229.843 0.5ZM221.848 0.5C221.848 0.776142 221.624 1 221.348 1H217.351C217.075 1 216.851 0.776142 216.851 0.5C216.851 0.223858 217.075 0 217.351 0H221.348C221.624 0 221.848 0.223858 221.848 0.5ZM213.854 0.5C213.854 0.776142 213.63 1 213.354 1H209.357C209.08 1 208.857 0.776142 208.857 0.5C208.857 0.223858 209.08 0 209.357 0H213.354C213.63 0 213.854 0.223858 213.854 0.5ZM205.859 0.5C205.859 0.776142 205.635 1 205.359 1H201.362C201.086 1 200.862 0.776142 200.862 0.5C200.862 0.223858 201.086 0 201.362 0H205.359C205.635 0 205.859 0.223858 205.859 0.5ZM197.865 0.5C197.865 0.776142 197.641 1 197.365 1H193.368C193.092 1 192.868 0.776142 192.868 0.5C192.868 0.223858 193.092 0 193.368 0H197.365C197.641 0 197.865 0.223858 197.865 0.5ZM189.871 0.5C189.871 0.776142 189.647 1 189.371 1H185.373C185.097 1 184.873 0.776142 184.873 0.5C184.873 0.223858 185.097 0 185.373 0H189.371C189.647 0 189.871 0.223858 189.871 0.5ZM181.876 0.5C181.876 0.776142 181.652 1 181.376 1H177.379C177.103 1 176.879 0.776142 176.879 0.5C176.879 0.223858 177.103 0 177.379 0H181.376C181.652 0 181.876 0.223858 181.876 0.5ZM173.882 0.5C173.882 0.776142 173.658 1 173.382 1H169.385C169.109 1 168.885 0.776142 168.885 0.5C168.885 0.223858 169.109 0 169.385 0H173.382C173.658 0 173.882 0.223858 173.882 0.5ZM165.887 0.5C165.887 0.776142 165.664 1 165.387 1H161.39C161.114 1 160.89 0.776142 160.89 0.5C160.89 0.223858 161.114 0 161.39 0H165.387C165.664 0 165.887 0.223858 165.887 0.5ZM157.893 0.5C157.893 0.776142 157.669 1 157.393 1H153.396C153.12 1 152.896 0.776142 152.896 0.5C152.896 0.223858 153.12 0 153.396 0H157.393C157.669 0 157.893 0.223858 157.893 0.5ZM149.899 0.5C149.899 0.776142 149.675 1 149.399 1H145.401C145.125 1 144.901 0.776142 144.901 0.5C144.901 0.223858 145.125 0 145.401 0H149.399C149.675 0 149.899 0.223858 149.899 0.5ZM141.904 0.5C141.904 0.776142 141.68 1 141.404 1H137.407C137.131 1 136.907 0.776142 136.907 0.5C136.907 0.223858 137.131 0 137.407 0H141.404C141.68 0 141.904 0.223858 141.904 0.5ZM133.91 0.5C133.91 0.776142 133.686 1 133.41 1H129.413C129.136 1 128.913 0.776142 128.913 0.5C128.913 0.223858 129.136 0 129.413 0H133.41C133.686 0 133.91 0.223858 133.91 0.5ZM125.916 0.5C125.916 0.776142 125.692 1 125.416 1H121.418C121.142 1 120.918 0.776142 120.918 0.5C120.918 0.223858 121.142 0 121.418 0H125.416C125.692 0 125.916 0.223858 125.916 0.5ZM117.921 0.5C117.921 0.776142 117.697 1 117.421 1H113.424C113.148 1 112.924 0.776142 112.924 0.5C112.924 0.223858 113.148 0 113.424 0H117.421C117.697 0 117.921 0.223858 117.921 0.5ZM109.927 0.5C109.927 0.776142 109.703 1 109.427 1H105.43C105.153 1 104.93 0.776142 104.93 0.5C104.93 0.223858 105.153 0 105.43 0H109.427C109.703 0 109.927 0.223858 109.927 0.5ZM101.932 0.5C101.932 0.776142 101.708 1 101.432 1H97.4352C97.1591 1 96.9352 0.776142 96.9352 0.5C96.9352 0.223858 97.1591 0 97.4352 0H101.432C101.708 0 101.932 0.223858 101.932 0.5ZM93.938 0.5C93.938 0.776142 93.7141 1 93.438 1H89.4408C89.1647 1 88.9408 0.776142 88.9408 0.5C88.9408 0.223858 89.1647 0 89.4408 0H93.438C93.7141 0 93.938 0.223858 93.938 0.5ZM85.9436 0.5C85.9436 0.776142 85.7197 1 85.4436 1H81.4464C81.1703 1 80.9464 0.776142 80.9464 0.5C80.9464 0.223858 81.1703 0 81.4464 0H85.4436C85.7197 0 85.9436 0.223858 85.9436 0.5ZM77.9492 0.5C77.9492 0.776142 77.7253 1 77.4492 1H73.452C73.1759 1 72.952 0.776142 72.952 0.5C72.952 0.223858 73.1759 0 73.452 0H77.4492C77.7253 0 77.9492 0.223858 77.9492 0.5ZM69.9548 0.5C69.9548 0.776142 69.731 1 69.4548 1H65.4576C65.1815 1 64.9576 0.776142 64.9576 0.5C64.9576 0.223858 65.1815 0 65.4576 0H69.4548C69.731 0 69.9548 0.223858 69.9548 0.5ZM61.9604 0.5C61.9604 0.776142 61.7366 1 61.4604 1H57.4633C57.1871 1 56.9633 0.776142 56.9633 0.5C56.9633 0.223858 57.1871 0 57.4633 0H61.4604C61.7366 0 61.9604 0.223858 61.9604 0.5ZM53.9661 0.5C53.9661 0.776142 53.7422 1 53.4661 1H49.4689C49.1927 1 48.9689 0.776142 48.9689 0.5C48.9689 0.223858 49.1927 0 49.4689 0H53.4661C53.7422 0 53.9661 0.223858 53.9661 0.5ZM45.9717 0.5C45.9717 0.776142 45.7478 1 45.4717 1H41.4745C41.1984 1 40.9745 0.776142 40.9745 0.5C40.9745 0.223858 41.1984 0 41.4745 0H45.4717C45.7478 0 45.9717 0.223858 45.9717 0.5ZM37.9773 0.5C37.9773 0.776142 37.7534 1 37.4773 1H33.4801C33.204 1 32.9801 0.776142 32.9801 0.5C32.9801 0.223858 33.204 0 33.4801 0H37.4773C37.7534 0 37.9773 0.223858 37.9773 0.5ZM29.9829 0.5C29.9829 0.776142 29.759 1 29.4829 1H25.4857C25.2096 1 24.9857 0.776142 24.9857 0.5C24.9857 0.223858 25.2096 0 25.4857 0H29.4829C29.759 0 29.9829 0.223858 29.9829 0.5ZM21.9885 0.5C21.9885 0.776142 21.7646 1 21.4885 1H17.4913C17.2152 1 16.9913 0.776142 16.9913 0.5C16.9913 0.223858 17.2152 0 17.4913 0H21.4885C21.7646 0 21.9885 0.223858 21.9885 0.5ZM13.9941 0.5C13.9941 0.776142 13.7703 1 13.4941 1H9.49695C9.22083 1 8.99695 0.776142 8.99695 0.5C8.99695 0.223858 9.22083 0 9.49695 0H13.4941C13.7703 0 13.9941 0.223858 13.9941 0.5ZM5.99976 0.5C5.99976 0.776142 5.77588 1 5.49976 1H1.50256C1.22644 1 1.00256 0.776142 1.00256 0.5C1.00256 0.223858 1.22644 0 1.50256 0H5.49976C5.77588 0 5.99976 0.223858 5.99976 0.5ZM-1.99463 0.5C-1.99463 0.776142 -2.21838 1 -2.49463 1H-4.5C-4.77612 1 -5 0.776142 -5 0.5C-5 0.223858 -4.77612 0 -4.5 0H-2.49463C-2.21838 0 -1.99463 0.223858 -1.99463 0.5Z" fill="white"/>
</g>
</g>
<defs>
<clipPath id="clip0_1135_14490">
<rect width="16" height="1" fill="white"/>
</clipPath>
</defs>
</svg>
