<svg width="288" height="16" viewBox="0 0 288 16" fill="none" xmlns="http://www.w3.org/2000/svg">
<g clip-path="url(#clip0_1223_3410)">
<path opacity="0.24" fill-rule="evenodd" clip-rule="evenodd" d="M287.5 -1.9081e-08C287.776 -8.54288e-09 288 0.223858 288 0.5L288 2.4933C288 2.76945 287.776 2.9933 287.5 2.9933C287.224 2.9933 287 2.76945 287 2.4933L287 0.5C287 0.223858 287.224 -2.96192e-08 287.5 -1.9081e-08ZM287.5 5.97991C287.776 5.97991 288 6.20377 288 6.47991L288 10.4665C288 10.7427 287.776 10.9665 287.5 10.9665C287.224 10.9665 287 10.7427 287 10.4665L287 6.47991C287 6.20377 287.224 5.97991 287.5 5.97991ZM287.5 13.9531C287.776 13.9531 288 14.177 288 14.4531L288 18.4397C288 18.7159 287.776 18.9397 287.5 18.9397C287.224 18.9397 287 18.7159 287 18.4397L287 14.4531C287 14.177 287.224 13.9531 287.5 13.9531ZM287.5 21.9263C287.776 21.9263 288 22.1502 288 22.4263L288 26.4129C288 26.6891 287.776 26.9129 287.5 26.9129C287.224 26.9129 287 26.6891 287 26.4129L287 22.4263C287 22.1502 287.224 21.9263 287.5 21.9263ZM287.5 29.8996C287.776 29.8996 288 30.1234 288 30.3996L288 34.3862C288 34.6623 287.776 34.8862 287.5 34.8862C287.224 34.8862 287 34.6623 287 34.3862L287 30.3996C287 30.1234 287.224 29.8996 287.5 29.8996ZM287.5 37.8728C287.776 37.8728 288 38.0966 288 38.3728L288 42.3594C288 42.6355 287.776 42.8594 287.5 42.8594C287.224 42.8594 287 42.6355 287 42.3594L287 38.3728C287 38.0966 287.224 37.8728 287.5 37.8728ZM287.5 45.846C287.776 45.846 288 46.0698 288 46.346L288 50.3326C288 50.6087 287.776 50.8326 287.5 50.8326C287.224 50.8326 287 50.6087 287 50.3326L287 46.346C287 46.0698 287.224 45.846 287.5 45.846ZM287.5 53.8192C287.776 53.8192 288 54.043 288 54.3192L288 58.3058C288 58.5819 287.776 58.8058 287.5 58.8058C287.224 58.8058 287 58.5819 287 58.3058L287 54.3192C287 54.043 287.224 53.8192 287.5 53.8192ZM287.5 61.7924C287.776 61.7924 288 62.0163 288 62.2924L288 66.279C288 66.5552 287.776 66.779 287.5 66.779C287.224 66.779 287 66.5552 287 66.279L287 62.2924C287 62.0163 287.224 61.7924 287.5 61.7924ZM287.5 69.7656C287.776 69.7656 288 69.9895 288 70.2656L288 74.2522C288 74.5284 287.776 74.7522 287.5 74.7522C287.224 74.7522 287 74.5284 287 74.2522L287 70.2656C287 69.9895 287.224 69.7656 287.5 69.7656ZM287.5 77.7388C287.776 77.7388 288 77.9627 288 78.2388L288 82.2255C288 82.5016 287.776 82.7255 287.5 82.7255C287.224 82.7255 287 82.5016 287 82.2255L287 78.2388C287 77.9627 287.224 77.7388 287.5 77.7388ZM287.5 85.7121C287.776 85.7121 288 85.9359 288 86.2121L288 90.1987C288 90.4748 287.776 90.6987 287.5 90.6987C287.224 90.6987 287 90.4748 287 90.1987L287 86.2121C287 85.9359 287.224 85.7121 287.5 85.7121ZM287.5 93.6853C287.776 93.6853 288 93.9091 288 94.1853L288 98.1719C288 98.448 287.776 98.6719 287.5 98.6719C287.224 98.6719 287 98.448 287 98.1719L287 94.1853C287 93.9091 287.224 93.6853 287.5 93.6853ZM287.5 101.659C287.776 101.659 288 101.882 288 102.159L288 106.145C288 106.421 287.776 106.645 287.5 106.645C287.224 106.645 287 106.421 287 106.145L287 102.159C287 101.882 287.224 101.659 287.5 101.659ZM287.5 109.632C287.776 109.632 288 109.856 288 110.132L288 114.118C288 114.394 287.776 114.618 287.5 114.618C287.224 114.618 287 114.394 287 114.118L287 110.132C287 109.856 287.224 109.632 287.5 109.632ZM287.5 117.605C287.776 117.605 288 117.829 288 118.105L288 122.092C288 122.368 287.776 122.592 287.5 122.592C287.224 122.592 287 122.368 287 122.092L287 118.105C287 117.829 287.224 117.605 287.5 117.605ZM287.5 125.578C287.776 125.578 288 125.802 288 126.078L288 130.065C288 130.341 287.776 130.565 287.5 130.565C287.224 130.565 287 130.341 287 130.065L287 126.078C287 125.802 287.224 125.578 287.5 125.578ZM287.5 133.551C287.776 133.551 288 133.775 288 134.051L288 138.038C288 138.314 287.776 138.538 287.5 138.538C287.224 138.538 287 138.314 287 138.038L287 134.051C287 133.775 287.224 133.551 287.5 133.551ZM287.5 141.525C287.776 141.525 288 141.748 288 142.025L288 146.011C288 146.287 287.776 146.511 287.5 146.511C287.224 146.511 287 146.287 287 146.011L287 142.025C287 141.748 287.224 141.525 287.5 141.525ZM287.5 149.498C287.776 149.498 288 149.722 288 149.998L288 153.984C288 154.261 287.776 154.484 287.5 154.484C287.224 154.484 287 154.261 287 153.984L287 149.998C287 149.722 287.224 149.498 287.5 149.498ZM287.5 157.471C287.776 157.471 288 157.695 288 157.971L288 161.958C288 162.234 287.776 162.458 287.5 162.458C287.224 162.458 287 162.234 287 161.958L287 157.971C287 157.695 287.224 157.471 287.5 157.471ZM287.5 165.444C287.776 165.444 288 165.668 288 165.944L288 169.931C288 170.207 287.776 170.431 287.5 170.431C287.224 170.431 287 170.207 287 169.931L287 165.944C287 165.668 287.224 165.444 287.5 165.444ZM287.5 173.417C287.776 173.417 288 173.641 288 173.917L288 177.904C288 178.18 287.776 178.404 287.5 178.404C287.224 178.404 287 178.18 287 177.904L287 173.917C287 173.641 287.224 173.417 287.5 173.417ZM287.5 181.391C287.776 181.391 288 181.614 288 181.891L288 185.877C288 186.153 287.776 186.377 287.5 186.377C287.224 186.377 287 186.153 287 185.877L287 181.891C287 181.614 287.224 181.391 287.5 181.391ZM287.5 189.364C287.776 189.364 288 189.588 288 189.864L288 193.85C288 194.127 287.776 194.35 287.5 194.35C287.224 194.35 287 194.127 287 193.85L287 189.864C287 189.588 287.224 189.364 287.5 189.364ZM287.5 197.337C287.776 197.337 288 197.561 288 197.837L288 201.824C288 202.1 287.776 202.324 287.5 202.324C287.224 202.324 287 202.1 287 201.824L287 197.837C287 197.561 287.224 197.337 287.5 197.337ZM287.5 205.31C287.776 205.31 288 205.534 288 205.81L288 209.797C288 210.073 287.776 210.297 287.5 210.297C287.224 210.297 287 210.073 287 209.797L287 205.81C287 205.534 287.224 205.31 287.5 205.31ZM287.5 213.283C287.776 213.283 288 213.507 288 213.783L288 217.77C288 218.046 287.776 218.27 287.5 218.27C287.224 218.27 287 218.046 287 217.77L287 213.783C287 213.507 287.224 213.283 287.5 213.283ZM287.5 221.257C287.776 221.257 288 221.48 288 221.757L288 225.743C288 226.019 287.776 226.243 287.5 226.243C287.224 226.243 287 226.019 287 225.743L287 221.757C287 221.48 287.224 221.257 287.5 221.257ZM287.5 229.23C287.776 229.23 288 229.454 288 229.73L288 233.716C288 233.993 287.776 234.216 287.5 234.216C287.224 234.216 287 233.993 287 233.716L287 229.73C287 229.454 287.224 229.23 287.5 229.23ZM287.5 237.203C287.776 237.203 288 237.427 288 237.703L288 241.69C288 241.966 287.776 242.19 287.5 242.19C287.224 242.19 287 241.966 287 241.69L287 237.703C287 237.427 287.224 237.203 287.5 237.203ZM287.5 245.176C287.776 245.176 288 245.4 288 245.676L288 249.663C288 249.939 287.776 250.163 287.5 250.163C287.224 250.163 287 249.939 287 249.663L287 245.676C287 245.4 287.224 245.176 287.5 245.176ZM287.5 253.149C287.776 253.149 288 253.373 288 253.649L288 257.636C288 257.912 287.776 258.136 287.5 258.136C287.224 258.136 287 257.912 287 257.636L287 253.649C287 253.373 287.224 253.149 287.5 253.149ZM287.5 261.123C287.776 261.123 288 261.347 288 261.623L288 265.609C288 265.885 287.776 266.109 287.5 266.109C287.224 266.109 287 265.885 287 265.609L287 261.623C287 261.347 287.224 261.123 287.5 261.123ZM287.5 269.096C287.776 269.096 288 269.32 288 269.596L288 273.582C288 273.859 287.776 274.082 287.5 274.082C287.224 274.082 287 273.859 287 273.582L287 269.596C287 269.32 287.224 269.096 287.5 269.096ZM287.5 277.069C287.776 277.069 288 277.293 288 277.569L288 281.556C288 281.832 287.776 282.056 287.5 282.056C287.224 282.056 287 281.832 287 281.556L287 277.569C287 277.293 287.224 277.069 287.5 277.069ZM287.5 285.042C287.776 285.042 288 285.266 288 285.542L288 289.529C288 289.805 287.776 290.029 287.5 290.029C287.224 290.029 287 289.805 287 289.529L287 285.542C287 285.266 287.224 285.042 287.5 285.042ZM287.5 293.016C287.776 293.016 288 293.239 288 293.516L288 297.502C288 297.778 287.776 298.002 287.5 298.002C287.224 298.002 287 297.778 287 297.502L287 293.516C287 293.239 287.224 293.016 287.5 293.016ZM287.5 300.989C287.776 300.989 288 301.213 288 301.489L288 305.475C288 305.751 287.776 305.975 287.5 305.975C287.224 305.975 287 305.751 287 305.475L287 301.489C287 301.213 287.224 300.989 287.5 300.989ZM287.5 308.962C287.776 308.962 288 309.186 288 309.462L288 313.449C288 313.725 287.776 313.949 287.5 313.949C287.224 313.949 287 313.725 287 313.449L287 309.462C287 309.186 287.224 308.962 287.5 308.962ZM287.5 316.935C287.776 316.935 288 317.159 288 317.435L288 321.422C288 321.698 287.776 321.922 287.5 321.922C287.224 321.922 287 321.698 287 321.422L287 317.435C287 317.159 287.224 316.935 287.5 316.935ZM287.5 324.908C287.776 324.908 288 325.132 288 325.408L288 329.395C288 329.671 287.776 329.895 287.5 329.895C287.224 329.895 287 329.671 287 329.395L287 325.408C287 325.132 287.224 324.908 287.5 324.908ZM287.5 332.882C287.776 332.882 288 333.105 288 333.382L288 337.368C288 337.644 287.776 337.868 287.5 337.868C287.224 337.868 287 337.644 287 337.368L287 333.382C287 333.105 287.224 332.882 287.5 332.882ZM287.5 340.855C287.776 340.855 288 341.079 288 341.355L288 345.341C288 345.617 287.776 345.841 287.5 345.841C287.224 345.841 287 345.617 287 345.341L287 341.355C287 341.079 287.224 340.855 287.5 340.855ZM287.5 348.828C287.776 348.828 288 349.052 288 349.328L288 353.315C288 353.591 287.776 353.815 287.5 353.815C287.224 353.815 287 353.591 287 353.315L287 349.328C287 349.052 287.224 348.828 287.5 348.828ZM287.5 356.801C287.776 356.801 288 357.025 288 357.301L288 361.288C288 361.564 287.776 361.788 287.5 361.788C287.224 361.788 287 361.564 287 361.288L287 357.301C287 357.025 287.224 356.801 287.5 356.801ZM287.5 364.774C287.776 364.774 288 364.998 288 365.274L288 369.261C288 369.537 287.776 369.761 287.5 369.761C287.224 369.761 287 369.537 287 369.261L287 365.274C287 364.998 287.224 364.774 287.5 364.774ZM287.5 372.748C287.776 372.748 288 372.971 288 373.248L288 377.234C288 377.51 287.776 377.734 287.5 377.734C287.224 377.734 287 377.51 287 377.234L287 373.248C287 372.971 287.224 372.748 287.5 372.748ZM287.5 380.721C287.776 380.721 288 380.945 288 381.221L288 385.207C288 385.484 287.776 385.707 287.5 385.707C287.224 385.707 287 385.484 287 385.207L287 381.221C287 380.945 287.224 380.721 287.5 380.721ZM287.5 388.694C287.776 388.694 288 388.918 288 389.194L288 393.181C288 393.457 287.776 393.681 287.5 393.681C287.224 393.681 287 393.457 287 393.181L287 389.194C287 388.918 287.224 388.694 287.5 388.694ZM287.5 396.667C287.776 396.667 288 396.891 288 397.167L288 401.154C288 401.43 287.776 401.654 287.5 401.654C287.224 401.654 287 401.43 287 401.154L287 397.167C287 396.891 287.224 396.667 287.5 396.667ZM287.5 404.64C287.776 404.64 288 404.864 288 405.14L288 409.127C288 409.403 287.776 409.627 287.5 409.627C287.224 409.627 287 409.403 287 409.127L287 405.14C287 404.864 287.224 404.64 287.5 404.64ZM287.5 412.614C287.776 412.614 288 412.837 288 413.114L288 417.1C288 417.376 287.776 417.6 287.5 417.6C287.224 417.6 287 417.376 287 417.1L287 413.114C287 412.837 287.224 412.614 287.5 412.614ZM287.5 420.587C287.776 420.587 288 420.811 288 421.087L288 425.073C288 425.35 287.776 425.573 287.5 425.573C287.224 425.573 287 425.35 287 425.073L287 421.087C287 420.811 287.224 420.587 287.5 420.587ZM287.5 428.56C287.776 428.56 288 428.784 288 429.06L288 433.047C288 433.323 287.776 433.547 287.5 433.547C287.224 433.547 287 433.323 287 433.047L287 429.06C287 428.784 287.224 428.56 287.5 428.56ZM287.5 436.533C287.776 436.533 288 436.757 288 437.033L288 441.02C288 441.296 287.776 441.52 287.5 441.52C287.224 441.52 287 441.296 287 441.02L287 437.033C287 436.757 287.224 436.533 287.5 436.533ZM287.5 444.506C287.776 444.506 288 444.73 288 445.006L288 448.993C288 449.269 287.776 449.493 287.5 449.493C287.224 449.493 287 449.269 287 448.993L287 445.006C287 444.73 287.224 444.506 287.5 444.506ZM287.5 452.48C287.776 452.48 288 452.703 288 452.98L288 456.966C288 457.242 287.776 457.466 287.5 457.466C287.224 457.466 287 457.242 287 456.966L287 452.98C287 452.703 287.224 452.48 287.5 452.48ZM287.5 460.453C287.776 460.453 288 460.677 288 460.953L288 464.939C288 465.216 287.776 465.439 287.5 465.439C287.224 465.439 287 465.216 287 464.939L287 460.953C287 460.677 287.224 460.453 287.5 460.453ZM287.5 468.426C287.776 468.426 288 468.65 288 468.926L288 472.913C288 473.189 287.776 473.413 287.5 473.413C287.224 473.413 287 473.189 287 472.913L287 468.926C287 468.65 287.224 468.426 287.5 468.426ZM287.5 476.399C287.776 476.399 288 476.623 288 476.899L288 480.886C288 481.162 287.776 481.386 287.5 481.386C287.224 481.386 287 481.162 287 480.886L287 476.899C287 476.623 287.224 476.399 287.5 476.399ZM287.5 484.372C287.776 484.372 288 484.596 288 484.872L288 488.859C288 489.135 287.776 489.359 287.5 489.359C287.224 489.359 287 489.135 287 488.859L287 484.872C287 484.596 287.224 484.372 287.5 484.372ZM287.5 492.346C287.776 492.346 288 492.57 288 492.846L288 496.832C288 497.108 287.776 497.332 287.5 497.332C287.224 497.332 287 497.108 287 496.832L287 492.846C287 492.57 287.224 492.346 287.5 492.346ZM287.5 500.319C287.776 500.319 288 500.543 288 500.819L288 504.805C288 505.082 287.776 505.305 287.5 505.305C287.224 505.305 287 505.082 287 504.805L287 500.819C287 500.543 287.224 500.319 287.5 500.319ZM287.5 508.292C287.776 508.292 288 508.516 288 508.792L288 512.779C288 513.055 287.776 513.279 287.5 513.279C287.224 513.279 287 513.055 287 512.779L287 508.792C287 508.516 287.224 508.292 287.5 508.292ZM287.5 516.265C287.776 516.265 288 516.489 288 516.765L288 520.752C288 521.028 287.776 521.252 287.5 521.252C287.224 521.252 287 521.028 287 520.752L287 516.765C287 516.489 287.224 516.265 287.5 516.265ZM287.5 524.239C287.776 524.239 288 524.462 288 524.739L288 528.725C288 529.001 287.776 529.225 287.5 529.225C287.224 529.225 287 529.001 287 528.725L287 524.739C287 524.462 287.224 524.239 287.5 524.239ZM287.5 532.212C287.776 532.212 288 532.436 288 532.712L288 536.698C288 536.975 287.776 537.198 287.5 537.198C287.224 537.198 287 536.975 287 536.698L287 532.712C287 532.436 287.224 532.212 287.5 532.212ZM287.5 540.185C287.776 540.185 288 540.409 288 540.685L288 544.672C288 544.948 287.776 545.172 287.5 545.172C287.224 545.172 287 544.948 287 544.672L287 540.685C287 540.409 287.224 540.185 287.5 540.185ZM287.5 548.158C287.776 548.158 288 548.382 288 548.658L288 552.645C288 552.921 287.776 553.145 287.5 553.145C287.224 553.145 287 552.921 287 552.645L287 548.658C287 548.382 287.224 548.158 287.5 548.158ZM287.5 556.132C287.776 556.132 288 556.356 288 556.632L288 560.618C288 560.894 287.776 561.118 287.5 561.118C287.224 561.118 287 560.894 287 560.618L287 556.632C287 556.356 287.224 556.132 287.5 556.132ZM287.5 564.105C287.776 564.105 288 564.329 288 564.605L288 568.592C288 568.868 287.776 569.092 287.5 569.092C287.224 569.092 287 568.868 287 568.592L287 564.605C287 564.329 287.224 564.105 287.5 564.105ZM287.5 572.078C287.776 572.078 288 572.302 288 572.578L288 576.565C288 576.841 287.776 577.065 287.5 577.065C287.224 577.065 287 576.841 287 576.565L287 572.578C287 572.302 287.224 572.078 287.5 572.078ZM287.5 580.051C287.776 580.051 288 580.275 288 580.551L288 584.538C288 584.814 287.776 585.038 287.5 585.038C287.224 585.038 287 584.814 287 584.538L287 580.551C287 580.275 287.224 580.051 287.5 580.051ZM287.5 588.025C287.776 588.025 288 588.249 288 588.525L288 592.511C288 592.787 287.776 593.011 287.5 593.011C287.224 593.011 287 592.787 287 592.511L287 588.525C287 588.249 287.224 588.025 287.5 588.025ZM287.5 595.998C287.776 595.998 288 596.222 288 596.498L288 600.485C288 600.761 287.776 600.985 287.5 600.985C287.224 600.985 287 600.761 287 600.485L287 596.498C287 596.222 287.224 595.998 287.5 595.998ZM287.5 603.971C287.776 603.971 288 604.195 288 604.471L288 608.458C288 608.734 287.776 608.958 287.5 608.958C287.224 608.958 287 608.734 287 608.458L287 604.471C287 604.195 287.224 603.971 287.5 603.971ZM287.5 611.945C287.776 611.945 288 612.168 288 612.445L288 616.431C288 616.707 287.776 616.931 287.5 616.931C287.224 616.931 287 616.707 287 616.431L287 612.445C287 612.168 287.224 611.945 287.5 611.945ZM287.5 619.918C287.776 619.918 288 620.142 288 620.418L288 624.404C288 624.681 287.776 624.904 287.5 624.904C287.224 624.904 287 624.681 287 624.404L287 620.418C287 620.142 287.224 619.918 287.5 619.918ZM287.5 627.891C287.776 627.891 288 628.115 288 628.391L288 632.378C288 632.654 287.776 632.878 287.5 632.878C287.224 632.878 287 632.654 287 632.378L287 628.391C287 628.115 287.224 627.891 287.5 627.891ZM287.5 635.864C287.776 635.864 288 636.088 288 636.364L288 640.351C288 640.627 287.776 640.851 287.5 640.851C287.224 640.851 287 640.627 287 640.351L287 636.364C287 636.088 287.224 635.864 287.5 635.864ZM287.5 643.838C287.776 643.838 288 644.061 288 644.338L288 648.324C288 648.6 287.776 648.824 287.5 648.824C287.224 648.824 287 648.6 287 648.324L287 644.338C287 644.061 287.224 643.838 287.5 643.838ZM287.5 651.811C287.776 651.811 288 652.035 288 652.311L288 656.297C288 656.574 287.776 656.797 287.5 656.797C287.224 656.797 287 656.574 287 656.297L287 652.311C287 652.035 287.224 651.811 287.5 651.811ZM287.5 659.784C287.776 659.784 288 660.008 288 660.284L288 664.271C288 664.547 287.776 664.771 287.5 664.771C287.224 664.771 287 664.547 287 664.271L287 660.284C287 660.008 287.224 659.784 287.5 659.784ZM287.5 667.757C287.776 667.757 288 667.981 288 668.257L288 672.244C288 672.52 287.776 672.744 287.5 672.744C287.224 672.744 287 672.52 287 672.244L287 668.257C287 667.981 287.224 667.757 287.5 667.757ZM287.5 675.731C287.776 675.731 288 675.954 288 676.231L288 680.217C288 680.493 287.776 680.717 287.5 680.717C287.224 680.717 287 680.493 287 680.217L287 676.231C287 675.954 287.224 675.731 287.5 675.731ZM287.5 683.704C287.776 683.704 288 683.928 288 684.204L288 688.191C288 688.467 287.776 688.691 287.5 688.691C287.224 688.691 287 688.467 287 688.191L287 684.204C287 683.928 287.224 683.704 287.5 683.704ZM287.5 691.677C287.776 691.677 288 691.901 288 692.177L288 696.164C288 696.44 287.776 696.664 287.5 696.664C287.224 696.664 287 696.44 287 696.164L287 692.177C287 691.901 287.224 691.677 287.5 691.677ZM287.5 699.65C287.776 699.65 288 699.874 288 700.15L288 704.137C288 704.413 287.776 704.637 287.5 704.637C287.224 704.637 287 704.413 287 704.137L287 700.15C287 699.874 287.224 699.65 287.5 699.65ZM287.5 707.624C287.776 707.624 288 707.848 288 708.124L288 712.11C288 712.386 287.776 712.61 287.5 712.61C287.224 712.61 287 712.386 287 712.11L287 708.124C287 707.848 287.224 707.624 287.5 707.624ZM287.5 715.597C287.776 715.597 288 715.821 288 716.097L288 720.084C288 720.36 287.776 720.584 287.5 720.584C287.224 720.584 287 720.36 287 720.084L287 716.097C287 715.821 287.224 715.597 287.5 715.597ZM287.5 723.57C287.776 723.57 288 723.794 288 724.07L288 728.057C288 728.333 287.776 728.557 287.5 728.557C287.224 728.557 287 728.333 287 728.057L287 724.07C287 723.794 287.224 723.57 287.5 723.57ZM287.5 731.544C287.776 731.544 288 731.767 288 732.044L288 736.03C288 736.306 287.776 736.53 287.5 736.53C287.224 736.53 287 736.306 287 736.03L287 732.044C287 731.767 287.224 731.544 287.5 731.544ZM287.5 739.517C287.776 739.517 288 739.741 288 740.017L288 744.003C288 744.28 287.776 744.503 287.5 744.503C287.224 744.503 287 744.28 287 744.003L287 740.017C287 739.741 287.224 739.517 287.5 739.517ZM287.5 747.49C287.776 747.49 288 747.714 288 747.99L288 751.977C288 752.253 287.776 752.477 287.5 752.477C287.224 752.477 287 752.253 287 751.977L287 747.99C287 747.714 287.224 747.49 287.5 747.49ZM287.5 755.463C287.776 755.463 288 755.687 288 755.963L288 759.95C288 760.226 287.776 760.45 287.5 760.45C287.224 760.45 287 760.226 287 759.95L287 755.963C287 755.687 287.224 755.463 287.5 755.463ZM287.5 763.437C287.776 763.437 288 763.66 288 763.937L288 767.923C288 768.199 287.776 768.423 287.5 768.423C287.224 768.423 287 768.199 287 767.923L287 763.937C287 763.66 287.224 763.437 287.5 763.437ZM287.5 771.41C287.776 771.41 288 771.634 288 771.91L288 775.896C288 776.173 287.776 776.396 287.5 776.396C287.224 776.396 287 776.173 287 775.896L287 771.91C287 771.634 287.224 771.41 287.5 771.41ZM287.5 779.383C287.776 779.383 288 779.607 288 779.883L288 783.87C288 784.146 287.776 784.37 287.5 784.37C287.224 784.37 287 784.146 287 783.87L287 779.883C287 779.607 287.224 779.383 287.5 779.383ZM287.5 787.356C287.776 787.356 288 787.58 288 787.856L288 791.843C288 792.119 287.776 792.343 287.5 792.343C287.224 792.343 287 792.119 287 791.843L287 787.856C287 787.58 287.224 787.356 287.5 787.356ZM287.5 795.33C287.776 795.33 288 795.554 288 795.83L288 799.816C288 800.092 287.776 800.316 287.5 800.316C287.224 800.316 287 800.092 287 799.816L287 795.83C287 795.554 287.224 795.33 287.5 795.33ZM287.5 803.303C287.776 803.303 288 803.527 288 803.803L288 807.79C288 808.066 287.776 808.29 287.5 808.29C287.224 808.29 287 808.066 287 807.79L287 803.803C287 803.527 287.224 803.303 287.5 803.303ZM287.5 811.276C287.776 811.276 288 811.5 288 811.776L288 815.763C288 816.039 287.776 816.263 287.5 816.263C287.224 816.263 287 816.039 287 815.763L287 811.776C287 811.5 287.224 811.276 287.5 811.276ZM287.5 819.249C287.776 819.249 288 819.473 288 819.749L288 823.736C288 824.012 287.776 824.236 287.5 824.236C287.224 824.236 287 824.012 287 823.736L287 819.749C287 819.473 287.224 819.249 287.5 819.249ZM287.5 827.223C287.776 827.223 288 827.447 288 827.723L288 831.709C288 831.986 287.776 832.209 287.5 832.209C287.224 832.209 287 831.986 287 831.709L287 827.723C287 827.447 287.224 827.223 287.5 827.223ZM287.5 835.196C287.776 835.196 288 835.42 288 835.696L288 839.683C288 839.959 287.776 840.183 287.5 840.183C287.224 840.183 287 839.959 287 839.683L287 835.696C287 835.42 287.224 835.196 287.5 835.196ZM287.5 843.169C287.776 843.169 288 843.393 288 843.669L288 847.656C288 847.932 287.776 848.156 287.5 848.156C287.224 848.156 287 847.932 287 847.656L287 843.669C287 843.393 287.224 843.169 287.5 843.169ZM287.5 851.143C287.776 851.143 288 851.366 288 851.643L288 855.629C288 855.905 287.776 856.129 287.5 856.129C287.224 856.129 287 855.905 287 855.629L287 851.643C287 851.366 287.224 851.143 287.5 851.143ZM287.5 859.116C287.776 859.116 288 859.34 288 859.616L288 863.602C288 863.879 287.776 864.102 287.5 864.102C287.224 864.102 287 863.879 287 863.602L287 859.616C287 859.34 287.224 859.116 287.5 859.116ZM287.5 867.089C287.776 867.089 288 867.313 288 867.589L288 871.576C288 871.852 287.776 872.076 287.5 872.076C287.224 872.076 287 871.852 287 871.576L287 867.589C287 867.313 287.224 867.089 287.5 867.089ZM287.5 875.062C287.776 875.062 288 875.286 288 875.562L288 879.549C288 879.825 287.776 880.049 287.5 880.049C287.224 880.049 287 879.825 287 879.549L287 875.562C287 875.286 287.224 875.062 287.5 875.062ZM287.5 883.036C287.776 883.036 288 883.259 288 883.536L288 887.522C288 887.798 287.776 888.022 287.5 888.022C287.224 888.022 287 887.798 287 887.522L287 883.536C287 883.259 287.224 883.036 287.5 883.036ZM287.5 891.009C287.776 891.009 288 891.233 288 891.509L288 893.5C288 893.776 287.776 894 287.5 894C287.224 894 287 893.776 287 893.5L287 891.509C287 891.233 287.224 891.009 287.5 891.009Z" fill="white"/>
<path opacity="0.24" fill-rule="evenodd" clip-rule="evenodd" d="M0.5 -5C0.776142 -5 1 -4.77614 1 -4.5L1 -2.49554C1 -2.21939 0.776142 -1.99554 0.5 -1.99554C0.223857 -1.99554 -1.38444e-07 -2.21939 -1.24695e-07 -2.49554L-2.48946e-08 -4.5C-1.11457e-08 -4.77614 0.223858 -5 0.5 -5ZM0.5 1.01339C0.776142 1.01339 1 1.23725 1 1.51339L0.999999 5.52232C0.999999 5.79846 0.776142 6.02232 0.499999 6.02232C0.223857 6.02232 -5.37647e-07 5.79846 -5.23898e-07 5.52232L-3.24296e-07 1.51339C-3.10548e-07 1.23725 0.223857 1.01339 0.5 1.01339ZM0.499999 9.03125C0.776142 9.03125 0.999999 9.25511 0.999999 9.53125L0.999999 13.5402C0.999999 13.8163 0.776141 14.0402 0.499999 14.0402C0.223857 14.0402 -9.36849e-07 13.8163 -9.231e-07 13.5402L-7.23499e-07 9.53125C-7.0975e-07 9.25511 0.223857 9.03125 0.499999 9.03125ZM0.499999 17.0491C0.776141 17.0491 0.999999 17.273 0.999999 17.5491L0.999999 21.558C0.999999 21.8342 0.776141 22.058 0.499999 22.058C0.223856 22.058 -1.33605e-06 21.8342 -1.3223e-06 21.558L-1.1227e-06 17.5491C-1.10895e-06 17.273 0.223857 17.0491 0.499999 17.0491ZM0.499999 25.067C0.776141 25.067 0.999998 25.2908 0.999998 25.567L0.999998 29.5759C0.999998 29.852 0.776141 30.0759 0.499998 30.0759C0.223856 30.0759 -1.73525e-06 29.852 -1.72151e-06 29.5759L-1.5219e-06 25.567C-1.50815e-06 25.2908 0.223856 25.067 0.499999 25.067ZM0.499998 33.0848C0.77614 33.0848 0.999998 33.3087 0.999998 33.5848L0.999998 37.5938C0.999998 37.8699 0.77614 38.0938 0.499998 38.0938C0.223855 38.0938 -2.13446e-06 37.8699 -2.12071e-06 37.5938L-1.92111e-06 33.5848C-1.90736e-06 33.3087 0.223856 33.0848 0.499998 33.0848ZM0.499998 41.1027C0.77614 41.1027 0.999998 41.3265 0.999998 41.6027L0.999997 45.6116C0.999997 45.8878 0.77614 46.1116 0.499997 46.1116C0.223855 46.1116 -2.53366e-06 45.8878 -2.51991e-06 45.6116L-2.32031e-06 41.6027C-2.30656e-06 41.3265 0.223855 41.1027 0.499998 41.1027ZM0.499997 49.1205C0.77614 49.1205 0.999997 49.3444 0.999997 49.6205L0.999997 53.6295C0.999997 53.9056 0.776139 54.1295 0.499997 54.1295C0.223855 54.1295 -2.93286e-06 53.9056 -2.91911e-06 53.6295L-2.71951e-06 49.6205C-2.70576e-06 49.3444 0.223855 49.1205 0.499997 49.1205ZM0.499997 57.1384C0.776139 57.1384 0.999997 57.3623 0.999997 57.6384L0.999997 61.6473C0.999997 61.9235 0.776139 62.1473 0.499997 62.1473C0.223854 62.1473 -3.33206e-06 61.9235 -3.31832e-06 61.6473L-3.11871e-06 57.6384C-3.10497e-06 57.3623 0.223855 57.1384 0.499997 57.1384ZM0.499997 65.1563C0.776139 65.1563 0.999996 65.3801 0.999996 65.6563L0.999996 69.6652C0.999996 69.9413 0.776139 70.1652 0.499996 70.1652C0.223854 70.1652 -3.73127e-06 69.9413 -3.71752e-06 69.6652L-3.51792e-06 65.6563C-3.50417e-06 65.3801 0.223854 65.1563 0.499997 65.1563ZM0.499996 73.1741C0.776138 73.1741 0.999996 73.398 0.999996 73.6741L0.999996 77.683C0.999996 77.9592 0.776138 78.183 0.499996 78.183C0.223853 78.183 -4.13047e-06 77.9592 -4.11672e-06 77.683L-3.91712e-06 73.6741C-3.90337e-06 73.398 0.223854 73.1741 0.499996 73.1741ZM0.499996 81.192C0.776138 81.192 0.999996 81.4158 0.999996 81.692L0.999995 85.7009C0.999995 85.977 0.776138 86.2009 0.499995 86.2009C0.223853 86.2009 -4.52967e-06 85.977 -4.51592e-06 85.7009L-4.31632e-06 81.692C-4.30257e-06 81.4158 0.223853 81.192 0.499996 81.192ZM0.499995 89.2098C0.776138 89.2098 0.999995 89.4337 0.999995 89.7098L0.999995 93.7187C0.999995 93.9949 0.776137 94.2187 0.499995 94.2187C0.223853 94.2187 -4.92887e-06 93.9949 -4.91512e-06 93.7187L-4.71552e-06 89.7098C-4.70177e-06 89.4337 0.223853 89.2098 0.499995 89.2098ZM0.499995 97.2277C0.776137 97.2277 0.999995 97.4515 0.999995 97.7277L0.999995 101.737C0.999995 102.013 0.776137 102.237 0.499995 102.237C0.223852 102.237 -5.32808e-06 102.013 -5.31433e-06 101.737L-5.11473e-06 97.7277C-5.10098e-06 97.4515 0.223853 97.2277 0.499995 97.2277ZM0.499995 105.246C0.776137 105.246 0.999994 105.469 0.999994 105.746L0.999994 109.754C0.999994 110.031 0.776137 110.254 0.499994 110.254C0.223852 110.254 -5.72728e-06 110.031 -5.71353e-06 109.754L-5.51393e-06 105.746C-5.50018e-06 105.469 0.223852 105.246 0.499995 105.246ZM0.499994 113.263C0.776136 113.263 0.999994 113.487 0.999994 113.763L0.999994 117.772C0.999994 118.048 0.776136 118.272 0.499994 118.272C0.223852 118.272 -6.12648e-06 118.048 -6.11273e-06 117.772L-5.91313e-06 113.763C-5.89938e-06 113.487 0.223852 113.263 0.499994 113.263ZM0.499994 121.281C0.776136 121.281 0.999994 121.505 0.999994 121.781L0.999993 125.79C0.999993 126.066 0.776136 126.29 0.499993 126.29C0.223851 126.29 -6.52568e-06 126.066 -6.51193e-06 125.79L-6.31233e-06 121.781C-6.29858e-06 121.505 0.223851 121.281 0.499994 121.281ZM0.499993 129.299C0.776136 129.299 0.999993 129.523 0.999993 129.799L0.999993 133.808C0.999993 134.084 0.776135 134.308 0.499993 134.308C0.223851 134.308 -6.92488e-06 134.084 -6.91114e-06 133.808L-6.71153e-06 129.799C-6.69779e-06 129.523 0.223851 129.299 0.499993 129.299ZM0.499993 137.317C0.776135 137.317 0.999993 137.541 0.999993 137.817L0.999993 141.826C0.999993 142.102 0.776135 142.326 0.499993 142.326C0.22385 142.326 -7.32409e-06 142.102 -7.31034e-06 141.826L-7.11074e-06 137.817C-7.09699e-06 137.541 0.223851 137.317 0.499993 137.317ZM0.499993 145.335C0.776135 145.335 0.999993 145.559 0.999992 145.835L0.999992 149.844C0.999992 150.12 0.776135 150.344 0.499992 150.344C0.22385 150.344 -7.72329e-06 150.12 -7.70954e-06 149.844L-7.50994e-06 145.835C-7.49619e-06 145.559 0.22385 145.335 0.499993 145.335ZM0.499992 153.353C0.776134 153.353 0.999992 153.577 0.999992 153.853L0.999992 157.862C0.999992 158.138 0.776134 158.362 0.499992 158.362C0.22385 158.362 -8.12249e-06 158.138 -8.10874e-06 157.862L-7.90914e-06 153.853C-7.89539e-06 153.577 0.22385 153.353 0.499992 153.353ZM0.499992 161.37C0.776134 161.37 0.999992 161.594 0.999992 161.87L0.999991 165.879C0.999991 166.156 0.776134 166.379 0.499991 166.379C0.223849 166.379 -8.52169e-06 166.156 -8.50795e-06 165.879L-8.30834e-06 161.87C-8.2946e-06 161.594 0.223849 161.37 0.499992 161.37ZM0.499991 169.388C0.776134 169.388 0.999991 169.612 0.999991 169.888L0.999991 173.897C0.999991 174.173 0.776133 174.397 0.499991 174.397C0.223849 174.397 -8.9209e-06 174.173 -8.90715e-06 173.897L-8.70755e-06 169.888C-8.6938e-06 169.612 0.223849 169.388 0.499991 169.388ZM0.499991 177.406C0.776133 177.406 0.999991 177.63 0.999991 177.906L0.999991 181.915C0.999991 182.191 0.776133 182.415 0.499991 182.415C0.223848 182.415 -9.3201e-06 182.191 -9.30635e-06 181.915L-9.10675e-06 177.906C-9.093e-06 177.63 0.223849 177.406 0.499991 177.406ZM0.499991 185.424C0.776133 185.424 0.999991 185.648 0.99999 185.924L0.99999 189.933C0.99999 190.209 0.776133 190.433 0.49999 190.433C0.223848 190.433 -9.7193e-06 190.209 -9.70555e-06 189.933L-9.50595e-06 185.924C-9.4922e-06 185.648 0.223848 185.424 0.499991 185.424ZM0.49999 193.442C0.776132 193.442 0.99999 193.666 0.99999 193.942L0.99999 197.951C0.99999 198.227 0.776132 198.451 0.49999 198.451C0.223848 198.451 -1.01185e-05 198.227 -1.01048e-05 197.951L-9.90515e-06 193.942C-9.8914e-06 193.666 0.223848 193.442 0.49999 193.442ZM0.49999 201.46C0.776132 201.46 0.99999 201.684 0.99999 201.96L0.999989 205.969C0.999989 206.245 0.776132 206.469 0.499989 206.469C0.223847 206.469 -1.05177e-05 206.245 -1.0504e-05 205.969L-1.03044e-05 201.96C-1.02906e-05 201.684 0.223847 201.46 0.49999 201.46ZM0.499989 209.478C0.776132 209.478 0.999989 209.701 0.999989 209.978L0.999989 213.987C0.999989 214.263 0.776131 214.487 0.499989 214.487C0.223847 214.487 -1.09169e-05 214.263 -1.09032e-05 213.987L-1.07036e-05 209.978C-1.06898e-05 209.701 0.223847 209.478 0.499989 209.478ZM0.499989 217.495C0.776131 217.495 0.999989 217.719 0.999989 217.995L0.999989 222.004C0.999989 222.281 0.776131 222.504 0.499989 222.504C0.223846 222.504 -1.13161e-05 222.281 -1.13024e-05 222.004L-1.11028e-05 217.995C-1.1089e-05 217.719 0.223847 217.495 0.499989 217.495ZM0.499989 225.513C0.776131 225.513 0.999989 225.737 0.999988 226.013L0.999988 230.022C0.999988 230.298 0.776131 230.522 0.499988 230.522C0.223846 230.522 -1.17153e-05 230.298 -1.17016e-05 230.022L-1.1502e-05 226.013C-1.14882e-05 225.737 0.223846 225.513 0.499989 225.513ZM0.499988 233.531C0.77613 233.531 0.999988 233.755 0.999988 234.031L0.999988 238.04C0.999988 238.316 0.77613 238.54 0.499988 238.54C0.223846 238.54 -1.21145e-05 238.316 -1.21008e-05 238.04L-1.19012e-05 234.031C-1.18874e-05 233.755 0.223846 233.531 0.499988 233.531ZM0.499988 241.549C0.77613 241.549 0.999988 241.773 0.999988 242.049L0.999988 246.058C0.999987 246.334 0.77613 246.558 0.499987 246.558C0.223845 246.558 -1.25137e-05 246.334 -1.25e-05 246.058L-1.23004e-05 242.049C-1.22866e-05 241.773 0.223845 241.549 0.499988 241.549ZM0.499987 249.567C0.77613 249.567 0.999987 249.791 0.999987 250.067L0.999987 254.076C0.999987 254.352 0.776129 254.576 0.499987 254.576C0.223845 254.576 -1.29129e-05 254.352 -1.28992e-05 254.076L-1.26996e-05 250.067C-1.26858e-05 249.791 0.223845 249.567 0.499987 249.567ZM0.499987 257.585C0.776129 257.585 0.999987 257.809 0.999987 258.085L0.999987 262.094C0.999987 262.37 0.776129 262.594 0.499987 262.594C0.223844 262.594 -1.33121e-05 262.37 -1.32984e-05 262.094L-1.30988e-05 258.085C-1.3085e-05 257.809 0.223845 257.585 0.499987 257.585ZM0.499987 265.603C0.776129 265.603 0.999987 265.827 0.999987 266.103L0.999986 270.112C0.999986 270.388 0.776129 270.612 0.499986 270.612C0.223844 270.612 -1.37113e-05 270.388 -1.36976e-05 270.112L-1.3498e-05 266.103C-1.34842e-05 265.827 0.223844 265.603 0.499987 265.603ZM0.499986 273.621C0.776128 273.621 0.999986 273.844 0.999986 274.121L0.999986 278.129C0.999986 278.406 0.776128 278.629 0.499986 278.629C0.223844 278.629 -1.41105e-05 278.406 -1.40968e-05 278.129L-1.38972e-05 274.121C-1.38834e-05 273.844 0.223844 273.621 0.499986 273.621ZM0.499986 281.638C0.776128 281.638 0.999986 281.862 0.999986 282.138L0.999986 286.147C0.999985 286.423 0.776128 286.647 0.499985 286.647C0.223843 286.647 -1.45097e-05 286.423 -1.4496e-05 286.147L-1.42964e-05 282.138C-1.42826e-05 281.862 0.223843 281.638 0.499986 281.638ZM0.499985 289.656C0.776128 289.656 0.999985 289.88 0.999985 290.156L0.999985 294.165C0.999985 294.441 0.776127 294.665 0.499985 294.665C0.223843 294.665 -1.49089e-05 294.441 -1.48952e-05 294.165L-1.46956e-05 290.156C-1.46818e-05 289.88 0.223843 289.656 0.499985 289.656ZM0.499985 297.674C0.776127 297.674 0.999985 297.898 0.999985 298.174L0.999985 302.183C0.999985 302.459 0.776127 302.683 0.499985 302.683C0.223842 302.683 -1.53081e-05 302.459 -1.52944e-05 302.183L-1.50948e-05 298.174C-1.5081e-05 297.898 0.223843 297.674 0.499985 297.674ZM0.499985 305.692C0.776127 305.692 0.999985 305.916 0.999985 306.192L0.999984 310.201C0.999984 310.477 0.776127 310.701 0.499984 310.701C0.223842 310.701 -1.57073e-05 310.477 -1.56936e-05 310.201L-1.5494e-05 306.192C-1.54802e-05 305.916 0.223842 305.692 0.499985 305.692ZM0.499984 313.71C0.776126 313.71 0.999984 313.934 0.999984 314.21L0.999984 318.219C0.999984 318.495 0.776126 318.719 0.499984 318.719C0.223842 318.719 -1.61065e-05 318.495 -1.60928e-05 318.219L-1.58932e-05 314.21C-1.58795e-05 313.934 0.223842 313.71 0.499984 313.71ZM0.499984 321.728C0.776126 321.728 0.999984 321.952 0.999984 322.228L0.999984 326.237C0.999983 326.513 0.776126 326.737 0.499983 326.737C0.223841 326.737 -1.65058e-05 326.513 -1.6492e-05 326.237L-1.62924e-05 322.228C-1.62787e-05 321.952 0.223841 321.728 0.499984 321.728ZM0.499983 329.746C0.776126 329.746 0.999983 329.97 0.999983 330.246L0.999983 334.255C0.999983 334.531 0.776125 334.755 0.499983 334.755C0.223841 334.755 -1.6905e-05 334.531 -1.68912e-05 334.255L-1.66916e-05 330.246C-1.66779e-05 329.97 0.223841 329.746 0.499983 329.746ZM0.499983 337.764C0.776125 337.764 0.999983 337.987 0.999983 338.264L0.999983 342.273C0.999983 342.549 0.776125 342.773 0.499983 342.773C0.22384 342.773 -1.73042e-05 342.549 -1.72904e-05 342.273L-1.70908e-05 338.264C-1.70771e-05 337.987 0.223841 337.764 0.499983 337.764ZM0.499983 345.781C0.776125 345.781 0.999983 346.005 0.999983 346.281L0.999982 350.29C0.999982 350.567 0.776125 350.79 0.499982 350.79C0.22384 350.79 -1.77034e-05 350.567 -1.76896e-05 350.29L-1.749e-05 346.281C-1.74763e-05 346.005 0.22384 345.781 0.499983 345.781ZM0.499982 353.799C0.776124 353.799 0.999982 354.023 0.999982 354.299L0.999982 358.308C0.999982 358.584 0.776124 358.808 0.499982 358.808C0.22384 358.808 -1.81026e-05 358.584 -1.80888e-05 358.308L-1.78892e-05 354.299C-1.78755e-05 354.023 0.22384 353.799 0.499982 353.799ZM0.499982 361.817C0.776124 361.817 0.999982 362.041 0.999982 362.317L0.999982 366.326C0.999981 366.602 0.776124 366.826 0.499981 366.826C0.223839 366.826 -1.85018e-05 366.602 -1.8488e-05 366.326L-1.82884e-05 362.317C-1.82747e-05 362.041 0.223839 361.817 0.499982 361.817ZM0.499981 369.835C0.776124 369.835 0.999981 370.059 0.999981 370.335L0.999981 374.344C0.999981 374.62 0.776123 374.844 0.499981 374.844C0.223839 374.844 -1.8901e-05 374.62 -1.88872e-05 374.344L-1.86876e-05 370.335C-1.86739e-05 370.059 0.223839 369.835 0.499981 369.835ZM0.499981 377.853C0.776123 377.853 0.999981 378.077 0.999981 378.353L0.999981 382.362C0.999981 382.638 0.776123 382.862 0.499981 382.862C0.223838 382.862 -1.93002e-05 382.638 -1.92864e-05 382.362L-1.90868e-05 378.353C-1.90731e-05 378.077 0.223839 377.853 0.499981 377.853ZM0.499981 385.871C0.776123 385.871 0.999981 386.095 0.999981 386.371L0.99998 390.38C0.99998 390.656 0.776123 390.88 0.49998 390.88C0.223838 390.88 -1.96994e-05 390.656 -1.96856e-05 390.38L-1.9486e-05 386.371C-1.94723e-05 386.095 0.223838 385.871 0.499981 385.871ZM0.49998 393.889C0.776122 393.889 0.99998 394.113 0.99998 394.389L0.99998 398.398C0.99998 398.674 0.776122 398.898 0.49998 398.898C0.223838 398.898 -2.00986e-05 398.674 -2.00848e-05 398.398L-1.98852e-05 394.389C-1.98715e-05 394.113 0.223838 393.889 0.49998 393.889ZM0.49998 401.907C0.776122 401.907 0.99998 402.131 0.99998 402.407L0.99998 406.416C0.99998 406.692 0.776122 406.916 0.499979 406.916C0.223837 406.916 -2.04978e-05 406.692 -2.0484e-05 406.416L-2.02844e-05 402.407C-2.02707e-05 402.131 0.223837 401.907 0.49998 401.907ZM0.499979 409.925C0.776122 409.925 0.999979 410.148 0.999979 410.425L0.999979 414.433C0.999979 414.71 0.776121 414.933 0.499979 414.933C0.223837 414.933 -2.0897e-05 414.71 -2.08832e-05 414.433L-2.06836e-05 410.425C-2.06699e-05 410.148 0.223837 409.925 0.499979 409.925ZM0.499979 417.942C0.776121 417.942 0.999979 418.166 0.999979 418.442L0.999979 422.451C0.999979 422.728 0.776121 422.951 0.499979 422.951C0.223836 422.951 -2.12962e-05 422.728 -2.12824e-05 422.451L-2.10828e-05 418.442C-2.10691e-05 418.166 0.223837 417.942 0.499979 417.942ZM0.499979 425.96C0.776121 425.96 0.999979 426.184 0.999979 426.46L0.999978 430.469C0.999978 430.745 0.776121 430.969 0.499978 430.969C0.223836 430.969 -2.16954e-05 430.745 -2.16817e-05 430.469L-2.14821e-05 426.46C-2.14683e-05 426.184 0.223836 425.96 0.499979 425.96ZM0.499978 433.978C0.776121 433.978 0.999978 434.202 0.999978 434.478L0.999978 438.487C0.999978 438.763 0.77612 438.987 0.499978 438.987C0.223836 438.987 -2.20946e-05 438.763 -2.20809e-05 438.487L-2.18813e-05 434.478C-2.18675e-05 434.202 0.223836 433.978 0.499978 433.978ZM0.499978 441.996C0.77612 441.996 0.999978 442.22 0.999978 442.496L0.999978 446.505C0.999978 446.781 0.77612 447.005 0.499977 447.005C0.223835 447.005 -2.24938e-05 446.781 -2.24801e-05 446.505L-2.22805e-05 442.496C-2.22667e-05 442.22 0.223835 441.996 0.499978 441.996ZM0.499977 450.014C0.77612 450.014 0.999977 450.238 0.999977 450.514L0.999977 454.523C0.999977 454.799 0.776119 455.023 0.499977 455.023C0.223835 455.023 -2.2893e-05 454.799 -2.28793e-05 454.523L-2.26797e-05 450.514C-2.26659e-05 450.238 0.223835 450.014 0.499977 450.014ZM0.499977 458.032C0.776119 458.032 0.999977 458.256 0.999977 458.532L0.999977 462.541C0.999977 462.817 0.776119 463.041 0.499977 463.041C0.223834 463.041 -2.32922e-05 462.817 -2.32785e-05 462.541L-2.30789e-05 458.532C-2.30651e-05 458.256 0.223835 458.032 0.499977 458.032ZM0.499977 466.05C0.776119 466.05 0.999977 466.274 0.999977 466.55L0.999976 470.559C0.999976 470.835 0.776119 471.059 0.499976 471.059C0.223834 471.059 -2.36914e-05 470.835 -2.36777e-05 470.559L-2.34781e-05 466.55C-2.34643e-05 466.274 0.223834 466.05 0.499977 466.05ZM0.499976 474.068C0.776119 474.068 0.999976 474.291 0.999976 474.568L0.999976 478.577C0.999976 478.853 0.776118 479.077 0.499976 479.077C0.223834 479.077 -2.40906e-05 478.853 -2.40769e-05 478.577L-2.38773e-05 474.568C-2.38635e-05 474.291 0.223834 474.068 0.499976 474.068ZM0.499976 482.085C0.776118 482.085 0.999976 482.309 0.999976 482.585L0.999976 486.594C0.999976 486.871 0.776118 487.094 0.499975 487.094C0.223833 487.094 -2.44898e-05 486.871 -2.44761e-05 486.594L-2.42765e-05 482.585C-2.42627e-05 482.309 0.223833 482.085 0.499976 482.085ZM0.499975 490.103C0.776118 490.103 0.999975 490.327 0.999975 490.603L0.999975 494.612C0.999975 494.888 0.776117 495.112 0.499975 495.112C0.223833 495.112 -2.4889e-05 494.888 -2.48753e-05 494.612L-2.46757e-05 490.603C-2.46619e-05 490.327 0.223833 490.103 0.499975 490.103ZM0.499975 498.121C0.776117 498.121 0.999975 498.345 0.999975 498.621L0.999975 502.63C0.999975 502.906 0.776117 503.13 0.499975 503.13C0.223832 503.13 -2.52882e-05 502.906 -2.52745e-05 502.63L-2.50749e-05 498.621C-2.50611e-05 498.345 0.223833 498.121 0.499975 498.121ZM0.499975 506.139C0.776117 506.139 0.999975 506.363 0.999975 506.639L0.999974 510.648C0.999974 510.924 0.776117 511.148 0.499974 511.148C0.223832 511.148 -2.56874e-05 510.924 -2.56737e-05 510.648L-2.54741e-05 506.639C-2.54603e-05 506.363 0.223832 506.139 0.499975 506.139ZM0.499974 514.157C0.776117 514.157 0.999974 514.381 0.999974 514.657L0.999974 518.666C0.999974 518.942 0.776116 519.166 0.499974 519.166C0.223832 519.166 -2.60866e-05 518.942 -2.60729e-05 518.666L-2.58733e-05 514.657C-2.58595e-05 514.381 0.223832 514.157 0.499974 514.157ZM0.499974 522.175C0.776116 522.175 0.999974 522.399 0.999974 522.675L0.999974 526.684C0.999974 526.96 0.776116 527.184 0.499974 527.184C0.223831 527.184 -2.64858e-05 526.96 -2.64721e-05 526.684L-2.62725e-05 522.675C-2.62587e-05 522.399 0.223831 522.175 0.499974 522.175ZM0.499973 530.193C0.776116 530.193 0.999973 530.417 0.999973 530.693L0.999973 534.702C0.999973 534.978 0.776115 535.202 0.499973 535.202C0.223831 535.202 -2.6885e-05 534.978 -2.68713e-05 534.702L-2.66717e-05 530.693C-2.66579e-05 530.417 0.223831 530.193 0.499973 530.193ZM0.499973 538.21C0.776115 538.21 0.999973 538.434 0.999973 538.71L0.999973 542.719C0.999973 542.995 0.776115 543.219 0.499973 543.219C0.22383 543.219 -2.72842e-05 542.995 -2.72705e-05 542.719L-2.70709e-05 538.71C-2.70571e-05 538.434 0.223831 538.21 0.499973 538.21ZM0.499973 546.228C0.776115 546.228 0.999973 546.452 0.999973 546.728L0.999972 550.737C0.999972 551.013 0.776115 551.237 0.499972 551.237C0.22383 551.237 -2.76834e-05 551.013 -2.76697e-05 550.737L-2.74701e-05 546.728C-2.74563e-05 546.452 0.22383 546.228 0.499973 546.228ZM0.499972 554.246C0.776115 554.246 0.999972 554.47 0.999972 554.746L0.999972 558.755C0.999972 559.031 0.776114 559.255 0.499972 559.255C0.22383 559.255 -2.80826e-05 559.031 -2.80689e-05 558.755L-2.78693e-05 554.746C-2.78555e-05 554.47 0.22383 554.246 0.499972 554.246ZM0.499972 562.264C0.776114 562.264 0.999972 562.488 0.999972 562.764L0.999972 566.773C0.999972 567.049 0.776114 567.273 0.499972 567.273C0.223829 567.273 -2.84818e-05 567.049 -2.84681e-05 566.773L-2.82685e-05 562.764C-2.82547e-05 562.488 0.223829 562.264 0.499972 562.264ZM0.499971 570.282C0.776114 570.282 0.999971 570.506 0.999971 570.782L0.999971 574.791C0.999971 575.067 0.776113 575.291 0.499971 575.291C0.223829 575.291 -2.8881e-05 575.067 -2.88673e-05 574.791L-2.86677e-05 570.782C-2.86539e-05 570.506 0.223829 570.282 0.499971 570.282ZM0.499971 578.3C0.776113 578.3 0.999971 578.523 0.999971 578.8L0.999971 582.808C0.999971 583.085 0.776113 583.308 0.499971 583.308C0.223828 583.308 -2.92802e-05 583.085 -2.92665e-05 582.808L-2.90669e-05 578.8C-2.90531e-05 578.523 0.223829 578.3 0.499971 578.3ZM0.499971 586.317C0.776113 586.317 0.999971 586.541 0.999971 586.817L0.99997 590.826C0.99997 591.102 0.776113 591.326 0.49997 591.326C0.223828 591.326 -2.96794e-05 591.102 -2.96657e-05 590.826L-2.94661e-05 586.817C-2.94523e-05 586.541 0.223828 586.317 0.499971 586.317ZM0.49997 594.335C0.776113 594.335 0.99997 594.559 0.99997 594.835L0.99997 598.844C0.99997 599.12 0.776112 599.344 0.49997 599.344C0.223828 599.344 -3.00786e-05 599.12 -3.00649e-05 598.844L-2.98653e-05 594.835C-2.98516e-05 594.559 0.223828 594.335 0.49997 594.335ZM0.49997 602.353C0.776112 602.353 0.99997 602.577 0.99997 602.853L0.99997 606.862C0.99997 607.138 0.776112 607.362 0.49997 607.362C0.223827 607.362 -3.04779e-05 607.138 -3.04641e-05 606.862L-3.02645e-05 602.853C-3.02508e-05 602.577 0.223827 602.353 0.49997 602.353ZM0.499969 610.371C0.776112 610.371 0.999969 610.595 0.999969 610.871L0.999969 614.88C0.999969 615.156 0.776111 615.38 0.499969 615.38C0.223827 615.38 -3.08771e-05 615.156 -3.08633e-05 614.88L-3.06637e-05 610.871C-3.065e-05 610.595 0.223827 610.371 0.499969 610.371ZM0.499969 618.389C0.776111 618.389 0.999969 618.613 0.999969 618.889L0.999969 622.898C0.999969 623.174 0.776111 623.398 0.499969 623.398C0.223826 623.398 -3.12763e-05 623.174 -3.12625e-05 622.898L-3.10629e-05 618.889C-3.10492e-05 618.613 0.223827 618.389 0.499969 618.389ZM0.499969 626.406C0.776111 626.406 0.999969 626.63 0.999969 626.906L0.999968 630.915C0.999968 631.192 0.776111 631.415 0.499968 631.415C0.223826 631.415 -3.16755e-05 631.192 -3.16617e-05 630.915L-3.14621e-05 626.906C-3.14484e-05 626.63 0.223826 626.406 0.499969 626.406ZM0.499968 634.424C0.776111 634.424 0.999968 634.648 0.999968 634.924L0.999968 638.933C0.999968 639.209 0.77611 639.433 0.499968 639.433C0.223826 639.433 -3.20747e-05 639.209 -3.20609e-05 638.933L-3.18613e-05 634.924C-3.18476e-05 634.648 0.223826 634.424 0.499968 634.424ZM0.499968 642.442C0.77611 642.442 0.999968 642.666 0.999968 642.942L0.999968 646.951C0.999968 647.227 0.77611 647.451 0.499968 647.451C0.223825 647.451 -3.24739e-05 647.227 -3.24601e-05 646.951L-3.22605e-05 642.942C-3.22468e-05 642.666 0.223825 642.442 0.499968 642.442ZM0.499967 650.46C0.77611 650.46 0.999967 650.684 0.999967 650.96L0.999967 654.969C0.999967 655.245 0.776109 655.469 0.499967 655.469C0.223825 655.469 -3.28731e-05 655.245 -3.28593e-05 654.969L-3.26597e-05 650.96C-3.2646e-05 650.684 0.223825 650.46 0.499967 650.46ZM0.499967 658.478C0.776109 658.478 0.999967 658.702 0.999967 658.978L0.999967 662.987C0.999967 663.263 0.776109 663.487 0.499967 663.487C0.223824 663.487 -3.32723e-05 663.263 -3.32585e-05 662.987L-3.30589e-05 658.978C-3.30452e-05 658.702 0.223825 658.478 0.499967 658.478ZM0.499967 666.496C0.776109 666.496 0.999967 666.719 0.999967 666.996L0.999966 671.005C0.999966 671.281 0.776109 671.505 0.499966 671.505C0.223824 671.505 -3.36715e-05 671.281 -3.36577e-05 671.005L-3.34581e-05 666.996C-3.34444e-05 666.719 0.223824 666.496 0.499967 666.496ZM0.499966 674.513C0.776109 674.513 0.999966 674.737 0.999966 675.013L0.999966 679.022C0.999966 679.298 0.776108 679.522 0.499966 679.522C0.223824 679.522 -3.40707e-05 679.298 -3.40569e-05 679.022L-3.38573e-05 675.013C-3.38436e-05 674.737 0.223824 674.513 0.499966 674.513ZM0.499966 682.531C0.776108 682.531 0.999966 682.755 0.999966 683.031L0.999966 687.04C0.999966 687.316 0.776108 687.54 0.499966 687.54C0.223823 687.54 -3.44699e-05 687.316 -3.44561e-05 687.04L-3.42565e-05 683.031C-3.42428e-05 682.755 0.223823 682.531 0.499966 682.531ZM0.499965 690.549C0.776108 690.549 0.999965 690.773 0.999965 691.049L0.999965 695.058C0.999965 695.334 0.776107 695.558 0.499965 695.558C0.223823 695.558 -3.48691e-05 695.334 -3.48553e-05 695.058L-3.46557e-05 691.049C-3.4642e-05 690.773 0.223823 690.549 0.499965 690.549ZM0.499965 698.567C0.776107 698.567 0.999965 698.791 0.999965 699.067L0.999965 703.076C0.999965 703.352 0.776107 703.576 0.499965 703.576C0.223822 703.576 -3.52683e-05 703.352 -3.52545e-05 703.076L-3.50549e-05 699.067C-3.50412e-05 698.791 0.223823 698.567 0.499965 698.567ZM0.499965 706.585C0.776107 706.585 0.999965 706.809 0.999965 707.085L0.999964 711.094C0.999964 711.37 0.776107 711.594 0.499964 711.594C0.223822 711.594 -3.56675e-05 711.37 -3.56537e-05 711.094L-3.54541e-05 707.085C-3.54404e-05 706.809 0.223822 706.585 0.499965 706.585ZM0.499964 714.603C0.776107 714.603 0.999964 714.826 0.999964 715.103L0.999964 719.111C0.999964 719.388 0.776106 719.611 0.499964 719.611C0.223822 719.611 -3.60667e-05 719.388 -3.60529e-05 719.111L-3.58533e-05 715.103C-3.58396e-05 714.826 0.223822 714.603 0.499964 714.603ZM0.499964 722.62C0.776106 722.62 0.999964 722.844 0.999964 723.12L0.999964 727.129C0.999964 727.405 0.776106 727.629 0.499964 727.629C0.223821 727.629 -3.64659e-05 727.405 -3.64521e-05 727.129L-3.62525e-05 723.12C-3.62388e-05 722.844 0.223821 722.62 0.499964 722.62ZM0.499963 730.638C0.776106 730.638 0.999963 730.862 0.999963 731.138L0.999963 735.147C0.999963 735.423 0.776105 735.647 0.499963 735.647C0.223821 735.647 -3.68651e-05 735.423 -3.68513e-05 735.147L-3.66517e-05 731.138C-3.6638e-05 730.862 0.223821 730.638 0.499963 730.638ZM0.499963 738.656C0.776105 738.656 0.999963 738.88 0.999963 739.156L0.999963 743.165C0.999963 743.441 0.776105 743.665 0.499963 743.665C0.22382 743.665 -3.72643e-05 743.441 -3.72505e-05 743.165L-3.70509e-05 739.156C-3.70372e-05 738.88 0.223821 738.656 0.499963 738.656ZM0.499963 746.674C0.776105 746.674 0.999963 746.898 0.999963 747.174L0.999962 751.183C0.999962 751.459 0.776105 751.683 0.499962 751.683C0.22382 751.683 -3.76635e-05 751.459 -3.76497e-05 751.183L-3.74501e-05 747.174C-3.74364e-05 746.898 0.22382 746.674 0.499963 746.674ZM0.499962 754.692C0.776105 754.692 0.999962 754.915 0.999962 755.192L0.999962 759.201C0.999962 759.477 0.776104 759.701 0.499962 759.701C0.22382 759.701 -3.80627e-05 759.477 -3.80489e-05 759.201L-3.78493e-05 755.192C-3.78356e-05 754.915 0.22382 754.692 0.499962 754.692ZM0.499962 762.709C0.776104 762.709 0.999962 762.933 0.999962 763.209L0.999962 767.218C0.999962 767.495 0.776104 767.718 0.499962 767.718C0.223819 767.718 -3.84619e-05 767.495 -3.84481e-05 767.218L-3.82485e-05 763.209C-3.82348e-05 762.933 0.223819 762.709 0.499962 762.709ZM0.499961 770.727C0.776104 770.727 0.999961 770.951 0.999961 771.227L0.999961 775.236C0.999961 775.512 0.776103 775.736 0.499961 775.736C0.223819 775.736 -3.88611e-05 775.512 -3.88473e-05 775.236L-3.86477e-05 771.227C-3.8634e-05 770.951 0.223819 770.727 0.499961 770.727ZM0.499961 778.745C0.776103 778.745 0.999961 778.969 0.999961 779.245L0.999961 783.254C0.999961 783.53 0.776103 783.754 0.499961 783.754C0.223818 783.754 -3.92603e-05 783.53 -3.92465e-05 783.254L-3.90469e-05 779.245C-3.90332e-05 778.969 0.223819 778.745 0.499961 778.745ZM0.499961 786.763C0.776103 786.763 0.999961 786.987 0.999961 787.263L0.99996 791.272C0.99996 791.548 0.776103 791.772 0.49996 791.772C0.223818 791.772 -3.96595e-05 791.548 -3.96457e-05 791.272L-3.94461e-05 787.263C-3.94324e-05 786.987 0.223818 786.763 0.499961 786.763ZM0.49996 794.781C0.776103 794.781 0.99996 795.005 0.99996 795.281L0.99996 799.29C0.99996 799.566 0.776102 799.79 0.49996 799.79C0.223818 799.79 -4.00587e-05 799.566 -4.00449e-05 799.29L-3.98453e-05 795.281C-3.98316e-05 795.005 0.223818 794.781 0.49996 794.781ZM0.49996 802.799C0.776102 802.799 0.99996 803.022 0.99996 803.299L0.99996 807.307C0.99996 807.584 0.776102 807.807 0.49996 807.807C0.223817 807.807 -4.04579e-05 807.584 -4.04441e-05 807.307L-4.02445e-05 803.299C-4.02308e-05 803.022 0.223817 802.799 0.49996 802.799ZM0.499959 810.816C0.776102 810.816 0.999959 811.04 0.999959 811.316L0.999959 815.325C0.999959 815.602 0.776101 815.825 0.499959 815.825C0.223817 815.825 -4.08571e-05 815.602 -4.08433e-05 815.325L-4.06437e-05 811.316C-4.063e-05 811.04 0.223817 810.816 0.499959 810.816ZM0.499959 818.834C0.776101 818.834 0.999959 819.058 0.999959 819.334L0.999959 823.343C0.999959 823.619 0.776101 823.843 0.499959 823.843C0.223816 823.843 -4.12563e-05 823.619 -4.12425e-05 823.343L-4.10429e-05 819.334C-4.10292e-05 819.058 0.223817 818.834 0.499959 818.834ZM0.499959 826.852C0.776101 826.852 0.999959 827.076 0.999959 827.352L0.999958 831.361C0.999958 831.637 0.776101 831.861 0.499958 831.861C0.223816 831.861 -4.16555e-05 831.637 -4.16417e-05 831.361L-4.14421e-05 827.352C-4.14284e-05 827.076 0.223816 826.852 0.499959 826.852ZM0.499958 834.87C0.776101 834.87 0.999958 835.094 0.999958 835.37L0.999958 839.379C0.999958 839.655 0.7761 839.879 0.499958 839.879C0.223816 839.879 -4.20547e-05 839.655 -4.20409e-05 839.379L-4.18413e-05 835.37C-4.18276e-05 835.094 0.223816 834.87 0.499958 834.87ZM0.499958 842.888C0.7761 842.888 0.999958 843.112 0.999958 843.388L0.999958 847.397C0.999958 847.673 0.7761 847.897 0.499958 847.897C0.223815 847.897 -4.24539e-05 847.673 -4.24401e-05 847.397L-4.22405e-05 843.388C-4.22268e-05 843.112 0.223815 842.888 0.499958 842.888ZM0.499957 850.906C0.7761 850.906 0.999957 851.129 0.999957 851.406L0.999957 855.414C0.999957 855.691 0.776099 855.914 0.499957 855.914C0.223815 855.914 -4.28531e-05 855.691 -4.28393e-05 855.414L-4.26397e-05 851.406C-4.2626e-05 851.129 0.223815 850.906 0.499957 850.906ZM0.499957 858.923C0.776099 858.923 0.999957 859.147 0.999957 859.423L0.999957 863.432C0.999957 863.708 0.776099 863.932 0.499957 863.932C0.223814 863.932 -4.32523e-05 863.708 -4.32385e-05 863.432L-4.30389e-05 859.423C-4.30252e-05 859.147 0.223815 858.923 0.499957 858.923ZM0.499957 866.941C0.776099 866.941 0.999957 867.165 0.999957 867.441L0.999956 871.45C0.999956 871.726 0.776099 871.95 0.499956 871.95C0.223814 871.95 -4.36515e-05 871.726 -4.36377e-05 871.45L-4.34381e-05 867.441C-4.34244e-05 867.165 0.223814 866.941 0.499957 866.941ZM0.499956 874.959C0.776099 874.959 0.999956 875.183 0.999956 875.459L0.999956 879.468C0.999956 879.744 0.776098 879.968 0.499956 879.968C0.223814 879.968 -4.40507e-05 879.744 -4.40369e-05 879.468L-4.38373e-05 875.459C-4.38236e-05 875.183 0.223814 874.959 0.499956 874.959ZM0.499956 882.977C0.776098 882.977 0.999956 883.201 0.999956 883.477L0.999956 887.486C0.999956 887.762 0.776098 887.986 0.499956 887.986C0.223813 887.986 -4.44499e-05 887.762 -4.44361e-05 887.486L-4.42365e-05 883.477C-4.42228e-05 883.201 0.223813 882.977 0.499956 882.977ZM0.499955 890.995C0.776098 890.995 0.999955 891.219 0.999955 891.495L0.999955 893.5C0.999955 893.776 0.776098 894 0.499955 894C0.223813 894 -4.47493e-05 893.776 -4.47356e-05 893.5L-4.46357e-05 891.495C-4.4622e-05 891.219 0.223813 890.995 0.499955 890.995Z" fill="white"/>
</g>
<defs>
<clipPath id="clip0_1223_3410">
<rect width="288" height="16" fill="white"/>
</clipPath>
</defs>
</svg>
