<svg width="64" height="18" viewBox="0 0 64 18" fill="none" xmlns="http://www.w3.org/2000/svg">
<path d="M10.8529 1.30971C10.8386 1.0765 10.766 0.850603 10.6417 0.652766C10.5174 0.454929 10.3454 0.291487 10.1414 0.177444C9.9375 0.063401 9.70819 0.00241044 9.47455 6.99978e-05C9.24091 -0.00227044 9.01042 0.0541147 8.80424 0.16405C8.56297 0.280387 8.36071 0.464345 8.22208 0.693538C8.08345 0.922731 8.01443 1.18728 8.02341 1.45498C8.03332 3.38478 8.02341 5.31293 8.02341 7.24273C8.04457 7.41898 8.03225 7.59765 7.98709 7.76933C6.84538 7.16544 5.52595 6.98778 4.26517 7.26819C3.00439 7.5486 1.88464 8.26875 1.10652 9.29964C0.352972 10.2864 -0.0368991 11.503 0.00275175 12.744C0.0424026 13.985 0.509145 15.1742 1.32415 16.1109C2.13915 17.0476 3.25245 17.6742 4.47602 17.8851C5.69959 18.0959 6.95843 17.878 8.03992 17.2681C8.10474 17.377 8.18293 17.4774 8.27269 17.5669C8.44073 17.7235 8.64074 17.8417 8.85891 17.9135C9.07709 17.9852 9.30823 18.0088 9.5364 17.9826C9.76458 17.9564 9.98436 17.881 10.1806 17.7617C10.3768 17.6423 10.5448 17.4818 10.673 17.2912C10.8207 17.011 10.8827 16.6935 10.8513 16.3783V1.61016C10.8513 1.51111 10.8513 1.41041 10.8513 1.31136L10.8529 1.30971ZM6.71267 15.2888C6.39422 15.4276 6.11518 15.6432 5.90054 15.9163C5.6859 16.1894 5.54237 16.5115 5.48281 16.8537C5.36482 16.4229 5.13734 16.0299 4.82249 15.713C4.60399 15.5342 4.36584 15.3808 4.11264 15.2558C3.54518 14.9832 3.07811 14.5386 2.77788 13.9853C2.47765 13.4319 2.35955 12.798 2.44037 12.1737C2.52654 11.5775 2.78635 11.02 3.18737 10.5705C3.58838 10.121 4.11286 9.79961 4.69538 9.64631C5.12296 9.53967 5.56865 9.52745 6.00143 9.61051C6.43422 9.69356 6.84372 9.86989 7.20145 10.1272C7.55919 10.3846 7.85658 10.7168 8.07293 11.1007C8.28929 11.4846 8.41942 11.911 8.45427 12.3503C8.50588 12.9609 8.36545 13.5723 8.0526 14.0991C7.73976 14.6259 7.27014 15.0419 6.70937 15.2888H6.71267Z" fill="white"/>
<path d="M63.8423 4.64292C63.5832 3.21014 62.7805 1.93289 61.6019 1.07807C60.4232 0.223249 58.9598 -0.14301 57.5174 0.0558268C56.075 0.254664 54.7653 1.00321 53.8619 2.14506C52.9585 3.2869 52.5313 4.7337 52.6696 6.18313C52.7589 7.14074 53.0948 8.05887 53.6445 8.84809C54.1942 9.63731 54.9389 10.2707 55.8062 10.6865C55.9151 10.7443 56.0653 10.7559 56.1231 10.9292C55.7748 11.5185 55.4231 12.1161 55.0699 12.7137L55.1442 12.7963C55.5394 12.6405 55.9252 12.4619 56.2997 12.2614C57.2091 11.6761 58.239 11.3037 59.3125 11.1719C60.7727 10.8947 62.0656 10.0551 62.9128 8.83396C63.7601 7.6128 64.0938 6.10776 63.8423 4.64292ZM57.3199 1.99007C57.2956 1.84056 57.3068 1.68743 57.3526 1.54305C57.3984 1.39867 57.4776 1.26709 57.5836 1.15895C57.6897 1.0508 57.8197 0.96912 57.9632 0.920501C58.1066 0.871882 58.2595 0.85769 58.4095 0.879072C58.5596 0.867613 58.7104 0.889681 58.8509 0.94368C58.9914 0.997678 59.1182 1.08225 59.222 1.19128C59.3258 1.30031 59.4041 1.43107 59.4511 1.57407C59.4982 1.71708 59.5128 1.86876 59.494 2.01813C59.4464 2.56255 59.3508 3.1017 59.2084 3.62932C58.9004 4.71859 58.6883 5.83274 58.5745 6.95901C58.3632 7.04485 58.3005 6.97056 58.2724 6.80218C58.2015 6.36141 58.1255 5.92065 58.0347 5.48153C57.8135 4.42997 57.4982 3.39986 57.3579 2.33344C57.3374 2.21943 57.3247 2.10415 57.3199 1.98842V1.99007ZM58.4045 10.079C58.2632 10.0752 58.1242 10.0427 57.9958 9.98367C57.8674 9.92461 57.7523 9.84017 57.6575 9.73542C57.5626 9.63068 57.4899 9.50781 57.4438 9.37423C57.3977 9.24064 57.3792 9.0991 57.3893 8.95814C57.39 8.8209 57.4193 8.68532 57.4753 8.56C57.5313 8.43468 57.6127 8.32236 57.7143 8.23016C57.816 8.13796 57.9357 8.0679 58.0659 8.02442C58.1961 7.98093 58.3339 7.96497 58.4705 7.97756C58.6078 7.97503 58.7443 8.00043 58.8714 8.05222C58.9986 8.10401 59.114 8.18111 59.2104 8.27883C59.3069 8.37656 59.3825 8.49287 59.4327 8.62071C59.4829 8.74855 59.5066 8.88526 59.5023 9.02252C59.4962 9.30742 59.3777 9.57837 59.1727 9.77628C58.9677 9.9742 58.6927 10.083 58.4078 10.079H58.4045Z" fill="white"/>
<path d="M52.7551 8.73139C52.7551 8.64885 52.7551 8.56631 52.7551 8.48211C52.7295 8.12086 52.5669 7.78302 52.3006 7.53758C52.0343 7.29214 51.6843 7.15761 51.3222 7.16147C51.0677 7.17482 50.8198 7.24689 50.5978 7.37204C50.3759 7.4972 50.1859 7.67204 50.0428 7.88287C48.9821 7.2696 47.7456 7.03183 46.533 7.20795C45.3205 7.38408 44.2027 7.96383 43.3603 8.85354C42.7326 9.51743 42.2833 10.3295 42.0544 11.2141C41.8254 12.0986 41.8243 13.0267 42.0511 13.9117C42.278 14.7968 42.7254 15.61 43.3515 16.2754C43.9777 16.9407 44.7622 17.4366 45.6319 17.7168C46.3638 17.9494 47.1358 18.0289 47.8998 17.9502C48.6637 17.8715 49.4034 17.6364 50.0725 17.2595C50.2198 17.5093 50.4378 17.7099 50.699 17.836C50.9602 17.962 51.2529 18.0078 51.5401 17.9677C51.8972 17.9172 52.2219 17.7333 52.4489 17.453C52.6758 17.1728 52.7882 16.817 52.7633 16.4572C52.7485 13.8803 52.7633 11.3 52.7633 8.72313L52.7551 8.73139ZM48.7057 15.2438C48.6479 15.2752 48.5851 15.3 48.5257 15.3313C48.2137 15.4665 47.9392 15.6753 47.7255 15.9398C47.5119 16.2043 47.3656 16.5166 47.2991 16.8501C47.2343 16.5113 47.0861 16.194 46.868 15.9268C46.6498 15.6596 46.3685 15.451 46.0495 15.3198C45.5788 15.1044 45.1716 14.7713 44.8674 14.3525C44.5632 13.9338 44.3722 13.4436 44.3128 12.9294C44.2587 12.542 44.2823 12.1477 44.3823 11.7695C44.4822 11.3914 44.6566 11.0369 44.8951 10.7269C45.1337 10.4169 45.4316 10.1575 45.7716 9.96401C46.1115 9.77047 46.4866 9.64662 46.8749 9.59971C47.5132 9.49784 48.1673 9.60617 48.7387 9.90839C49.3101 10.2106 49.7678 10.6903 50.0428 11.2753C50.3737 11.9823 50.4189 12.7897 50.1692 13.5293C49.9195 14.2689 49.394 14.8837 48.7023 15.2455L48.7057 15.2438Z" fill="white"/>
<path d="M29.1488 7.30302C27.7986 7.61049 26.6174 8.42342 25.848 9.57475C25.0787 10.7261 24.7795 12.1284 25.012 13.4935C25.2444 14.8586 25.9909 16.0828 27.098 16.9145C28.2052 17.7463 29.5888 18.1224 30.9646 17.9656C32.1515 17.8409 33.2622 17.3218 34.1193 16.4914C34.3615 16.2831 34.5129 15.9886 34.5412 15.6705C34.5696 15.3523 34.4727 15.0356 34.2712 14.7878C34.059 14.548 33.7606 14.402 33.4411 14.3816C33.1215 14.3611 32.8069 14.468 32.5659 14.6788C32.4339 14.7795 32.3051 14.8852 32.1714 14.9843C31.8382 15.2289 31.4588 15.4034 31.0562 15.4973C30.6536 15.5912 30.2361 15.6024 29.829 15.5304C29.422 15.4583 29.0338 15.3044 28.6878 15.0781C28.3419 14.8517 28.0455 14.5575 27.8165 14.2133C27.7422 14.1347 27.6956 14.0338 27.684 13.9262C27.6723 13.8186 27.6963 13.7101 27.7522 13.6174C27.9277 13.5552 28.1153 13.5343 28.3002 13.5563C29.1686 13.5563 30.0369 13.5563 30.9069 13.5563C32.3266 13.5563 33.7462 13.5563 35.1659 13.5563C35.6744 13.5563 35.785 13.4391 35.8147 12.9537C35.8414 12.4555 35.802 11.9559 35.6975 11.468C35.5457 10.7623 35.2551 10.0937 34.8426 9.5012C34.4302 8.90872 33.9041 8.40412 33.2949 8.01674C32.6857 7.62936 32.0056 7.36693 31.2941 7.24468C30.5826 7.12244 29.8539 7.14283 29.1504 7.30467L29.1488 7.30302ZM27.4286 12.1647C27.487 11.4628 27.8003 10.8066 28.3095 10.32C28.8186 9.83336 29.4883 9.54998 30.192 9.52336C30.9576 9.47848 31.7116 9.72642 32.3011 10.2169C32.8906 10.7074 33.2715 11.4037 33.3666 12.1647H27.4286Z" fill="white"/>
<path d="M24.8089 7.28861C24.4628 7.13862 24.072 7.1288 23.7188 7.26121C23.3656 7.39362 23.0776 7.65792 22.9154 7.99846C22.1263 9.6047 21.2927 11.1911 20.4722 12.7858C20.3996 12.9278 20.3633 13.1011 20.1965 13.2002C20.084 13.078 19.9955 12.9358 19.9357 12.7809C19.1598 11.2588 18.3861 9.73566 17.6147 8.21141C17.484 7.923 17.2919 7.66665 17.0517 7.46029C16.8493 7.2966 16.604 7.19475 16.3452 7.16693C16.0863 7.13912 15.825 7.18652 15.5924 7.30346C15.3587 7.39728 15.1579 7.55816 15.0155 7.76585C14.873 7.97354 14.7952 8.21875 14.7918 8.47059C14.7859 8.81846 14.8762 9.16121 15.0526 9.46107C16.2918 11.8823 17.5288 14.3034 18.7636 16.7246C18.8627 16.9161 18.9667 17.1043 19.0657 17.2975C19.1719 17.5008 19.3306 17.672 19.5253 17.7932C19.7201 17.9145 19.9437 17.9814 20.173 17.9869C20.4024 17.9925 20.629 17.9365 20.8294 17.8249C21.0298 17.7132 21.1966 17.5499 21.3125 17.352C21.3736 17.2331 21.4478 17.1241 21.5106 17.0053C22.1478 15.8035 22.7982 14.6083 23.414 13.3966C24.1271 11.9934 24.9228 10.6315 25.5138 9.16723C25.5942 8.99766 25.6397 8.81364 25.6476 8.62613C25.6555 8.43862 25.6256 8.25144 25.5596 8.07573C25.4937 7.90001 25.3931 7.73934 25.2639 7.60327C25.1346 7.4672 24.9793 7.3585 24.8072 7.28365L24.8089 7.28861Z" fill="white"/>
<path d="M42.951 8.36062C42.9519 8.05188 42.8311 7.75521 42.6148 7.5349C42.3985 7.31459 42.1041 7.18836 41.7954 7.18359C40.8147 7.14842 39.8445 7.39597 39.0006 7.89674C38.8718 7.76137 38.7744 7.64747 38.6704 7.54512C38.5233 7.40966 38.3493 7.30672 38.1597 7.24304C37.9701 7.17935 37.7693 7.15633 37.5702 7.17549C37.3711 7.19465 37.1784 7.25555 37.0044 7.35423C36.8305 7.4529 36.6793 7.58713 36.5607 7.74816C36.3785 8.0285 36.2927 8.3606 36.3163 8.69408C36.3163 10.8566 36.3163 13.0192 36.3163 15.1818C36.3163 15.677 36.3163 16.1723 36.3163 16.679C36.3151 16.9061 36.3759 17.1292 36.4923 17.3241C36.6087 17.5191 36.7762 17.6785 36.9767 17.7851C37.1941 17.9167 37.4426 17.9882 37.6967 17.9922C37.9508 17.9963 38.2014 17.9328 38.4229 17.8082C38.6444 17.6836 38.8288 17.5024 38.9573 17.2831C39.0858 17.0638 39.1537 16.8143 39.1541 16.5602C39.1195 14.8318 39.1541 13.0935 39.1393 11.37C39.1329 11.214 39.159 11.0583 39.2158 10.9129C39.2727 10.7674 39.359 10.6353 39.4694 10.5248C39.7686 10.198 40.1341 9.93887 40.5415 9.76464C40.9489 9.59042 41.3887 9.50514 41.8317 9.51453C42.131 9.49895 42.4135 9.37153 42.6232 9.15751C42.8329 8.94349 42.9546 8.65848 42.9642 8.35897L42.951 8.36062Z" fill="white"/>
<path d="M12.0345 7.52494C11.8782 7.67338 11.7545 7.85284 11.6715 8.05183C11.5885 8.25082 11.548 8.46495 11.5525 8.68051C11.5608 9.96154 11.5525 11.2409 11.5525 12.5236V13.1212C11.5525 14.2768 11.5442 15.4175 11.5525 16.5631C11.5525 16.8904 11.664 17.2079 11.8687 17.4633C12.0734 17.7186 12.3589 17.8967 12.6783 17.968C13.0077 18.039 13.3515 17.9908 13.6486 17.8321C13.9457 17.6734 14.177 17.4145 14.3011 17.1013C14.3905 16.8503 14.4335 16.5852 14.4282 16.3188C14.4282 13.8404 14.4282 11.3642 14.4282 8.89016C14.4285 8.67422 14.4052 8.45889 14.3589 8.24799C14.298 8.0102 14.1772 7.79198 14.008 7.61423C13.8387 7.43647 13.6266 7.30512 13.3921 7.23274C13.1576 7.16035 12.9084 7.14937 12.6684 7.20081C12.4284 7.25226 12.2056 7.36443 12.0213 7.52659L12.0345 7.52494Z" fill="white"/>
<path d="M13.0053 3.09841C12.8178 3.09402 12.6314 3.12707 12.4568 3.19564C12.2823 3.26421 12.1232 3.36691 11.9888 3.49774C11.8545 3.62856 11.7475 3.78488 11.6743 3.95754C11.6011 4.13019 11.5631 4.31571 11.5625 4.50324C11.5605 4.88371 11.7098 5.24938 11.9774 5.51981C12.2451 5.79023 12.6092 5.94326 12.9896 5.94523C13.3701 5.9472 13.7358 5.79795 14.0062 5.53031C14.2766 5.26267 14.4297 4.89857 14.4316 4.51811C14.433 4.33066 14.3969 4.14483 14.3257 3.97147C14.2544 3.7981 14.1493 3.64066 14.0165 3.50835C13.8837 3.37603 13.7259 3.27149 13.5523 3.20082C13.3787 3.13015 13.1928 3.09643 13.0053 3.09841Z" fill="white"/>
</svg>
