<svg width="192" height="24" viewBox="0 0 192 24" fill="none" xmlns="http://www.w3.org/2000/svg">
<g clip-path="url(#clip0_1090_4995)">
<path d="M26.0317 23.9999V0.259755C26.1221 0.254965 26.1958 0.248977 26.2683 0.248977C32.7983 0.248977 39.3295 0.248977 45.8594 0.246582C46.7309 0.246582 47.4812 0.573512 48.1577 1.08247C48.9579 1.68364 49.4644 2.48479 49.6452 3.47995C49.682 3.68234 49.707 3.88951 49.7082 4.09429C49.7129 6.4834 49.7189 8.8737 49.7082 11.2628C49.7034 12.2699 49.3313 13.137 48.6417 13.8734C47.9853 14.574 47.1911 14.9908 46.2458 15.1201C46.1043 15.1393 45.9581 15.1321 45.813 15.1321C44.624 15.1321 43.435 15.1321 42.1961 15.1321C42.3114 15.2818 42.4006 15.4051 42.4981 15.5213C43.4541 16.6661 44.4136 17.8074 45.3684 18.9522C46.3933 20.1821 47.4134 21.4156 48.436 22.6479C48.8081 23.0969 49.1779 23.5496 49.5489 23.9999H46.0009C45.7429 23.6789 45.4896 23.3544 45.2257 23.0383C44.5337 22.2108 43.8345 21.388 43.1437 20.5605C42.3947 19.6648 41.6516 18.763 40.9049 17.8649C40.2022 17.0194 39.4959 16.1775 38.7932 15.3321C38.6814 15.1979 38.5649 15.1261 38.3759 15.1273C35.2488 15.1345 32.1218 15.1321 28.9947 15.1321C28.7831 15.1321 28.6773 15.2363 28.6773 15.4446C28.6773 18.296 28.6749 21.1485 28.6749 23.9999H26.0341H26.0317ZM28.6749 12.4352H28.9531C34.5354 12.4352 40.1178 12.4352 45.6989 12.4352C45.7465 12.4352 45.7952 12.4352 45.8428 12.4352C46.4587 12.416 47.0306 11.8412 47.0306 11.2305C47.0329 8.86891 47.0329 6.50615 47.027 4.14459C47.027 3.99131 46.9925 3.82245 46.9212 3.68952C46.6441 3.18057 46.2268 2.90274 45.6252 2.90274C40.0702 2.90753 34.5164 2.90513 28.9614 2.90513C28.7704 2.90513 28.6749 2.99894 28.6749 3.18656C28.6749 6.18401 28.6749 9.18147 28.6749 12.1789V12.4352Z" fill="#DCD1BA"/>
<path d="M118.979 24C118.814 23.9533 118.647 23.9077 118.482 23.8598C116.78 23.3712 115.61 21.8587 115.606 20.0792C115.596 14.7118 115.595 9.3444 115.606 3.97701C115.611 1.8334 117.366 0.0777987 119.499 0.074206C124.834 0.0658232 130.17 0.0670207 135.505 0.074206C137.668 0.0766011 139.422 1.83819 139.425 4.01772C139.435 9.35757 139.432 14.6974 139.425 20.0373C139.423 22.0539 137.995 23.673 135.996 23.9628C135.973 23.9664 135.953 23.9868 135.933 24C130.281 24 124.629 24 118.977 24H118.979ZM127.51 21.3055C130.13 21.3055 132.749 21.3055 135.367 21.3055C136.204 21.3055 136.746 20.763 136.746 19.9223C136.746 18.3751 136.746 16.8279 136.746 15.2806C136.746 11.5647 136.746 7.84867 136.747 4.13269C136.747 3.80216 136.663 3.51116 136.447 3.25489C136.145 2.89682 135.769 2.75192 135.304 2.75311C130.114 2.7591 124.924 2.75671 119.733 2.75671C119.664 2.75671 119.595 2.7591 119.527 2.76389C118.792 2.81299 118.284 3.35548 118.284 4.09317C118.284 9.37674 118.284 14.6603 118.284 19.9439C118.284 20.7762 118.807 21.3043 119.632 21.3043C122.258 21.3043 124.884 21.3043 127.51 21.3043V21.3055Z" fill="#111111"/>
<path d="M-3.17089e-05 12.3526C4.91527 12.3526 9.83057 12.3538 14.7459 12.355C16.4021 12.355 18.0596 12.3526 19.7159 12.3562C20.2153 12.3574 20.591 12.1383 20.8442 11.7227C20.9334 11.5778 20.9929 11.3874 20.9929 11.2185C21.0024 8.82225 21.0012 6.42477 20.9988 4.02848C20.9988 3.46563 20.4114 2.86087 19.8597 2.86087C13.2394 2.85848 6.6191 2.86087 -0.0012207 2.86087V0.166396C6.57035 0.166396 13.1419 0.174779 19.7147 0.160409C21.3222 0.156816 23.0605 1.3376 23.5147 2.99021C23.6063 3.32432 23.6705 3.6788 23.6717 4.02489C23.6847 6.408 23.68 8.78992 23.6788 11.173C23.6788 12.052 23.3982 12.8376 22.8572 13.525C22.2722 14.2675 21.5291 14.7776 20.5981 14.974C20.2854 15.0399 19.9608 15.0806 19.6422 15.0806C14.0812 15.0866 8.51911 15.0854 2.95819 15.0854C2.77112 15.0854 2.67758 15.1772 2.67758 15.3608C2.67758 18.1308 2.67521 20.8995 2.68234 23.6694C2.68234 23.867 2.63359 23.9257 2.43265 23.9233C1.62176 23.9113 0.810862 23.9173 -0.0012207 23.9161V12.3514L-3.17089e-05 12.3526Z" fill="#DCD1BA"/>
<path d="M188.534 24C188.531 23.9892 188.531 23.9773 188.532 23.9665C188.703 23.9641 188.875 23.9593 189.047 23.9593C190.029 23.9557 191.011 23.9533 191.993 23.9497C191.995 23.9665 191.998 23.9832 192 24H188.534Z" fill="#CBC9C7"/>
<path d="M144.598 23.9592C144.6 23.9724 144.598 23.9867 144.598 23.9999H141.917L141.928 23.9448C142.01 23.9496 142.092 23.958 142.174 23.958C142.983 23.958 143.791 23.958 144.6 23.958L144.598 23.9592Z" fill="#CAC8C6"/>
<path d="M171.983 23.9485C171.986 23.9653 171.988 23.9832 171.991 24H169.309C169.309 23.9856 169.309 23.9712 169.309 23.9569C170.2 23.9545 171.092 23.9509 171.982 23.9485H171.983Z" fill="#CAC8C6"/>
<path d="M104.044 24.0001C104.045 23.9845 104.048 23.9677 104.049 23.9521C104.831 23.9557 105.615 23.9593 106.397 23.9629C106.397 23.9761 106.397 23.9881 106.396 24.0001H104.044Z" fill="#CAC8C6"/>
<path d="M171.983 23.9484C171.093 23.9508 170.201 23.9544 169.31 23.9568C169.308 23.8741 169.303 23.7915 169.303 23.7089C169.303 17.1942 169.301 10.6808 169.306 4.16614C169.306 3.5506 169.023 3.12068 168.489 2.8692C168.294 2.77699 168.049 2.76262 167.828 2.76262C160.533 2.75783 153.238 2.75783 145.943 2.75783H144.621V12.331C144.705 12.331 144.785 12.331 144.864 12.331C148.486 12.331 152.11 12.331 155.733 12.3274C155.895 12.3274 155.996 12.3777 156.094 12.5034C158.032 15.0219 160.114 17.4206 162.154 19.854C163.264 21.1785 164.381 22.4994 165.495 23.8214C165.525 23.8562 165.551 23.8945 165.596 23.9532C165.509 23.958 165.451 23.9628 165.393 23.9628C164.34 23.9628 163.288 23.9604 162.237 23.9664C162.1 23.9664 162.012 23.9268 161.923 23.8202C159.524 20.9414 157.12 18.066 154.719 15.1883C154.637 15.0901 154.555 15.0482 154.424 15.0482C151.22 15.0518 148.017 15.0518 144.812 15.0518C144.753 15.0518 144.692 15.0578 144.61 15.0626V15.3165C144.61 18.1139 144.61 20.9114 144.61 23.7101C144.61 23.7927 144.603 23.8753 144.598 23.9568C143.79 23.9568 142.981 23.9568 142.173 23.9568C142.091 23.9568 142.009 23.9484 141.927 23.9436C141.927 17.284 141.927 10.6257 141.928 3.96615C141.928 2.75064 141.928 1.53513 141.928 0.318427V0.0717331H142.206C150.773 0.0717331 159.34 0.0896963 167.906 0.0573626C169.74 0.0501773 172.025 1.53992 171.99 4.16734C171.963 6.23909 171.985 8.31204 171.985 10.3838V10.6413H172.191C174.618 10.6413 177.045 10.6413 179.473 10.6449C179.602 10.6449 179.686 10.6077 179.769 10.5083C182.65 7.05821 185.532 3.60928 188.418 0.163944C188.468 0.104067 188.558 0.042992 188.63 0.0417945C189.717 0.0346092 190.803 0.0370043 191.889 0.0370043C191.907 0.0370043 191.925 0.0453871 191.972 0.056165C188.645 4.04279 185.331 8.01385 182.004 12.0005C182.349 12.4124 182.691 12.822 183.034 13.2328C185.961 16.7296 188.89 20.2264 191.817 23.7232C191.879 23.7963 191.933 23.8753 191.992 23.952C191.01 23.9544 190.028 23.958 189.045 23.9616C188.874 23.9616 188.702 23.9663 188.531 23.9687C187.755 23.0466 186.978 22.1269 186.205 21.2036C184.058 18.6373 181.913 16.0673 179.763 13.5034C179.706 13.4351 179.598 13.3693 179.513 13.3693C177.039 13.3621 174.566 13.3633 172.092 13.3645C172.065 13.3645 172.038 13.3693 171.982 13.3729V23.952L171.983 23.9484Z" fill="#111111"/>
<path d="M106.397 23.9628C105.615 23.9592 104.831 23.9556 104.049 23.952C103.462 22.3281 102.874 20.7043 102.286 19.0804C100.547 14.2806 98.8079 9.48207 97.0684 4.68231C96.9352 4.31466 96.7997 3.94701 96.6487 3.53027C96.4787 3.99492 96.3241 4.41286 96.1719 4.832C94.6975 8.90006 93.2232 12.9681 91.7488 17.0374C90.9356 19.2816 90.1223 21.5258 89.3138 23.7712C89.2627 23.9149 89.1996 23.9724 89.0403 23.97C88.3947 23.9592 87.7479 23.9628 87.1011 23.9688C86.975 23.9688 86.9073 23.9412 86.8609 23.8119C85.635 20.4157 84.4032 17.0206 83.1738 13.6256C81.6543 9.42818 80.1347 5.22958 78.6152 1.03099C78.4987 0.707655 78.381 0.385515 78.2573 0.0478075H81.1026C83.4187 6.42114 85.7373 12.8017 88.0737 19.2325C88.1212 19.1151 88.1545 19.0397 88.183 18.963C90.2792 13.1657 92.3754 7.3684 94.4716 1.57108C94.6405 1.10524 94.8093 0.639395 94.9722 0.172352C95.0055 0.0765486 95.0495 0.0322394 95.1601 0.033437C96.1505 0.0382271 97.1397 0.0406222 98.1302 0.0322394C98.2764 0.0310419 98.3002 0.113672 98.3347 0.210674C99.0528 2.19022 99.7722 4.16856 100.49 6.1481C102.049 10.4425 103.608 14.7357 105.168 19.0289C105.19 19.0924 105.223 19.1522 105.257 19.2301C107.297 13.5585 109.33 7.90849 111.362 2.25728C111.607 1.57707 111.856 0.899262 112.093 0.216661C112.142 0.0741535 112.211 0.033437 112.358 0.0346345C113.251 0.0418198 114.145 0.0382271 115.069 0.0382271C114.96 0.344799 114.862 0.632209 114.757 0.91962C112.959 5.88105 111.162 10.8413 109.364 15.8015C108.384 18.5056 107.407 21.2096 106.427 23.9137C106.42 23.9316 106.406 23.9472 106.394 23.964L106.397 23.9628Z" fill="#111111"/>
<path d="M76.7792 11.9755C76.7792 14.6136 76.7483 17.253 76.7899 19.8912C76.822 21.8923 75.4071 23.4839 73.6284 23.8575C73.4679 23.891 73.3026 23.9162 73.1397 23.9162C67.6335 23.9198 62.1261 23.927 56.6198 23.9114C55.7245 23.909 54.9434 23.5234 54.2775 22.927C53.5855 22.3079 53.1836 21.5223 53.0243 20.6109C52.991 20.4217 52.9744 20.2277 52.9744 20.0361C52.972 14.6556 52.972 9.27499 52.9732 3.89442C52.9732 2.32563 54.0647 0.780799 55.5343 0.252682C56.0039 0.0826306 56.4843 0 56.9825 0C62.2688 0.00239509 67.5562 0 72.8425 0C73.9506 0 74.9006 0.408363 75.6628 1.19755C76.3785 1.93763 76.7828 2.83339 76.7804 3.89322C76.7745 6.5865 76.778 9.28097 76.7792 11.9743V11.9755ZM74.0969 11.9587C74.0969 9.31331 74.0767 6.66793 74.1111 4.02375C74.1195 3.33756 73.4227 2.6849 72.7747 2.68609C67.5158 2.70166 62.2569 2.70046 56.9979 2.68849C56.3499 2.68729 55.6449 3.22738 55.6472 4.0489C55.6579 9.32528 55.6579 14.6017 55.6472 19.8792C55.6461 20.6098 56.1787 21.2361 56.9825 21.2337C62.2545 21.2181 67.5277 21.2157 72.7997 21.2373C73.5321 21.2397 74.1135 20.569 74.1076 19.9152C74.0838 17.2638 74.0981 14.6112 74.0981 11.9587H74.0969Z" fill="#DCD1BA"/>
</g>
<defs>
<clipPath id="clip0_1090_4995">
<rect width="192" height="24" fill="white"/>
</clipPath>
</defs>
</svg>
