<svg width="128" height="16" viewBox="0 0 128 16" fill="none" xmlns="http://www.w3.org/2000/svg">
<path d="M17.3553 16V0.173245C17.4156 0.170051 17.4647 0.16606 17.5131 0.16606C21.8664 0.16606 26.2205 0.16606 30.5738 0.164463C31.1548 0.164463 31.655 0.382416 32.106 0.72172C32.6395 1.1225 32.9771 1.6566 33.0976 2.32004C33.1222 2.45497 33.1388 2.59308 33.1396 2.7296C33.1428 4.32234 33.1468 5.91587 33.1396 7.50861C33.1365 8.18003 32.8884 8.75805 32.4286 9.24904C31.9911 9.71608 31.4616 9.99391 30.8314 10.0801C30.7371 10.0929 30.6396 10.0881 30.5429 10.0881C29.7502 10.0881 28.9576 10.0881 28.1316 10.0881C28.2085 10.1879 28.2679 10.2701 28.3329 10.3476C28.9702 11.1108 29.6099 11.8717 30.2464 12.6349C30.9297 13.4548 31.6098 14.2771 32.2915 15.0986C32.5396 15.398 32.7861 15.6998 33.0334 16H30.6681C30.4961 15.786 30.3273 15.5697 30.1513 15.3589C29.69 14.8072 29.2239 14.2588 28.7633 13.7071C28.264 13.1099 27.7686 12.5088 27.2708 11.91C26.8023 11.3463 26.3315 10.7851 25.863 10.2214C25.7885 10.132 25.7108 10.0841 25.5848 10.0849C23.5001 10.0897 21.4154 10.0881 19.3307 10.0881C19.1896 10.0881 19.119 10.1576 19.119 10.2965C19.119 12.1974 19.1174 14.0991 19.1174 16H17.3553ZM19.1174 8.29021H19.3029C23.0245 8.29021 26.746 8.29021 30.4668 8.29021C30.4985 8.29021 30.531 8.29021 30.5627 8.29021C30.9733 8.27743 31.3546 7.89422 31.3546 7.48705C31.3561 5.91268 31.3561 4.33751 31.3522 2.76314C31.3522 2.66094 31.3292 2.54838 31.2816 2.45976C31.097 2.12045 30.8187 1.93523 30.4176 1.93523C26.7143 1.93843 23.0118 1.93683 19.3085 1.93683C19.1811 1.93683 19.1174 1.99937 19.1174 2.12444C19.1174 4.12275 19.1174 6.12105 19.1174 8.11936V8.29021Z" fill="white"/>
<path d="M79.3202 16C79.21 15.9689 79.099 15.9385 78.9889 15.9066C77.8538 15.5809 77.0738 14.5725 77.0714 13.3862C77.0651 9.80789 77.0643 6.22963 77.0714 2.65136C77.0746 1.22229 78.2445 0.0518936 79.6666 0.0494985C83.2233 0.04391 86.7807 0.0447083 90.3374 0.0494985C91.7793 0.0510953 92.9484 1.22549 92.9508 2.67851C92.9572 6.23841 92.9556 9.79831 92.9508 13.3582C92.9492 14.7027 91.9972 15.782 90.6648 15.9753C90.6497 15.9776 90.6362 15.9912 90.6228 16C86.8545 16 83.0869 16 79.3186 16H79.3202ZM85.0075 14.2037C86.7538 14.2037 88.5 14.2037 90.2455 14.2037C90.8035 14.2037 91.1649 13.842 91.1649 13.2816C91.1649 12.2501 91.1649 11.2186 91.1649 10.1871C91.1649 7.7098 91.1649 5.23247 91.1657 2.75515C91.1657 2.5348 91.1095 2.3408 90.9652 2.16995C90.7639 1.93124 90.5134 1.83464 90.2034 1.83544C86.7435 1.83943 83.2835 1.83783 79.8227 1.83783C79.7768 1.83783 79.7308 1.83943 79.6856 1.84262C79.1957 1.87536 78.8565 2.23701 78.8565 2.72881C78.8565 6.25119 78.8565 9.77356 78.8565 13.2959C78.8565 13.8508 79.2052 14.2029 79.7554 14.2029C81.5063 14.2029 83.2566 14.2037 85.0075 14.2037Z" fill="white"/>
<path d="M0.000792663 8.23512C3.27766 8.23512 6.55453 8.23592 9.8314 8.23672C10.9356 8.23672 12.0405 8.23512 13.1447 8.23751C13.4776 8.23831 13.7281 8.09221 13.897 7.81518C13.9564 7.71858 13.996 7.59164 13.996 7.47907C14.0024 5.88154 14.0016 4.28322 14 2.68569C14 2.31046 13.6084 1.90729 13.2406 1.90729C8.82709 1.90569 4.41355 1.90729 0 1.90729V0.110973C4.38105 0.110973 8.76209 0.116561 13.1439 0.106981C14.2156 0.104586 15.3745 0.891772 15.6773 1.99351C15.7383 2.21626 15.7811 2.45257 15.7819 2.6833C15.7906 4.27204 15.7875 5.85999 15.7867 7.44873C15.7867 8.03473 15.5996 8.55846 15.2389 9.01672C14.849 9.5117 14.3535 9.8518 13.7329 9.98274C13.5244 10.0266 13.308 10.0538 13.0956 10.0538C9.3883 10.0578 5.68022 10.057 1.97294 10.057C1.84823 10.057 1.78587 10.1182 1.78587 10.2406C1.78587 12.0872 1.78428 13.933 1.78904 15.7797C1.78904 15.9114 1.75654 15.9505 1.62258 15.9489C1.08198 15.9409 0.541389 15.9449 0 15.9441V8.23432L0.000792663 8.23512Z" fill="white"/>
<path d="M125.69 16C125.688 15.9928 125.688 15.9848 125.689 15.9776C125.803 15.976 125.918 15.9729 126.032 15.9729C126.687 15.9705 127.341 15.9689 127.996 15.9665C127.998 15.9776 127.999 15.9888 128.001 16H125.69Z" fill="white"/>
<path d="M96.3997 15.9729C96.4005 15.9816 96.3997 15.9912 96.3997 16H94.6122L94.6194 15.9633C94.6741 15.9665 94.7288 15.9721 94.7835 15.9721C95.3225 15.9721 95.8615 15.9721 96.4005 15.9721L96.3997 15.9729Z" fill="white"/>
<path d="M114.656 15.9657C114.658 15.9768 114.659 15.9888 114.661 16H112.874C112.874 15.9904 112.874 15.9808 112.874 15.9713C113.467 15.9697 114.063 15.9673 114.656 15.9657Z" fill="white"/>
<path d="M69.3635 16C69.3643 15.9896 69.3659 15.9784 69.3667 15.9681C69.8883 15.9705 70.4106 15.9729 70.9322 15.9753C70.9322 15.984 70.9322 15.992 70.9314 16H69.3635Z" fill="white"/>
<path d="M114.656 15.9657C114.063 15.9673 113.467 15.9697 112.874 15.9713C112.872 15.9162 112.87 15.8611 112.87 15.806C112.87 11.4629 112.868 7.1206 112.871 2.77751C112.871 2.36715 112.683 2.08053 112.327 1.91288C112.197 1.8514 112.033 1.84182 111.886 1.84182C107.023 1.83863 102.159 1.83863 97.2962 1.83863H96.4147V8.22075C96.471 8.22075 96.5241 8.22075 96.5765 8.22075C98.9917 8.22075 101.408 8.22075 103.823 8.21835C103.931 8.21835 103.998 8.25188 104.063 8.33571C105.355 10.0147 106.743 11.6138 108.103 13.2361C108.844 14.1191 109.588 14.9997 110.331 15.881C110.351 15.9042 110.368 15.9297 110.398 15.9689C110.34 15.9721 110.301 15.9753 110.263 15.9753C109.561 15.9753 108.86 15.9737 108.159 15.9776C108.068 15.9776 108.009 15.9513 107.95 15.8802C106.35 13.961 104.747 12.0441 103.147 10.1256C103.092 10.0602 103.037 10.0322 102.95 10.0322C100.814 10.0346 98.6786 10.0346 96.5424 10.0346C96.5027 10.0346 96.4623 10.0386 96.4076 10.0418V10.2111C96.4076 12.076 96.4076 13.941 96.4076 15.8068C96.4076 15.8619 96.4029 15.917 96.3997 15.9713C95.8607 15.9713 95.3217 15.9713 94.7827 15.9713C94.728 15.9713 94.6733 15.9657 94.6186 15.9625C94.6186 11.5228 94.6186 7.08388 94.6194 2.64418C94.6194 1.83384 94.6194 1.0235 94.6194 0.212365V0.0479018H94.8049C100.516 0.0479018 106.227 0.0598773 111.938 0.0383214C113.161 0.0335313 114.684 1.0267 114.661 2.7783C114.643 4.15947 114.657 5.54144 114.657 6.92261V7.09426H114.795C116.413 7.09426 118.031 7.09426 119.649 7.09665C119.736 7.09665 119.791 7.0719 119.847 7.00564C121.767 4.70555 123.689 2.40627 125.612 0.109376C125.646 0.0694576 125.706 0.0287411 125.754 0.0279427C126.479 0.0231525 127.203 0.0247493 127.927 0.0247493C127.939 0.0247493 127.951 0.0303378 127.982 0.0375231C125.764 2.69527 123.555 5.34265 121.337 8.0004C121.567 8.27504 121.795 8.54808 122.023 8.82192C123.975 11.1531 125.927 13.4844 127.879 15.8156C127.92 15.8643 127.956 15.917 127.995 15.9681C127.34 15.9697 126.686 15.9721 126.031 15.9745C125.917 15.9745 125.802 15.9776 125.688 15.9792C125.171 15.3645 124.653 14.7514 124.137 14.1358C122.706 12.4249 121.276 10.7116 119.843 9.00235C119.805 8.95684 119.733 8.91293 119.676 8.91293C118.027 8.90814 116.378 8.90894 114.728 8.90974C114.711 8.90974 114.693 8.91293 114.656 8.91532V15.9681L114.656 15.9657Z" fill="white"/>
<path d="M70.9322 15.9753C70.4106 15.9729 69.8883 15.9705 69.3667 15.9681C68.9751 14.8855 68.5836 13.8029 68.1912 12.7203C67.0323 9.52048 65.8727 6.32144 64.713 3.1216C64.6242 2.8765 64.5338 2.63141 64.4332 2.35358C64.3198 2.66334 64.2168 2.94197 64.1153 3.2214C63.1324 5.93344 62.1495 8.64548 61.1666 11.3583C60.6244 12.8544 60.0823 14.3506 59.5432 15.8475C59.5092 15.9433 59.4671 15.9816 59.3609 15.98C58.9305 15.9729 58.4993 15.9752 58.0681 15.9792C57.9841 15.9792 57.9389 15.9609 57.908 15.8747C57.0907 13.6105 56.2695 11.3471 55.4499 9.08378C54.4369 6.28551 53.4239 3.48645 52.4109 0.687391C52.3332 0.471833 52.2547 0.257073 52.1723 0.0319345H54.0691C55.6132 4.28082 57.1589 8.5345 58.7165 12.8217C58.7482 12.7435 58.7704 12.6932 58.7894 12.6421C60.1869 8.77721 61.5843 4.91233 62.9818 1.04745C63.0944 0.736889 63.2069 0.426326 63.3155 0.114964C63.3377 0.0510953 63.367 0.0215558 63.4408 0.0223542C64.1011 0.0255476 64.7606 0.0271444 65.4208 0.0215558C65.5183 0.0207574 65.5342 0.0758445 65.5572 0.140512C66.0359 1.46021 66.5155 2.7791 66.9943 4.0988C68.0334 6.96173 69.0726 9.82386 70.1126 12.686C70.1277 12.7283 70.1491 12.7682 70.1721 12.8201C71.5323 9.03907 72.8877 5.27239 74.2424 1.50491C74.4057 1.05144 74.5713 0.599571 74.7291 0.144504C74.7624 0.0494985 74.8083 0.0223542 74.9058 0.0231525C75.5011 0.0279427 76.0972 0.0255476 76.7131 0.0255476C76.641 0.229929 76.5752 0.421536 76.5054 0.613143C75.3069 3.92076 74.1084 7.22758 72.9099 10.5344C72.2568 12.3371 71.6052 14.1398 70.952 15.9425C70.9473 15.9545 70.9378 15.9649 70.9298 15.976L70.9322 15.9753Z" fill="white"/>
<path d="M51.187 7.98363C51.187 9.74243 51.1664 11.502 51.1941 13.2608C51.2155 14.5949 50.2723 15.6559 49.0864 15.905C48.9794 15.9274 48.8692 15.9441 48.7607 15.9441C45.0898 15.9465 41.4182 15.9513 37.7474 15.9409C37.1505 15.9393 36.6297 15.6823 36.1858 15.2847C35.7245 14.8719 35.4566 14.3482 35.3504 13.7406C35.3282 13.6145 35.3171 13.4852 35.3171 13.3574C35.3155 9.77037 35.3155 6.18332 35.3163 2.59628C35.3163 1.55042 36.044 0.520533 37.0237 0.168455C37.3368 0.0550871 37.657 0 37.9892 0C41.5133 0.00159673 45.0383 0 48.5625 0C49.3012 0 49.9346 0.272242 50.4427 0.798363C50.9199 1.29175 51.1894 1.88893 51.1878 2.59548C51.1838 4.391 51.1862 6.18811 51.187 7.98363ZM49.3987 7.97246C49.3987 6.20887 49.3853 4.44529 49.4083 2.6825C49.4138 2.22504 48.9493 1.78993 48.5173 1.79073C45.0114 1.80111 41.5054 1.80031 37.9995 1.79233C37.5675 1.79153 37.0974 2.15159 37.099 2.69927C37.1061 6.21686 37.1061 9.73444 37.099 13.2528C37.0982 13.7398 37.4533 14.1574 37.9892 14.1558C41.5038 14.1454 45.0193 14.1438 48.534 14.1582C49.0222 14.1598 49.4098 13.7127 49.4059 13.2768C49.39 11.5092 49.3987 9.74083 49.3987 7.97246Z" fill="white"/>
</svg>
