<svg width="128" height="16" viewBox="0 0 128 16" fill="none" xmlns="http://www.w3.org/2000/svg">
<g clip-path="url(#clip0_1090_3399)">
<path d="M17.3545 16.0001V0.173333C17.4147 0.170139 17.4639 0.166148 17.5122 0.166148C21.8655 0.166148 26.2196 0.166148 30.5729 0.164551C31.154 0.164551 31.6541 0.382504 32.1052 0.721808C32.6386 1.12259 32.9763 1.65669 33.0968 2.32013C33.1214 2.45505 33.138 2.59317 33.1388 2.72969C33.142 4.32243 33.1459 5.91596 33.1388 7.50869C33.1356 8.18012 32.8875 8.75813 32.4278 9.24913C31.9902 9.71617 31.4607 9.994 30.8306 10.0802C30.7362 10.093 30.6387 10.0882 30.542 10.0882C29.7494 10.0882 28.9567 10.0882 28.1307 10.0882C28.2076 10.188 28.2671 10.2702 28.3321 10.3477C28.9694 11.1109 29.6091 11.8717 30.2456 12.635C30.9288 13.4549 31.6089 14.2772 32.2906 15.0987C32.5387 15.3981 32.7853 15.6999 33.0326 16.0001H30.6673C30.4953 15.7861 30.3264 15.5698 30.1504 15.359C29.6891 14.8073 29.223 14.2589 28.7625 13.7072C28.2631 13.11 27.7677 12.5088 27.2699 11.9101C26.8014 11.3464 26.3306 10.7852 25.8621 10.2215C25.7876 10.1321 25.71 10.0842 25.5839 10.085C23.4992 10.0898 21.4145 10.0882 19.3298 10.0882C19.1887 10.0882 19.1182 10.1577 19.1182 10.2966C19.1182 12.1975 19.1166 14.0992 19.1166 16.0001H17.3561H17.3545ZM19.1166 8.29029H19.3021C23.0236 8.29029 26.7452 8.29029 30.4659 8.29029C30.4976 8.29029 30.5301 8.29029 30.5618 8.29029C30.9724 8.27752 31.3537 7.8943 31.3537 7.48714C31.3553 5.91277 31.3553 4.3376 31.3513 2.76322C31.3513 2.66103 31.3283 2.54846 31.2808 2.45985C31.0961 2.12054 30.8179 1.93532 30.4168 1.93532C26.7135 1.93851 23.0109 1.93692 19.3076 1.93692C19.1803 1.93692 19.1166 1.99946 19.1166 2.12453C19.1166 4.12284 19.1166 6.12114 19.1166 8.11944V8.29029Z" fill="white"/>
<path d="M79.3193 15.9998C79.2091 15.9687 79.0981 15.9383 78.9879 15.9064C77.8528 15.5807 77.0729 14.5723 77.0705 13.386C77.0641 9.8077 77.0634 6.22944 77.0705 2.65117C77.0737 1.2221 78.2436 0.051703 79.6657 0.0493079C83.2223 0.0437194 86.7798 0.0445177 90.3365 0.0493079C91.7784 0.0509046 92.9475 1.2253 92.9499 2.67832C92.9562 6.23822 92.9547 9.79812 92.9499 13.358C92.9483 14.7025 91.9963 15.7819 90.6639 15.9751C90.6488 15.9775 90.6353 15.991 90.6219 15.9998C86.8535 15.9998 83.086 15.9998 79.3177 15.9998H79.3193ZM85.0066 14.2035C86.7529 14.2035 88.4991 14.2035 90.2445 14.2035C90.8026 14.2035 91.164 13.8418 91.164 13.2814C91.164 12.2499 91.164 11.2184 91.164 10.1869C91.164 7.7096 91.164 5.23228 91.1648 2.75496C91.1648 2.53461 91.1085 2.34061 90.9643 2.16976C90.7629 1.93105 90.5125 1.83445 90.2025 1.83525C86.7426 1.83924 83.2826 1.83764 79.8218 1.83764C79.7758 1.83764 79.7299 1.83924 79.6847 1.84243C79.1948 1.87516 78.8556 2.23682 78.8556 2.72862C78.8556 6.25099 78.8556 9.77337 78.8556 13.2958C78.8556 13.8506 79.2043 14.2027 79.7544 14.2027C81.5054 14.2027 83.2556 14.2027 85.0066 14.2027V14.2035Z" fill="white"/>
<path d="M-0.0001839 8.23508C3.27668 8.23508 6.55355 8.23587 9.83042 8.23667C10.9346 8.23667 12.0396 8.23508 13.1438 8.23747C13.4767 8.23827 13.7271 8.09217 13.896 7.81514C13.9554 7.71854 13.9951 7.5916 13.9951 7.47903C14.0014 5.8815 14.0006 4.28318 13.999 2.68565C13.999 2.31042 13.6075 1.90725 13.2397 1.90725C8.82612 1.90565 4.41257 1.90725 -0.000976562 1.90725V0.110931C4.38007 0.110931 8.76112 0.116519 13.143 0.106939C14.2146 0.104544 15.3735 0.89173 15.6763 1.99347C15.7373 2.21622 15.7801 2.45253 15.7809 2.68326C15.7897 4.272 15.7865 5.85995 15.7857 7.44869C15.7857 8.03469 15.5986 8.55841 15.238 9.01667C14.848 9.51166 14.3526 9.85176 13.7319 9.98269C13.5234 10.0266 13.307 10.0537 13.0946 10.0537C9.38732 10.0577 5.67924 10.0569 1.97196 10.0569C1.84725 10.0569 1.78489 10.1181 1.78489 10.2406C1.78489 12.0872 1.78331 13.933 1.78806 15.7796C1.78806 15.9113 1.75556 15.9505 1.6216 15.9489C1.08101 15.9409 0.540412 15.9449 -0.000976562 15.9441V8.23428L-0.0001839 8.23508Z" fill="white"/>
<path d="M125.69 15.9998C125.687 15.9927 125.687 15.9847 125.688 15.9775C125.802 15.9759 125.917 15.9727 126.031 15.9727C126.686 15.9703 127.341 15.9687 127.995 15.9663C127.997 15.9775 127.999 15.9887 128 15.9998H125.69Z" fill="white"/>
<path d="M96.3988 15.973C96.3996 15.9817 96.3988 15.9913 96.3988 16.0001H94.6113L94.6185 15.9634C94.6732 15.9666 94.7279 15.9722 94.7825 15.9722C95.3216 15.9722 95.8606 15.9722 96.3996 15.9722L96.3988 15.973Z" fill="white"/>
<path d="M114.656 15.9658C114.657 15.977 114.659 15.989 114.661 16.0002H112.873C112.873 15.9906 112.873 15.981 112.873 15.9714C113.467 15.9698 114.061 15.9674 114.655 15.9658H114.656Z" fill="white"/>
<path d="M69.3628 16.0002C69.3636 15.9898 69.3652 15.9786 69.366 15.9683C69.8875 15.9707 70.4099 15.9731 70.9315 15.9754C70.9315 15.9842 70.9315 15.9922 70.9307 16.0002H69.3628Z" fill="white"/>
<path d="M114.655 15.9656C114.062 15.9672 113.467 15.9696 112.873 15.9712C112.872 15.9161 112.869 15.861 112.869 15.8059C112.869 11.4628 112.867 7.12052 112.87 2.77743C112.87 2.36707 112.682 2.08046 112.326 1.9128C112.196 1.85132 112.032 1.84174 111.885 1.84174C107.022 1.83855 102.158 1.83855 97.2953 1.83855H96.4138V8.22067C96.4701 8.22067 96.5232 8.22067 96.5755 8.22067C98.9908 8.22067 101.407 8.22067 103.822 8.21827C103.93 8.21827 103.997 8.2518 104.062 8.33563C105.354 10.0146 106.742 11.6137 108.102 13.236C108.843 14.119 109.587 14.9996 110.33 15.881C110.35 15.9041 110.367 15.9297 110.397 15.9688C110.339 15.972 110.301 15.9752 110.262 15.9752C109.56 15.9752 108.859 15.9736 108.158 15.9776C108.067 15.9776 108.008 15.9512 107.949 15.8802C106.349 13.9609 104.746 12.044 103.146 10.1256C103.091 10.0601 103.037 10.0322 102.949 10.0322C100.813 10.0345 98.6777 10.0345 96.5415 10.0345C96.5018 10.0345 96.4614 10.0385 96.4067 10.0417V10.211C96.4067 12.076 96.4067 13.9409 96.4067 15.8067C96.4067 15.8618 96.402 15.9169 96.3988 15.9712C95.8598 15.9712 95.3208 15.9712 94.7818 15.9712C94.7271 15.9712 94.6724 15.9656 94.6177 15.9624C94.6177 11.5227 94.6177 7.0838 94.6185 2.6441C94.6185 1.83376 94.6185 1.02342 94.6185 0.212285V0.0478221H94.8039C100.515 0.0478221 106.226 0.0597975 111.937 0.0382417C113.16 0.0334515 114.683 1.02662 114.66 2.77822C114.642 4.15939 114.656 5.54136 114.656 6.92253V7.09418H114.794C116.412 7.09418 118.03 7.09418 119.648 7.09657C119.735 7.09657 119.79 7.07182 119.846 7.00556C121.766 4.70547 123.688 2.40619 125.612 0.109296C125.645 0.0693779 125.705 0.0286614 125.753 0.027863C126.478 0.0230728 127.202 0.0246695 127.926 0.0246695C127.938 0.0246695 127.95 0.0302581 127.981 0.0374434C125.763 2.6952 123.554 5.34257 121.336 8.00032C121.566 8.27496 121.794 8.548 122.022 8.82184C123.974 11.1531 125.926 13.4843 127.878 15.8155C127.919 15.8642 127.955 15.9169 127.994 15.968C127.34 15.9696 126.685 15.972 126.03 15.9744C125.916 15.9744 125.801 15.9776 125.687 15.9792C125.17 15.3644 124.652 14.7513 124.136 14.1357C122.705 12.4249 121.275 10.7116 119.842 9.00227C119.804 8.95676 119.732 8.91285 119.675 8.91285C118.026 8.90806 116.377 8.90886 114.728 8.90966C114.71 8.90966 114.692 8.91285 114.655 8.91524V15.968L114.655 15.9656Z" fill="white"/>
<path d="M70.9313 15.9752C70.4098 15.9728 69.8874 15.9704 69.3658 15.968C68.9743 14.8854 68.5827 13.8028 68.1903 12.7203C67.0314 9.52042 65.8718 6.32138 64.7121 3.12154C64.6233 2.87644 64.533 2.63134 64.4323 2.35351C64.3189 2.66328 64.2159 2.94191 64.1144 3.22133C63.1315 5.93337 62.1486 8.64541 61.1657 11.3583C60.6236 12.8544 60.0814 14.3505 59.5424 15.8474C59.5083 15.9433 59.4663 15.9816 59.36 15.98C58.9296 15.9728 58.4984 15.9752 58.0672 15.9792C57.9832 15.9792 57.938 15.9608 57.9071 15.8746C57.0899 13.6104 56.2687 11.3471 55.4491 9.08372C54.436 6.28545 53.423 3.48639 52.41 0.687328C52.3323 0.47177 52.2538 0.25701 52.1714 0.0318717H54.0682C55.6123 4.28076 57.158 8.53444 58.7156 12.8217C58.7473 12.7434 58.7695 12.6931 58.7885 12.642C60.186 8.77714 61.5835 4.91227 62.9809 1.04739C63.0935 0.736826 63.206 0.426263 63.3146 0.114901C63.3368 0.0510324 63.3662 0.0214929 63.4399 0.0222913C64.1002 0.0254848 64.7597 0.0270815 65.42 0.0214929C65.5175 0.0206946 65.5333 0.0757816 65.5563 0.140449C66.0351 1.46014 66.5146 2.77904 66.9934 4.09873C68.0326 6.96167 69.0718 9.8238 70.1117 12.6859C70.1268 12.7282 70.1482 12.7682 70.1712 12.8201C71.5314 9.03901 72.8868 5.27233 74.2415 1.50485C74.4048 1.05138 74.5705 0.599508 74.7282 0.144441C74.7615 0.0494356 74.8075 0.0222913 74.905 0.0230897C75.5002 0.0278799 76.0963 0.0254848 76.7122 0.0254848C76.6401 0.229866 76.5743 0.421473 76.5046 0.61308C75.306 3.9207 74.1075 7.22752 72.909 10.5343C72.2559 12.337 71.6043 14.1397 70.9512 15.9425C70.9464 15.9544 70.9369 15.9648 70.929 15.976L70.9313 15.9752Z" fill="white"/>
<path d="M51.1862 7.98363C51.1862 9.74243 51.1656 11.502 51.1933 13.2608C51.2147 14.5949 50.2714 15.6559 49.0856 15.905C48.9786 15.9274 48.8684 15.9441 48.7598 15.9441C45.089 15.9465 41.4174 15.9513 37.7466 15.9409C37.1497 15.9393 36.6289 15.6823 36.185 15.2847C35.7237 14.8719 35.4558 14.3482 35.3495 13.7406C35.3274 13.6145 35.3163 13.4852 35.3163 13.3574C35.3147 9.77037 35.3147 6.18332 35.3155 2.59628C35.3155 1.55042 36.0431 0.520533 37.0229 0.168455C37.336 0.0550871 37.6562 0 37.9883 0C41.5125 0.00159673 45.0375 0 48.5617 0C49.3004 0 49.9337 0.272242 50.4418 0.798363C50.919 1.29175 51.1885 1.88893 51.187 2.59548C51.183 4.391 51.1854 6.18732 51.1862 7.98284V7.98363ZM49.3979 7.97246C49.3979 6.20887 49.3844 4.44529 49.4074 2.6825C49.413 2.22504 48.9485 1.78993 48.5165 1.79073C45.0105 1.80111 41.5046 1.80031 37.9986 1.79233C37.5666 1.79153 37.0966 2.15159 37.0982 2.69927C37.1053 6.21686 37.1053 9.73444 37.0982 13.2528C37.0974 13.7398 37.4525 14.1574 37.9883 14.1558C41.503 14.1454 45.0184 14.1438 48.5331 14.1582C49.0214 14.1598 49.409 13.7127 49.405 13.2768C49.3892 11.5092 49.3987 9.74083 49.3987 7.97246H49.3979Z" fill="white"/>
</g>
<defs>
<clipPath id="clip0_1090_3399">
<rect width="128" height="16" fill="white"/>
</clipPath>
</defs>
</svg>
