<svg width="343" height="24" viewBox="0 0 343 24" fill="none" xmlns="http://www.w3.org/2000/svg">
<g clip-path="url(#clip0_1090_10504)">
<path d="M21.4994 23.9443L0 3.41119V0.0554829L21.4994 20.5886L42.9989 0.0554829V3.41119L21.4994 23.9443Z" fill="white"/>
<path d="M64.4982 23.9443L42.9988 3.41119V0.0554829L64.4982 20.5886L85.9977 0.0554829V3.41119L64.4982 23.9443Z" fill="white"/>
<path d="M107.497 23.9443L85.9978 3.41119V0.0554829L107.497 20.5886L128.997 0.0554829V3.41119L107.497 23.9443Z" fill="white"/>
<path d="M150.496 23.9443L128.997 3.41119V0.0554829L150.496 20.5886L171.995 0.0554829V3.41119L150.496 23.9443Z" fill="white"/>
<path d="M193.495 23.9443L171.996 3.41119V0.0554829L193.495 20.5886L214.994 0.0554829V3.41119L193.495 23.9443Z" fill="white"/>
<path d="M236.494 23.9443L214.994 3.41119V0.0554829L236.494 20.5886L257.993 0.0554829V3.41119L236.494 23.9443Z" fill="white"/>
<path d="M279.493 23.9443L257.993 3.41119V0.0554829L279.493 20.5886L300.992 0.0554829V3.41119L279.493 23.9443Z" fill="white"/>
<path d="M322.492 23.9443L300.992 3.41119V0.0554829L322.492 20.5886L343.991 0.0554829V3.41119L322.492 23.9443Z" fill="white"/>
</g>
<defs>
<clipPath id="clip0_1090_10504">
<rect width="343" height="24" fill="white"/>
</clipPath>
</defs>
</svg>
